<svg xmlns="http://www.w3.org/2000/svg" version="1.1" xmlns:xlink="http://www.w3.org/1999/xlink" xmlns:svgjs="http://svgjs.dev/svgjs" viewBox="0 0 800 800" opacity="0.86"><defs><linearGradient x1="50%" y1="0%" x2="50%" y2="100%" id="ccchaos-grad"><stop stop-color="#23405a" stop-opacity="1" offset="0%"></stop><stop stop-color="	hsl(213, 53%, 78%)" stop-opacity="1" offset="100%"></stop></linearGradient></defs><g stroke-width="2" stroke="url(#ccchaos-grad)" fill="none" stroke-linecap="round"><path d="M419.73 -79.28Q435.79 -74.72 451.06 -70.36 465.42 -65.72 478.76 -60.32 490.99 -53.76 502.11 -45.85 512.12 -36.58 521.12 -26.17 529.22 -15.02 536.58 -3.68 543.42 7.23 549.98 17.2 556.51 25.77 563.28 32.74 570.59 38.13 578.68 42.23 587.8 45.53 598.16 48.68 609.91 52.37 623.18 57.22 638.01 63.71 654.38 72.06 672.22 82.2 691.38 93.77 711.66 106.19 732.8 118.72 754.51 130.56 776.43 141.02 798.23 149.59 819.53 156.07 839.98 160.54 859.26 163.45 865.55 178.67 864.44 193.88 856.12 209.1 841.86 224.32 823.89 239.54 805 254.75 788.13 269.97 775.9 285.19 770.22 300.41 771.97 315.62 780.87 330.84 795.54 346.06 813.7 361.28 832.53 376.49 849.1 391.71 860.83 406.93 865.89 422.15 863.51 437.36 854.05 452.58 838.98 467.8 820.65 483.02 801.9 498.23 785.65 513.45 774.43 528.67 769.99 543.88 773 559.1 783.01 574.32 798.46 589.54 816.95 604.75 835.59 619.97 851.5 635.19 862.2 650.4 851.23 667.11 838.39 681.11 823.72 691.36 807.35 697.37 789.45 699.32 770.28 698.04 750.11 694.84 729.26 691.37 708.07 689.36 686.87 690.3 665.98 695.27 645.72 704.72 626.33 718.43 608.04 735.47 591.02 754.43 575.38 773.54 561.16 791.01 548.36 805.26 536.9 815.21 526.67 820.42 509.49 817.61 494.17 809.43 479.5 809.75 463.81 823.1 454.88 838.01 445.1 856.45 434.37 876.75 422.66 896.95 406.95 899.69 390.61 898.54 373.81 892.54 356.73 881.53 339.57 866.09 322.51 847.5 305.7 827.49 289.3 808 273.42 790.86 258.15 777.52 243.53 768.82 229.59 764.88 216.31 765.09 203.63 768.2 191.5 772.54 179.81 776.25 168.45 777.63 157.3 775.33 146.25 768.59 135.17 757.34 123.96 742.23 112.52 724.46 100.8 705.64 88.73 687.52 76.3 671.72 63.52 659.48 50.39 651.47 36.99 647.7 23.36 647.52 9.59 649.77 -4.23 652.9 -18.03 655.25 -18.02 639.96 -18.01 624.67 -17.99 609.38 -17.98 594.09 -17.97 578.8 -17.96 563.52 -17.96 548.23 -17.96 532.94 -17.97 517.65 -17.98 502.36 -18 487.07 -18.01 471.78 -18.02 456.49 -18.03 441.21 -18.03 425.92 -18.03 410.63 -18.02 395.34 -18.01 380.05 -17.99 364.76 -17.98 349.47 -17.97 334.18 -17.96 318.89 -17.96 303.61 -17.96 288.32 -17.97 273.03 -17.99 257.74 -18 242.45 -18.01 227.16 -18.02 211.87 -18.03 196.58 -18.03 181.29 -18.03 166 -4.4 153.2 8.99 140.22 22.12 127.91 34.95 116.97 47.46 107.9 59.67 100.86 71.61 95.73 83.35 92.07 94.96 89.24 106.53 86.51 118.17 83.12 129.98 78.46 142.08 72.14 154.54 64.02 167.46 54.25 180.9 43.22 194.9 31.53 209.46 19.82 224.57 8.73 240.17 -1.2 256.18 -9.67 272.49 -16.59 288.96 -22.11 305.46 -26.59 321.81 -30.55 337.85 -34.56 353.41 -39.15 368.35 -44.76 382.54 -51.62 395.87 -59.8 414.01 -74.2 419.73 -79.28" stroke-dasharray="30 27" transform="rotate(0, 400, 400)" opacity="1.00"></path><path d="M423.11 -66.44Q437.36 -62.11 450.71 -58 463.09 -53.63 474.45 -48.53 484.8 -42.33 494.18 -34.81 502.68 -25.94 510.42 -15.9 517.57 -5.04 524.32 6.12 530.9 17.05 537.54 27.17 544.5 36.04 552.01 43.39 560.31 49.15 569.6 53.51 580.07 56.87 591.84 59.79 605.02 62.92 619.63 66.91 635.65 72.28 653.02 79.37 671.59 88.28 691.18 98.83 711.56 110.58 732.45 122.92 753.56 135.12 774.56 146.43 795.14 156.25 814.96 164.16 833.73 170.02 851.18 174 854.38 188.93 850.59 203.86 840.37 218.79 825.22 233.72 807.38 248.64 789.48 263.57 774.17 278.5 763.7 293.43 759.61 308.36 762.51 323.29 771.97 338.22 786.6 353.14 804.24 368.07 822.28 383 838.06 397.93 849.26 412.86 854.22 427.79 852.22 442.72 843.54 457.64 829.47 472.57 812.08 487.5 793.94 502.43 777.72 517.36 765.83 532.29 760 547.21 761.1 562.14 768.98 577.07 782.46 592 799.55 606.93 817.75 621.86 834.36 636.78 846.92 651.71 837.68 665.8 826.73 676.52 814.03 683.31 799.66 686.2 783.73 685.8 766.4 683.21 747.9 679.86 728.48 677.32 708.43 677.08 688.04 680.27 667.63 687.57 647.47 699.03 627.85 714.1 609 731.69 591.13 750.31 574.4 768.32 558.91 784.12 544.73 796.44 531.85 804.5 520.22 808.13 509.76 807.83 500.33 804.68 484.05 797.15 469.08 795.6 461.82 801.49 454.34 812.06 446.45 826.88 437.99 844.9 428.81 864.57 418.82 884.1 402.42 886.72 385.67 885.7 368.75 880.17 351.83 869.91 335.1 855.41 318.69 837.75 302.74 818.5 287.35 799.39 272.59 782.16 258.49 768.21 245.08 758.48 232.32 753.25 220.16 752.17 208.53 754.26 197.34 758.12 186.47 762.07 175.81 764.49 165.24 763.95 154.65 759.5 143.94 750.78 133.02 738.04 121.8 722.12 110.26 704.32 98.35 686.18 86.07 669.29 73.44 655.02 60.51 644.34 47.32 637.7 33.94 634.94 20.46 635.32 6.95 637.69 -6.49 640.59 -6.65 625.82 -6.86 611.05 -7.09 596.29 -7.3 581.52 -7.47 566.75 -7.57 551.98 -7.59 537.22 -7.51 522.45 -7.36 507.68 -7.16 492.91 -6.93 478.15 -6.71 463.38 -6.53 448.61 -6.42 433.84 -6.4 419.08 -6.46 404.31 -6.6 389.54 -6.8 374.77 -7.03 360.01 -7.25 345.24 -7.44 330.47 -7.56 315.7 -7.59 300.93 -7.54 286.17 -7.41 271.4 -7.22 256.63 -6.99 241.86 -6.77 227.09 -6.57 212.33 -6.45 197.56 -6.4 182.79 -6.44 168.02 6.84 155.22 19.93 142.93 32.77 131.84 45.33 122.47 57.57 115.06 69.51 109.58 81.16 105.69 92.56 102.84 103.78 100.36 114.89 97.52 125.99 93.69 137.19 88.37 148.57 81.33 160.24 72.57 172.3 62.35 184.81 51.15 197.86 39.55 211.46 28.19 225.63 17.64 240.36 8.33 255.6 0.52 271.28 -5.77 287.29 -10.78 303.52 -14.88 319.81 -18.57 336.03 -22.41 352 -26.89 367.58 -32.41 382.6 -39.19 396.93 -47.25 416.79 -61.44 423.11 -66.44" stroke-dasharray="7 21" transform="rotate(9.72972972972973, 400, 400)" opacity="0.97"></path><path d="M423.94 -53.59Q436.29 -49.5 447.74 -45.63 458.26 -41.52 467.88 -36.72 476.66 -30.87 484.69 -23.75 492.11 -15.29 499.07 -5.64 505.76 4.89 512.39 15.86 519.17 26.73 526.32 36.97 534.06 46.11 542.59 53.83 552.08 60 562.69 64.7 574.52 68.24 587.64 71.08 602.09 73.82 617.82 77.08 634.77 81.44 652.8 87.3 671.75 94.92 691.41 104.26 711.52 115.08 731.83 126.88 752.04 139.05 771.86 150.87 791 161.68 809.19 170.93 826.19 178.28 841.79 183.65 842.06 198.25 835.88 212.86 824.13 227.47 808.44 242.08 791.01 256.68 774.28 271.29 760.59 285.9 751.83 300.51 749.25 315.11 753.2 329.72 763.13 344.33 777.65 358.94 794.73 373.54 811.99 388.15 827.01 402.76 837.69 417.37 842.55 431.98 840.9 446.58 832.97 461.19 819.87 475.8 803.44 490.41 785.96 505.01 769.88 519.62 757.46 534.23 750.41 548.84 749.74 563.45 755.53 578.05 766.97 592.66 782.47 607.27 799.85 621.88 816.7 636.49 830.65 651.09 822.93 662.01 813.68 669.3 802.84 672.9 790.4 673.25 776.42 671.26 761.01 668.18 744.31 665.42 726.53 664.37 707.88 666.22 688.64 671.73 669.06 681.18 649.42 694.32 629.97 710.33 610.96 728.03 592.63 745.95 575.15 762.58 558.68 776.59 543.32 786.98 529.15 793.24 516.17 795.46 504.36 794.26 493.66 790.77 483.94 786.47 475.08 782.92 466.9 781.65 459.22 783.86 451.85 790.28 444.58 801.06 437.22 815.75 429.59 833.33 421.53 852.39 412.9 871.26 396.25 873.75 379.55 872.86 362.95 867.76 346.62 858.23 330.68 844.63 315.26 827.92 300.43 809.46 286.25 790.82 272.74 773.6 259.91 759.18 247.73 748.53 236.13 742.08 225.04 739.7 214.37 740.66 204.01 743.81 193.84 747.7 183.76 750.8 173.66 751.68 163.42 749.29 152.98 742.99 142.25 732.73 131.19 718.98 119.76 702.71 107.96 685.2 95.8 667.92 83.32 652.25 70.55 639.35 57.56 629.99 44.42 624.41 31.22 622.36 18.02 623.07 4.9 625.43 4.53 611.18 4.09 596.94 3.63 582.69 3.22 568.45 2.92 554.2 2.77 539.96 2.79 525.72 2.97 511.47 3.3 497.23 3.72 482.98 4.18 468.74 4.61 454.49 4.96 440.25 5.17 426 5.21 411.76 5.08 397.51 4.8 383.27 4.41 369.03 3.95 354.78 3.5 340.54 3.12 326.29 2.86 312.05 2.76 297.8 2.82 283.56 3.05 269.32 3.41 255.07 3.85 240.83 4.31 226.58 4.72 212.34 5.03 198.09 5.2 183.85 5.19 169.61 18.15 157.4 30.96 146.26 43.53 136.72 55.84 129.05 67.85 123.28 79.54 119.17 90.93 116.26 102.05 113.93 112.93 111.5 123.64 108.32 134.27 103.87 144.91 97.82 155.64 90.06 166.57 80.72 177.79 70.17 189.4 58.9 201.47 47.51 214.07 36.59 227.22 26.64 240.95 18.01 255.25 10.87 270.08 5.16 285.37 0.64 301.04 -3.09 316.97 -6.55 333.03 -10.24 349.09 -14.63 364.98 -20.07 380.55 -26.76 395.66 -34.71 417.05 -48.68 423.94 -53.59" stroke-dasharray="31 31" transform="rotate(19.45945945945946, 400, 400)" opacity="0.95"></path><path d="M422.1 -40.74Q432.65 -36.87 442.38 -33.23 451.31 -29.37 459.54 -24.87 467.16 -19.38 474.3 -12.65 481.12 -4.62 487.79 4.62 494.51 14.8 501.45 25.53 508.83 36.3 516.82 46.6 525.6 55.97 535.31 64.05 546.08 70.64 557.99 75.75 571.1 79.56 585.41 82.47 600.89 84.99 617.46 87.7 635 91.18 653.36 95.91 672.33 102.22 691.69 110.26 711.21 119.91 730.62 130.86 749.67 142.62 768.09 154.55 785.65 166 802.12 176.35 817.32 185.11 831.09 192.01 828.63 206.26 820.4 220.5 807.49 234.75 791.6 249 774.84 263.25 759.42 277.5 747.38 291.74 740.31 305.99 739.14 320.24 744.04 334.49 754.34 348.73 768.69 362.98 785.2 377.23 801.68 391.48 815.95 405.73 826.13 419.97 830.87 434.22 829.55 448.47 822.33 462.72 810.18 476.96 794.7 491.21 777.94 505.46 762.1 519.71 749.29 533.95 741.2 548.2 738.89 562.45 742.68 576.7 752.06 590.94 765.79 605.19 782.05 619.44 798.71 633.68 813.55 647.93 807.11 655.47 799.36 659.54 790.21 660.48 779.59 659.03 767.5 656.27 754 653.49 739.17 651.95 723.15 652.82 706.12 656.91 688.28 664.66 669.86 676 651.08 690.4 632.2 706.91 613.45 724.29 595.05 741.17 577.21 756.23 560.1 768.37 543.88 776.87 528.64 781.47 514.47 782.44 501.39 780.53 489.39 776.87 478.42 772.84 468.41 769.89 459.25 769.36 450.79 772.25 442.87 779.14 435.34 790.09 428.01 804.61 420.71 821.75 413.28 840.18 405.55 858.41 389.14 860.77 372.95 859.99 357.11 855.31 341.73 846.47 326.91 833.77 312.72 818 299.19 800.36 286.34 782.26 274.16 765.17 262.6 750.4 251.6 738.96 241.08 731.38 230.96 727.71 221.12 727.47 211.45 729.74 201.85 733.28 192.21 736.7 182.44 738.66 172.45 738.01 162.17 733.95 151.56 726.15 140.58 714.77 129.23 700.44 117.5 684.15 105.44 667.17 93.07 650.8 80.46 636.27 67.67 624.55 54.77 616.23 41.84 611.44 28.94 609.84 16.14 610.71 15.54 596.98 14.87 583.25 14.21 569.51 13.66 555.78 13.28 542.05 13.12 528.32 13.22 514.59 13.54 500.85 14.06 487.12 14.7 473.39 15.38 459.66 16 445.93 16.49 432.19 16.78 418.46 16.84 404.73 16.65 391 16.23 377.27 15.66 363.53 14.99 349.8 14.33 336.07 13.75 322.34 13.33 308.6 13.13 294.87 13.18 281.14 13.47 267.41 13.95 253.67 14.58 239.94 15.25 226.21 15.89 212.48 16.41 198.75 16.75 185.01 16.85 171.28 29.51 160.19 42.04 150.58 54.36 142.76 66.44 136.8 78.24 132.52 89.73 129.53 100.9 127.29 111.77 125.15 122.38 122.49 132.76 118.76 142.99 113.58 153.14 106.75 163.3 98.31 173.56 88.5 184.02 77.73 194.77 66.53 205.89 55.46 217.48 45.06 229.57 35.77 242.23 27.84 255.46 21.37 269.26 16.24 283.61 12.17 298.46 8.76 313.72 5.52 329.3 1.95 345.08 -2.35 360.93 -7.73 376.7 -14.34 392.25 -22.17 407.43 -31.07 422.1 -40.74 422.1 -40.74 422.1 -40.74" stroke-dasharray="14 30" transform="rotate(29.18918918918919, 400, 400)" opacity="0.92"></path><path d="M417.84 -27.9Q426.82 -24.25 435.14 -20.83 449.98 -12.54 463.81 -1.53 470.51 6.07 477.34 14.88 484.49 24.69 492.11 35.12 500.37 45.74 509.41 56.06 519.36 65.61 530.31 74.02 542.32 81.03 555.43 86.58 569.64 90.76 584.89 93.87 601.11 96.33 618.19 98.67 635.97 101.45 654.28 105.17 672.91 110.25 691.65 116.94 710.27 125.28 728.53 135.12 746.21 146.1 763.09 157.73 778.97 169.4 793.68 180.49 807.09 190.44 819.11 198.81 814.22 212.66 804.31 226.51 790.61 240.35 774.85 254.2 758.97 268.05 744.97 281.89 734.6 295.74 729.14 309.59 729.28 323.44 735 337.28 745.58 351.13 759.71 364.98 775.63 378.83 791.34 392.67 804.89 406.52 814.58 420.37 819.2 434.22 818.19 448.06 811.66 461.91 800.42 475.76 785.89 489.61 769.88 503.45 754.38 517.3 741.32 531.15 732.35 545 728.57 558.85 730.46 572.69 737.79 586.54 749.63 600.39 764.52 614.24 780.58 628.08 795.83 641.93 783.36 646.41 767.32 644.16 757 641.47 745.34 639.67 732.38 639.86 718.19 642.87 702.89 649.21 686.65 658.98 669.63 671.83 652.03 687.06 634.06 703.62 615.94 720.3 597.88 735.87 580.09 749.21 562.74 759.46 546.01 766.15 530.03 769.25 514.92 769.17 500.75 766.71 487.57 763.01 475.38 759.36 464.16 757.05 453.84 757.24 444.36 760.77 435.59 768.08 427.4 779.15 419.67 793.48 412.22 810.16 404.91 827.97 397.59 845.55 381.91 847.79 366.65 847.13 351.92 842.84 337.8 834.67 324.32 822.83 311.51 808 299.38 791.2 287.89 773.71 277 756.85 266.63 741.87 256.72 729.77 247.15 721.17 237.84 716.25 228.67 714.76 219.54 716 210.35 718.94 201.02 722.38 191.45 725.05 181.59 725.79 171.39 723.7 160.82 718.25 149.88 709.31 138.55 697.2 126.88 682.62 114.89 666.57 102.64 650.22 90.18 634.76 77.59 621.25 64.92 610.49 52.26 602.96 39.66 598.71 27.18 597.37 26.35 584.13 25.47 570.88 24.65 557.64 24 544.39 23.6 531.15 23.5 517.9 23.7 504.66 24.19 491.42 24.91 478.17 25.76 464.93 26.64 451.68 27.43 438.44 28.05 425.19 28.41 411.95 28.46 398.7 28.21 385.46 27.68 372.22 26.94 358.97 26.07 345.73 25.2 332.48 24.43 319.24 23.85 306 23.53 292.75 23.53 279.51 23.83 266.26 24.39 253.02 25.16 239.77 26.03 226.53 26.9 213.29 27.65 200.04 28.19 186.8 28.46 173.55 40.84 163.99 53.1 156.13 65.2 150.07 77.07 145.69 88.68 142.64 99.99 140.45 110.99 138.53 121.67 136.27 132.06 133.13 142.19 128.7 152.09 122.72 161.85 115.13 171.53 106.09 181.21 95.92 190.99 85.06 200.96 74.06 211.2 63.42 221.82 53.63 232.87 45.04 244.42 37.82 256.52 32.01 269.19 27.43 282.44 23.79 296.25 20.68 310.58 17.62 325.37 14.16 340.53 9.91 355.96 4.59 371.54 -1.93 387.14 -9.65 402.62 -18.4 417.84 -27.9 417.84 -27.9 417.84 -27.9" stroke-dasharray="20 33" transform="rotate(38.91891891891892, 400, 400)" opacity="0.90"></path><path d="M411.58 -15.06Q426.53 -8.33 440.46 -1.11 447.17 3.69 453.94 9.62 460.95 16.79 468.32 25.16 476.22 34.56 484.77 44.67 494.1 55.08 504.29 65.36 515.43 75.04 527.55 83.73 540.67 91.15 554.78 97.16 569.81 101.79 585.7 105.21 602.33 107.77 619.56 109.93 637.22 112.2 655.14 115.09 673.11 119.05 690.93 124.41 708.4 131.37 725.31 139.9 741.46 149.82 756.7 160.75 770.86 172.2 783.83 183.59 795.52 194.36 805.88 203.98 798.9 217.39 787.69 230.8 773.58 244.21 758.22 257.62 743.42 271.03 730.93 284.44 722.21 297.85 718.29 311.26 719.62 324.67 726.06 338.08 736.85 351.49 750.71 364.9 766.02 378.31 780.97 391.71 793.8 405.12 803.02 418.53 807.52 431.94 806.79 445.35 800.9 458.76 790.55 472.17 776.97 485.58 761.74 498.99 746.65 512.4 733.49 525.81 723.8 539.22 718.72 552.63 718.85 566.04 724.17 579.44 734.06 592.85 747.35 606.26 754.74 628.44 735.05 627.15 723.88 629.38 711.5 634.62 698 643.06 683.47 654.53 668.03 668.47 651.85 684.06 635.09 700.24 617.95 715.88 600.6 729.92 583.24 741.44 566.05 749.83 549.2 754.83 532.86 756.6 517.14 755.64 502.17 752.83 488.02 749.22 474.75 746.02 462.38 744.38 450.91 745.28 440.29 749.41 430.47 757.1 421.37 768.25 412.89 782.36 404.9 798.57 397.28 815.77 389.89 832.71 375.33 834.83 361.36 834.26 348.01 830.35 335.33 822.81 323.31 811.81 311.95 797.89 301.2 781.97 291.01 765.13 281.31 748.61 272 733.54 263.01 720.92 254.22 711.41 245.54 705.33 236.87 702.58 228.11 702.68 219.17 704.83 210 707.98 200.52 710.99 190.7 712.76 180.5 712.32 169.92 709 158.96 702.45 147.64 692.72 136 680.2 124.08 665.64 111.94 649.99 99.65 634.32 87.26 619.7 74.84 607.05 62.45 597.06 50.16 590.09 38.01 586.15 36.95 573.36 35.9 560.57 34.97 547.79 34.28 535 33.91 522.21 33.9 509.42 34.25 496.63 34.93 483.84 35.85 471.05 36.9 458.26 37.96 445.48 38.91 432.69 39.63 419.9 40.04 407.11 40.09 394.32 39.77 381.53 39.13 368.74 38.24 355.95 37.2 343.17 36.13 330.38 35.16 317.59 34.41 304.8 33.96 292.01 33.87 279.22 34.14 266.43 34.75 253.64 35.62 240.85 36.65 228.07 37.72 215.28 38.71 202.49 39.49 189.7 39.97 176.91 52.08 169.12 64.1 163.07 75.98 158.66 87.66 155.61 99.11 153.46 110.27 151.7 121.13 149.76 131.67 147.1 141.9 143.29 151.83 138.04 161.5 131.25 170.95 122.96 180.25 113.43 189.46 103.04 198.67 92.25 207.96 81.57 217.43 71.47 227.15 62.35 237.21 54.49 247.69 47.99 258.65 42.81 270.14 38.76 282.2 35.51 294.83 32.65 308.03 29.75 321.77 26.37 336.01 22.18 350.67 16.91 365.67 10.46 380.91 2.85 396.25 -5.73 411.58 -15.06 411.58 -15.06 411.58 -15.06" stroke-dasharray="0 9" transform="rotate(48.64864864864865, 400, 400)" opacity="0.87"></path><path d="M404.05 -2.21Q417.81 4.08 431.31 10.8 438.22 15.28 445.43 20.82 453.07 27.55 461.27 35.46 470.13 44.42 479.74 54.16 490.19 64.33 501.51 74.5 513.73 84.25 526.86 93.18 540.86 100.98 555.69 107.46 571.24 112.56 587.43 116.39 604.11 119.2 621.13 121.36 638.33 123.33 655.54 125.58 672.56 128.58 689.22 132.74 705.34 138.32 720.75 145.44 735.29 154.06 748.85 163.95 761.31 174.75 772.6 185.99 782.67 197.12 791.52 207.61 782.82 220.55 770.7 233.49 756.51 246.43 741.83 259.37 728.26 272.31 717.33 285.25 710.23 298.19 707.76 311.13 710.18 324.07 717.23 337.01 728.12 349.95 741.67 362.89 756.35 375.83 770.55 388.77 782.7 401.71 791.45 414.65 795.83 427.59 795.36 440.53 790.09 453.47 780.6 466.41 767.95 479.35 753.53 492.29 738.94 505.23 725.8 518.17 715.55 531.11 709.34 544.05 707.85 556.99 711.25 569.93 719.15 582.87 730.7 595.81 739.59 615.27 723.22 616.28 713.72 620.69 703.09 628.06 691.35 638.33 678.57 651.08 664.82 665.65 650.22 681.14 634.9 696.56 619 710.88 602.68 723.22 586.12 732.9 569.47 739.5 552.91 742.96 536.59 743.58 520.65 741.95 505.23 738.93 490.42 735.54 476.33 732.86 463 731.9 450.47 733.49 438.76 738.18 427.85 746.19 417.7 757.37 408.26 771.24 399.44 786.97 391.16 803.55 383.31 819.87 370.18 821.87 357.7 821.39 345.88 817.82 334.71 810.89 324.17 800.69 314.19 787.69 304.73 772.64 295.7 756.52 287.01 740.42 278.58 725.39 270.31 712.38 262.1 702.1 253.85 694.95 245.49 690.97 236.93 689.88 228.11 691.06 218.97 693.66 209.47 696.68 199.6 699.1 189.35 699.95 178.71 698.47 167.71 694.15 156.39 686.8 144.79 676.58 132.95 663.93 120.94 649.58 108.82 634.42 96.65 619.43 84.49 605.56 72.4 593.61 60.42 584.17 48.61 577.56 47.36 565.19 46.18 552.81 45.19 540.44 44.52 528.07 44.23 515.7 44.36 503.33 44.89 490.96 45.76 478.59 46.88 466.22 48.12 453.85 49.34 441.48 50.42 429.11 51.22 416.74 51.67 404.37 51.71 392 51.34 379.63 50.59 367.26 49.56 354.89 48.36 342.52 47.11 330.15 45.96 317.77 45.03 305.4 44.43 293.03 44.23 280.66 44.44 268.29 45.04 255.92 45.97 243.55 47.12 231.18 48.37 218.81 49.57 206.44 50.6 194.07 51.34 181.7 63.18 175.77 74.97 171.42 86.64 168.41 98.15 166.33 109.44 164.71 120.48 163.02 131.23 160.73 141.66 157.44 151.78 152.82 161.59 146.71 171.1 139.14 180.34 130.26 189.36 120.38 198.22 109.92 206.98 99.34 215.73 89.11 224.53 79.64 233.48 71.24 242.66 64.13 252.15 58.34 262.03 53.77 272.36 50.21 283.19 47.31 294.57 44.68 306.52 41.9 319.04 38.59 332.12 34.44 345.72 29.22 359.8 22.84 374.27 15.36 396.55 2.35 404.05 -2.21" stroke-dasharray="28 20" transform="rotate(58.37837837837838, 400, 400)" opacity="0.85"></path><path d="M396.07 10.61Q409.55 16.51 423.43 22.75 430.89 26.9 438.84 32.05 447.35 38.34 456.52 45.79 466.42 54.3 477.11 63.64 488.6 73.5 500.92 83.51 514.04 93.25 527.93 102.36 542.53 110.49 557.74 117.42 573.47 123.03 589.6 127.35 605.98 130.53 622.47 132.86 638.9 134.72 655.12 136.56 670.96 138.82 686.27 141.92 700.9 146.21 714.72 151.9 727.63 159.09 739.52 167.68 750.34 177.47 760.06 188.09 768.65 199.09 776.16 209.97 766.12 222.42 753.48 234.87 739.53 247.32 725.74 259.77 713.54 272.21 704.18 284.66 698.66 297.11 697.53 309.56 700.93 322.01 708.48 334.46 719.42 346.91 732.6 359.36 746.65 371.81 760.11 384.26 771.59 396.71 779.89 409.16 784.14 421.6 783.91 434.05 779.22 446.5 770.56 458.95 758.82 471.4 745.23 483.85 731.2 496.3 718.19 508.75 707.55 521.2 700.38 533.65 697.44 546.09 699.02 558.54 704.97 570.99 714.66 583.44 723.68 602.71 710.01 607.27 702 613.82 692.98 623.09 682.93 634.79 671.87 648.38 659.84 663.09 646.9 678.06 633.16 692.36 618.71 705.15 603.68 715.71 588.22 723.56 572.46 728.48 556.55 730.59 540.64 730.25 524.87 728.13 509.38 725.06 494.29 721.99 479.69 719.89 465.69 719.61 452.34 721.86 439.69 727.05 427.78 735.34 416.6 746.52 406.13 760.11 396.34 775.36 387.18 791.33 378.57 807.02 367.04 808.9 356.14 808.51 345.87 805.27 336.17 798.91 326.99 789.49 318.25 777.38 309.89 763.22 301.82 747.86 293.93 732.25 286.15 717.37 278.37 704.12 270.52 693.21 262.52 685.09 254.29 679.95 245.77 677.64 236.93 677.74 227.72 679.57 218.14 682.29 208.16 684.99 197.81 686.75 187.09 686.76 176.06 684.42 164.73 679.35 153.18 671.49 141.44 661.03 129.58 648.46 117.66 634.45 105.73 619.84 93.86 605.49 82.08 592.26 70.44 580.86 58.98 571.8 57.58 559.81 56.33 547.82 55.36 535.83 54.76 523.84 54.6 511.85 54.89 499.86 55.62 487.87 56.69 475.89 58 463.9 59.41 451.91 60.78 439.92 61.96 427.93 62.83 415.94 63.31 403.95 63.33 391.96 62.9 379.97 62.07 367.98 60.91 355.99 59.55 344 58.14 332.02 56.81 320.03 55.71 308.04 54.95 296.05 54.61 284.06 54.72 272.07 55.28 260.08 56.22 248.09 57.45 236.1 58.84 224.11 60.24 212.12 61.52 200.13 62.53 188.14 74.1 183.95 85.65 181.05 97.12 179.08 108.45 177.59 119.61 176.09 130.53 174.11 141.2 171.23 151.56 167.12 161.62 161.62 171.35 154.68 180.77 146.41 189.89 137.07 198.74 127.01 207.36 116.65 215.8 106.42 224.13 96.75 232.42 87.97 240.74 80.34 249.18 73.98 257.8 68.88 266.71 64.9 275.96 61.78 285.62 59.19 295.76 56.75 306.42 54.07 317.62 50.81 329.4 46.68 341.73 41.51 354.61 35.21 368 27.84 388.96 15.09 396.07 10.61" stroke-dasharray="21 31" transform="rotate(68.10810810810811, 400, 400)" opacity="0.82"></path><path d="M388.52 23.46Q402.51 28.96 417.45 34.74 425.71 38.57 434.55 43.34 444.04 49.19 454.22 56.17 465.13 64.2 476.78 73.1 489.16 82.62 502.24 92.4 515.99 102.08 530.33 111.29 545.19 119.7 560.45 127.04 576.01 133.15 591.73 137.99 607.49 141.64 623.14 144.29 638.54 146.25 653.55 147.89 668.03 149.64 681.86 151.9 694.93 155.06 707.15 159.4 718.44 165.12 728.74 172.26 738.03 180.74 746.31 190.34 753.59 200.73 759.94 211.48 748.98 223.42 736.17 235.37 722.76 247.32 710.05 259.27 699.29 271.22 691.52 283.16 687.49 295.11 687.61 307.06 691.85 319.01 699.81 330.96 710.71 342.9 723.48 354.85 736.89 366.8 749.63 378.75 760.46 390.7 768.32 402.65 772.45 414.59 772.44 426.54 768.3 438.49 760.43 450.44 749.59 462.39 736.84 474.34 723.43 486.29 710.66 498.23 699.77 510.18 691.82 522.13 687.6 534.08 687.5 546.03 691.54 557.98 699.33 569.93 707.26 591.24 695.62 600.2 688.9 608.68 681.31 619.49 672.81 632.17 663.37 646.1 653.01 660.5 641.75 674.56 629.64 687.49 616.77 698.59 603.21 707.34 589.08 713.43 574.48 716.84 559.55 717.76 544.41 716.68 529.19 714.25 514.02 711.27 499.02 708.61 484.3 707.11 469.97 707.52 456.11 710.39 442.8 716.05 430.09 724.56 418.02 735.69 406.6 748.99 395.84 763.74 385.72 779.1 376.21 794.18 366.28 795.95 356.92 795.62 348.08 792.69 339.69 786.87 331.68 778.2 323.97 766.96 316.47 753.69 309.1 739.12 301.77 724.08 294.39 709.47 286.89 696.11 279.19 684.71 271.24 675.76 262.99 669.54 254.39 666.03 245.42 664.97 236.07 665.86 226.33 668.02 216.22 670.66 205.76 672.93 194.97 674.05 183.9 673.36 172.6 670.35 161.13 664.79 149.52 656.65 137.85 646.18 126.16 633.84 114.51 620.27 102.95 606.22 91.51 592.47 80.23 579.78 69.15 568.78 67.66 557.13 66.4 545.49 65.49 533.85 65.02 522.21 65.03 510.57 65.52 498.93 66.45 487.29 67.72 475.64 69.22 464 70.79 452.36 72.28 440.72 73.54 429.08 74.46 417.44 74.95 405.79 74.95 394.15 74.47 382.51 73.55 370.87 72.28 359.23 70.79 347.59 69.22 335.95 67.73 324.31 66.46 312.66 65.53 301.02 65.03 289.38 65.02 277.74 65.49 266.1 66.39 254.46 67.65 242.82 69.14 231.18 70.71 219.54 72.2 207.89 73.49 196.25 84.79 193.53 96.1 191.7 107.36 190.35 118.52 189.03 129.54 187.29 140.36 184.72 150.95 181.03 161.27 176.02 171.29 169.63 181 161.93 190.39 153.11 199.46 143.48 208.22 133.41 216.71 123.3 224.96 113.56 233.02 104.54 240.94 96.53 248.79 89.68 256.64 84.07 264.57 79.63 272.65 76.18 280.96 73.46 289.57 71.14 298.55 68.86 307.96 66.26 317.85 63.03 328.27 58.93 339.23 53.79 350.74 47.57 362.82 40.33 381.97 27.83 388.52 23.46" stroke-dasharray="18 0" transform="rotate(77.83783783783784, 400, 400)" opacity="0.79"></path><path d="M382.24 36.31Q397.35 41.43 413.81 46.76 422.98 50.28 432.77 54.68 443.21 60.1 454.31 66.6 466.07 74.14 478.47 82.58 491.49 91.69 505.05 101.19 519.1 110.73 533.56 119.97 548.32 128.58 563.29 136.29 578.33 142.88 593.35 148.26 608.2 152.44 622.76 155.53 636.93 157.76 650.57 159.43 663.58 160.9 675.88 162.57 687.38 164.81 698.02 167.96 707.76 172.28 716.58 177.92 724.49 184.93 731.5 193.2 737.66 202.55 743.03 212.65 731.54 224.1 718.91 235.55 706.28 247 694.81 258.45 685.54 269.9 679.32 281.35 676.71 292.8 677.96 304.25 682.93 315.7 691.2 327.15 701.99 338.6 714.33 350.05 727.1 361.5 739.13 372.95 749.32 384.4 756.76 395.85 760.75 407.3 760.94 418.75 757.32 430.2 750.2 441.65 740.24 453.1 728.35 464.55 715.6 476 703.17 487.45 692.17 498.9 683.62 510.35 678.29 521.8 676.66 533.25 678.9 544.7 684.78 556.15 695.76 575.47 689.83 581.58 685.33 587.12 680.3 595.01 674.64 605.09 668.26 616.98 661.12 630.15 653.15 643.93 644.34 657.6 634.7 670.44 624.22 681.79 612.96 691.12 600.97 698.09 588.32 702.56 575.1 704.61 561.4 704.57 547.32 702.93 532.98 700.36 518.49 697.59 503.97 695.42 489.51 694.56 475.24 695.63 461.24 699.08 447.6 705.15 434.39 713.83 421.68 724.88 409.51 737.85 397.91 752.1 386.9 766.86 376.48 781.33 360.23 781.53 345.1 774.78 338 766.82 331.03 756.43 324.12 744.05 317.18 730.29 310.14 715.89 302.93 701.65 295.5 688.31 287.77 676.56 279.72 666.93 271.32 659.73 262.54 655.07 253.37 652.83 243.83 652.67 233.92 654.05 223.66 656.31 213.1 658.73 202.26 660.56 191.2 661.13 179.97 659.88 168.61 656.42 157.18 650.57 145.73 642.38 134.32 632.07 122.99 620.1 111.77 607.03 100.7 593.55 89.82 580.34 79.12 568.09 77.62 556.77 76.41 545.45 75.63 534.13 75.33 522.81 75.55 511.49 76.26 500.17 77.4 488.85 78.87 477.53 80.53 466.22 82.23 454.9 83.82 443.58 85.15 432.26 86.1 420.94 86.59 409.62 86.56 398.3 86.03 386.98 85.04 375.66 83.67 364.34 82.07 353.02 80.36 341.7 78.71 330.38 77.27 319.07 76.17 307.75 75.5 296.43 75.34 285.11 75.68 273.79 76.52 262.47 77.75 251.15 79.29 239.83 80.97 228.51 82.66 217.19 84.2 205.88 95.22 204.23 106.28 203.03 117.32 201.85 128.3 200.29 139.17 197.97 149.88 194.6 160.39 189.98 170.67 184.05 180.68 176.83 190.4 168.49 199.8 159.29 208.88 149.55 217.64 139.65 226.1 129.96 234.27 120.83 242.18 112.55 249.89 105.33 257.43 99.28 272.3 91.01 287.27 85.26 303.12 80.81 319.92 75.25 329.02 71.16 338.6 66.06 348.7 59.92 359.33 52.81 376.38 40.59 382.24 36.31" stroke-dasharray="36 30" transform="rotate(87.56756756756758, 400, 400)" opacity="0.77"></path><path d="M377.92 49.15Q385.88 51.63 394.29 53.88 403.23 56.18 412.71 58.81 422.78 62.04 433.43 66.07 444.68 71.06 456.51 77.08 468.89 84.12 481.77 92.07 495.1 100.75 508.82 109.91 522.83 119.24 537.05 128.43 551.39 137.17 565.73 145.16 579.97 152.19 594.01 158.1 607.72 162.85 621.02 166.47 633.81 169.11 645.99 171 657.49 172.44 668.25 173.77 678.22 175.36 687.38 177.54 702.78 185.46 715.79 197.06 721.02 205.05 725.63 214.07 713.99 225.04 701.83 236 690.2 246.97 680.08 257.93 672.33 268.89 667.61 279.86 666.32 290.82 668.57 301.79 674.17 312.75 682.64 323.72 693.26 334.68 705.14 345.65 717.26 356.61 728.59 367.58 738.17 378.54 745.19 389.51 749.05 400.47 749.43 411.44 746.28 422.4 739.88 433.37 730.78 444.33 719.74 455.3 707.7 466.26 695.69 477.23 684.72 488.19 675.73 499.16 669.48 510.12 666.5 521.09 667.04 532.05 671.07 543.02 678.85 564.28 672.76 574.52 668.71 582 664.31 591.51 659.47 602.73 654.08 615.2 648.07 628.36 641.38 641.55 633.97 654.13 625.8 665.5 616.88 675.15 607.2 682.7 596.79 687.98 585.69 690.98 573.96 691.89 561.66 691.08 548.87 689.08 535.68 686.52 522.18 684.08 508.47 682.44 494.64 682.23 480.8 683.94 467.03 687.93 453.44 694.35 440.09 703.15 427.07 714.09 414.44 726.71 402.26 740.45 390.55 754.62 379.35 768.48 365.36 768.74 352 762.63 345.5 755.36 338.98 745.79 332.37 734.28 325.61 721.36 318.63 707.65 311.38 693.86 303.82 680.68 295.92 668.73 287.66 658.55 279.01 650.51 269.99 644.8 260.6 641.39 250.85 640.09 240.77 640.52 230.4 642.16 219.77 644.38 208.93 646.53 197.92 647.95 186.8 648.08 175.62 646.44 164.42 642.72 153.26 636.8 142.17 628.73 131.19 618.74 120.36 607.23 109.7 594.72 99.23 581.79 88.96 569.09 87.5 558.08 86.42 547.06 85.81 536.05 85.73 525.04 86.18 514.02 87.12 503.01 88.48 492 90.13 480.98 91.94 469.97 93.76 458.96 95.42 447.95 96.79 436.93 97.76 425.92 98.23 414.91 98.18 403.89 97.59 392.88 96.54 381.87 95.09 370.86 93.38 359.84 91.55 348.83 89.76 337.82 88.16 326.8 86.88 315.79 86.04 304.78 85.7 293.77 85.9 282.75 86.61 271.74 87.78 260.73 89.3 249.71 91.06 238.7 99.13 221.66 116.16 214.58 126.96 213.16 137.74 211.01 148.44 207.87 159.03 203.55 169.46 197.98 179.7 191.17 189.7 183.26 199.43 174.46 208.87 165.07 218.01 155.42 226.82 145.86 235.32 136.72 243.5 128.3 251.4 120.82 266.33 109.7 280.71 101.73 294.72 97.23 308.89 93.18 324 87.02 340.06 78.31 348.79 72.26 357.99 65.27 372.81 53.33 377.92 49.15" stroke-dasharray="8 29" transform="rotate(97.2972972972973, 400, 400)" opacity="0.74"></path><path d="M376.05 62Q384.81 64.3 394.05 66.38 403.82 68.49 414.12 70.9 424.94 73.84 436.28 77.52 448.11 82.09 460.39 87.64 473.08 94.17 486.12 101.61 499.43 109.82 512.95 118.58 526.58 127.63 540.25 136.69 553.85 145.46 567.29 153.66 580.49 161.06 593.34 167.47 605.76 172.78 617.68 176.99 629.02 180.16 639.71 182.45 649.72 184.07 659 185.33 674.95 188.3 688.7 193.01 699.12 202.85 707.93 216.29 696.48 226.79 685.07 237.29 674.6 247.79 665.9 258.3 659.66 268.8 656.37 279.3 656.29 289.8 659.42 300.3 665.52 310.8 674.11 321.31 684.51 331.81 695.9 342.31 707.37 352.81 718.02 363.32 727.01 373.82 733.63 384.32 737.35 394.82 737.89 405.32 735.19 415.83 729.48 426.33 721.2 436.83 711.01 447.33 699.71 457.84 688.19 468.34 677.37 478.84 668.1 489.34 661.12 499.84 656.97 510.35 655.98 520.85 658.23 531.35 665.41 547.86 663.32 557.14 659.53 562.38 655.78 569.6 651.96 578.69 647.97 589.36 643.69 601.22 639.05 613.76 633.94 626.43 628.3 638.64 622.08 649.85 615.22 659.59 607.69 667.49 599.48 673.33 590.59 677.05 581.03 678.77 570.82 678.74 560.02 677.37 548.65 675.19 536.8 672.79 524.52 670.76 511.9 669.7 499.01 670.14 485.94 672.46 472.78 676.94 459.6 683.66 446.5 692.53 433.54 703.31 420.8 715.57 408.35 728.8 396.23 742.37 384.51 755.64 372.12 755.93 359.87 750.44 353.66 743.81 347.3 735.03 340.73 724.39 333.91 712.31 326.78 699.35 319.32 686.09 311.51 673.17 303.33 661.17 294.78 650.6 285.85 641.86 276.57 635.2 266.95 630.68 257.02 628.23 246.81 627.6 236.37 628.4 225.74 630.13 214.95 632.22 204.07 634.1 193.14 635.19 182.19 634.99 171.28 633.13 160.45 629.34 149.73 623.52 139.16 615.73 128.75 606.18 118.53 595.22 108.51 583.3 98.69 570.95 97.35 560.24 96.45 549.52 96.07 538.81 96.24 528.1 96.94 517.39 98.12 506.68 99.68 495.97 101.5 485.26 103.44 474.54 105.35 463.83 107.06 453.12 108.46 442.41 109.42 431.7 109.88 420.99 109.79 410.27 109.16 399.56 108.04 388.85 106.53 378.14 104.73 367.43 102.8 356.72 100.88 346.01 99.13 335.3 97.68 324.58 96.65 313.87 96.13 303.16 96.14 292.45 96.69 281.74 97.75 271.03 99.21 260.32 100.98 249.61 109.07 233.07 125.73 225.9 136.27 223.86 146.81 220.87 157.33 216.76 167.77 211.45 178.09 204.97 188.26 197.41 198.24 188.98 207.98 179.93 217.48 170.56 226.68 161.19 235.59 152.14 244.18 143.68 252.46 136.05 260.42 129.41 275.34 119.81 289.53 113.07 302.89 109.16 316.07 105.36 329.56 99.21 343.62 90.54 351.14 84.57 359.01 77.72 371.68 66.06 376.05 62" stroke-dasharray="5 26" transform="rotate(107.02702702702703, 400, 400)" opacity="0.72"></path><path d="M376.83 74.84Q386.36 76.98 396.36 78.9 406.82 80.83 417.74 83.01 429.09 85.68 440.84 89.02 452.95 93.18 465.37 98.26 478.03 104.28 490.88 111.2 503.84 118.9 516.83 127.22 529.78 135.93 542.6 144.78 555.22 153.49 567.55 161.81 579.52 169.49 591.06 176.33 602.09 182.19 612.58 187 622.46 190.77 631.71 193.58 647.87 196.84 662.03 199.17 679.78 208.3 690.13 219.78 679.18 229.85 668.74 239.91 659.56 249.98 652.32 260.05 647.54 270.12 645.59 280.18 646.6 290.25 650.49 300.32 656.99 310.38 665.61 320.45 675.73 330.52 686.6 340.59 697.43 350.65 707.42 360.72 715.83 370.79 722.06 380.86 725.65 390.92 726.33 400.99 724.05 411.06 718.99 421.13 711.5 431.19 702.14 441.26 691.6 451.33 680.65 461.4 670.09 471.46 660.7 481.53 653.16 491.6 648.03 501.67 645.68 511.74 646.29 521.8 650.56 538.65 647.02 550.71 643 557.81 639.15 566.61 635.37 576.85 631.56 588.17 627.63 600.14 623.48 612.26 619.03 624.03 614.21 634.95 608.94 644.59 603.17 652.61 589.65 662.08 574.34 666.01 565.61 665.26 556.29 663.54 546.41 661.35 535.99 659.21 525.08 657.67 513.74 657.23 502.03 658.29 490.01 661.19 477.76 666.1 465.34 673.06 452.83 681.96 440.3 692.54 427.83 704.43 415.48 717.13 403.31 730.11 391.38 742.8 379.87 743.13 368.08 738.2 361.88 732.19 355.42 724.17 348.66 714.37 341.59 703.14 334.17 690.95 326.39 678.3 318.24 665.75 309.73 653.83 300.86 643.03 291.66 633.75 282.14 626.26 272.33 620.73 262.28 617.16 252.01 615.41 241.58 615.23 231.01 616.22 220.37 617.93 209.68 619.87 199.01 621.49 188.37 622.33 177.82 621.95 167.38 620.02 157.09 616.31 146.96 610.74 137.01 603.37 127.27 594.37 117.72 584.03 108.38 572.75 107.23 562.35 106.57 551.95 106.45 541.54 106.89 531.14 107.85 520.73 109.26 510.33 111.01 499.93 112.99 489.52 115.03 479.12 117 468.72 118.75 458.31 120.15 447.91 121.09 437.5 121.52 427.1 121.39 416.7 120.72 406.29 119.56 395.89 117.99 385.49 116.12 375.08 114.1 364.68 112.07 354.27 110.18 343.87 108.57 333.47 107.35 323.06 106.63 312.66 106.44 302.26 106.8 291.85 107.69 281.45 109.05 271.05 110.76 260.64 118.77 244.39 135 236.53 145.24 233.6 155.52 229.61 165.8 224.48 176.06 218.24 186.24 210.97 196.31 202.86 206.24 194.13 215.98 185.05 225.5 175.91 234.78 167 243.79 158.59 252.5 150.91 260.91 144.13 269.01 138.34 284.14 130.21 298.41 124.59 311.51 121.16 324.16 117.55 336.53 111.38 349.08 102.75 355.61 96.87 362.37 90.16 373.13 78.8 376.83 74.84" stroke-dasharray="3 4" transform="rotate(116.75675675675676, 400, 400)" opacity="0.69"></path><path d="M380.17 87.68Q390.33 89.67 400.88 91.43 411.81 93.19 423.08 95.17 434.66 97.57 446.51 100.58 458.56 104.34 470.78 108.96 483.08 114.47 495.42 120.86 507.71 128.04 519.9 135.87 531.9 144.18 543.66 152.74 555.11 161.31 566.18 169.64 576.81 177.5 586.97 184.69 596.6 191.04 605.67 196.43 621.75 203.8 636.02 208.56 654.48 212.71 665.38 217.09 665.62 227.51 652.94 244.22 645.13 253.88 639.35 263.54 635.98 273.21 635.26 282.87 637.23 292.53 641.76 302.2 648.54 311.86 657.12 321.52 666.92 331.18 677.25 340.85 687.44 350.51 696.78 360.17 704.65 369.84 710.5 379.5 713.95 389.16 714.75 398.83 712.86 408.49 708.4 418.15 701.68 427.82 693.15 437.48 683.38 447.14 673.05 456.81 662.85 466.47 653.47 476.13 645.55 485.79 639.63 495.46 636.11 505.12 635.22 514.78 636.65 532 631.56 546.65 627.2 555.26 623.11 565.16 619.2 576.02 615.39 587.45 611.59 599.02 607.71 610.29 603.69 620.82 599.43 630.22 589.75 643.62 578.83 651.84 565.45 652.28 550.45 649.67 542 647.6 533.03 645.84 523.55 644.84 513.6 645.01 503.21 646.69 492.44 650.11 481.33 655.4 469.95 662.55 458.34 671.42 446.58 681.78 434.72 693.27 422.83 705.45 410.97 717.85 399.2 729.95 387.9 730.31 375.97 725.9 369.53 720.47 362.77 713.18 355.68 704.21 348.23 693.83 340.43 682.43 332.27 670.45 323.76 658.36 314.92 646.66 305.77 635.77 296.33 626.1 286.64 617.96 276.72 611.53 266.63 606.91 256.39 604.04 246.05 602.78 235.65 602.86 225.23 603.93 214.83 605.56 204.49 607.33 194.23 608.76 184.1 609.43 174.11 608.98 164.29 607.11 154.66 603.63 145.21 598.45 135.97 591.61 126.93 583.25 118.08 573.61 117.18 563.53 116.81 553.45 116.99 543.37 117.71 533.29 118.93 523.21 120.56 513.13 122.49 503.05 124.58 492.97 126.71 482.89 128.72 472.81 130.47 462.73 131.85 452.65 132.77 442.57 133.16 432.49 132.99 422.41 132.29 412.33 131.08 402.25 129.47 392.17 127.54 382.09 125.45 372.01 123.32 361.93 121.31 351.85 119.55 341.77 118.15 331.69 117.22 321.61 116.81 311.53 116.96 301.45 117.65 291.37 118.84 281.29 120.45 271.21 128.26 255.07 143.96 246.07 153.87 242.11 163.85 237.07 173.87 230.99 183.89 223.94 193.89 216.09 203.82 207.65 213.65 198.86 223.34 189.97 232.87 181.27 242.19 172.98 251.29 165.34 260.13 158.51 268.69 152.6 276.95 147.66 292.43 140.9 306.99 136.28 320.18 133.23 332.7 129.74 344.46 123.54 356.05 114.93 361.87 109.15 367.79 102.59 377.02 91.53 380.17 87.68" stroke-dasharray="11 33" transform="rotate(126.4864864864865, 400, 400)" opacity="0.67"></path><path d="M385.71 100.53Q396.25 102.36 407.08 103.97 418.17 105.57 429.48 107.35 440.96 109.5 452.56 112.2 464.23 115.58 475.92 119.75 487.56 124.76 499.1 130.61 510.47 137.24 521.62 144.55 532.5 152.4 543.04 160.59 553.2 168.93 562.94 177.18 572.21 185.12 581 192.55 589.26 199.3 597 205.22 610.61 213.84 622.65 219.78 645.44 233.71 637.77 250.37 631.37 259.66 627.01 268.95 624.96 278.24 625.35 287.53 628.16 296.81 633.2 306.1 640.18 315.39 648.64 324.68 658.06 333.96 667.85 343.25 677.41 352.54 686.12 361.83 693.45 371.12 698.94 380.4 702.24 389.69 703.15 398.98 701.62 408.27 697.73 417.55 691.73 426.84 684 436.13 675.02 445.42 665.35 454.7 655.59 463.99 646.36 473.28 638.23 482.57 631.72 491.85 627.22 501.14 625.02 510.43 625.25 519.71 627.91 529 622.26 536.17 617.08 544.68 612.3 554.31 607.87 564.76 603.7 575.69 599.73 586.71 595.88 597.44 592.08 607.49 584.26 623.56 575.96 635.25 557.75 638.46 542.6 635.83 527.63 633.17 511.23 633.08 502.23 635.34 492.81 639.23 482.99 644.84 472.82 652.12 462.35 660.93 451.62 671.03 440.67 682.1 429.57 693.76 418.37 705.57 407.11 717.11 395.43 717.48 382.89 713.56 376.05 708.68 368.87 702.08 361.35 693.91 353.48 684.37 345.27 673.78 336.74 662.52 327.91 650.98 318.8 639.6 309.43 628.78 299.84 618.89 290.07 610.24 280.15 603.06 270.12 597.49 260.01 593.56 249.87 591.2 239.74 590.25 229.64 590.46 219.61 591.51 209.68 593.04 199.88 594.64 190.23 595.92 180.74 596.52 171.44 596.1 162.34 594.41 153.43 591.27 144.71 586.59 136.2 580.38 127.86 572.75 127.26 563.02 127.21 553.29 127.71 543.55 128.72 533.82 130.19 524.08 132.02 514.35 134.09 504.62 136.29 494.88 138.47 485.15 140.49 475.41 142.23 465.68 143.58 455.95 144.45 446.21 144.8 436.48 144.59 426.74 143.85 417.01 142.62 407.28 140.97 397.54 139 387.81 136.85 378.07 134.65 368.34 132.53 358.6 130.62 348.87 129.05 339.14 127.92 329.4 127.29 319.67 127.2 309.93 127.66 300.2 128.64 290.46 130.08 280.73 137.57 264.61 152.67 254.22 162.21 249.2 171.84 243.19 181.54 236.3 191.28 228.67 201.04 220.48 210.78 211.96 220.46 203.35 230.05 194.88 239.53 186.78 248.86 179.26 258 172.47 266.93 166.53 275.62 161.5 284.06 157.37 299.94 151.87 314.94 148.12 328.48 145.34 341.2 141.91 352.83 135.66 363.99 127.09 380.26 107.61 385.71 100.53" stroke-dasharray="16 9" transform="rotate(136.21621621621622, 400, 400)" opacity="0.64"></path><path d="M392.83 113.38Q403.45 115.06 414.24 116.54 425.16 117.98 436.17 119.58 447.23 121.5 458.27 123.9 469.26 126.91 480.14 130.65 490.87 135.16 501.38 140.47 511.65 146.54 521.61 153.31 531.24 160.65 540.49 168.41 549.33 176.43 557.73 184.49 565.68 192.4 573.16 199.96 586.46 212.97 598.37 223.64 614.44 232.64 624.35 235.99 630.6 243.56 623.29 258.36 618.3 267.29 615.3 276.23 614.46 285.16 615.84 294.1 619.35 303.04 624.8 311.97 631.86 320.91 640.14 329.84 649.16 338.78 658.39 347.71 667.32 356.65 675.42 365.59 682.24 374.52 687.37 383.46 690.54 392.39 691.54 401.33 690.33 410.27 686.98 419.2 681.67 428.14 674.72 437.07 666.52 446.01 657.54 454.94 648.3 463.88 639.33 472.81 631.15 481.75 624.22 490.69 618.94 499.62 615.62 508.56 614.45 517.49 615.49 526.43 609.34 534.89 603.68 544.29 598.45 554.37 593.6 564.81 589.08 575.28 584.83 585.44 580.79 594.96 576.9 603.56 563.37 621.52 553.16 627.23 535.29 622.99 520.63 619.89 506.39 622.14 490.87 628.53 482.4 634.4 473.55 641.75 464.34 650.45 454.81 660.27 445 670.92 434.94 682.05 424.67 693.29 414.24 704.25 401.76 704.64 388.3 701.17 380.99 696.8 373.34 690.86 365.38 683.45 357.1 674.74 348.54 664.98 339.7 654.47 330.63 643.55 321.34 632.6 311.87 621.98 302.25 612.03 292.52 603.04 282.72 595.27 272.87 588.89 263.01 583.98 253.18 580.55 243.41 578.53 233.72 577.75 224.15 577.99 214.71 578.97 205.42 580.36 196.31 581.81 187.38 583 170.19 582.73 153.58 579.16 141.56 567.65 137.82 550.86 138.64 541.5 139.93 532.14 141.63 522.78 143.64 513.42 145.83 504.06 148.1 494.7 150.3 485.34 152.31 475.98 154.02 466.62 155.32 457.26 156.14 447.9 156.44 438.53 156.19 429.17 155.41 419.81 154.16 410.45 152.48 401.09 150.5 391.73 148.31 382.37 146.04 373.01 143.83 363.65 141.8 354.29 140.07 344.93 138.74 335.57 137.88 326.2 137.54 316.84 137.74 307.48 138.48 298.12 139.7 288.76 141.34 279.4 143.31 270.04 152.16 265.9 161.16 260.82 170.29 254.84 179.53 248.04 188.87 240.58 198.28 232.62 207.73 224.36 217.21 216.03 226.68 207.83 236.12 199.97 245.48 192.63 254.74 185.97 263.87 180.08 272.84 175.04 281.63 170.86 290.2 167.51 306.48 163.12 321.96 160.09 336 157.51 349.19 154.07 361.07 147.76 372.28 139.24 387.76 120.26 392.83 113.38" stroke-dasharray="27 3" transform="rotate(145.94594594594597, 400, 400)" opacity="0.61"></path><path d="M400.74 126.22Q421.53 129.11 442.37 131.83 462.92 135.65 482.85 141.64 501.83 150.45 519.59 162.15 535.89 176.23 550.58 191.61 563.61 206.95 574.98 220.86 584.84 232.19 593.4 240.34 607.8 247.22 621.65 250.7 609.57 267.91 604.22 285.11 606.71 302.31 616.52 319.52 631.62 336.72 648.87 353.93 664.69 371.13 675.81 388.33 679.91 405.54 676.14 422.74 665.28 439.94 649.59 457.15 632.33 474.35 617.07 491.55 606.98 508.76 604.16 525.96 591.43 544.87 580.45 564.72 570.91 583.21 562.45 598.26 547.04 611.28 531.12 611.64 521.93 608.61 511.56 607.38 499.82 610.08 486.59 618.02 471.88 631.47 455.73 649.52 438.3 670.33 419.79 691.41 406.43 692.38 391.78 688.74 375.93 679.54 358.99 664.95 341.14 646.27 322.62 625.61 303.68 605.45 284.57 588.11 265.54 575.32 246.81 567.82 228.58 565.28 210.99 566.32 194.12 568.89 178.01 570.64 162.63 569.44 147.92 563.8 148.67 545.88 151.36 527.96 155.41 510.04 160.01 492.12 164.18 474.2 167.07 456.28 168.07 438.36 166.98 420.43 164.02 402.51 159.81 384.59 155.22 366.67 151.21 348.75 148.6 330.83 147.94 312.9 149.36 294.98 152.57 277.06 169.49 265.84 186.98 251.77 204.92 236.02 223.18 220.07 241.56 205.4 259.85 193.19 277.83 184.07 295.28 178.04 311.99 174.45 327.78 172.17 342.54 169.85 356.19 166.18 368.73 160.18 380.23 151.35 395.79 133.02 400.74 126.22" stroke-dasharray="8 11" transform="rotate(155.67567567567568, 400, 400)" opacity="0.59"></path><path d="M408.57 139.07Q428.14 141.7 447.35 144.12 465.93 147.47 483.61 152.73 500.17 160.55 515.42 171.12 529.26 184.08 541.63 198.62 552.56 213.59 562.15 227.73 570.59 239.91 578.12 249.34 591.85 258.39 606.04 262.06 596.64 278.62 593.74 295.17 597.9 311.72 608.33 328.28 623.05 344.83 639.28 361.39 653.94 377.94 664.25 394.49 668.26 411.05 665.22 427.6 655.69 444.15 641.49 460.7 625.3 477.26 610.19 493.81 599.02 510.36 593.9 526.91 580.36 545.69 568.51 563.89 558.14 579.64 549.01 591.47 533.21 599.57 518.03 597.81 509.93 595.38 501.06 595.23 491.18 599.03 480.13 607.69 467.8 621.25 454.15 638.78 439.23 658.6 423.15 678.57 408.7 679.46 393.13 676.27 376.56 668.1 359.18 654.99 341.2 637.91 322.84 618.58 304.34 599.08 285.92 581.5 267.8 567.55 250.14 558.21 233.08 553.58 216.72 552.91 201.08 554.67 186.18 556.95 171.96 557.75 158.32 555.38 159.79 538.31 163 521.24 167.35 504.17 172 487.09 176.08 470.02 178.82 452.95 179.7 435.88 178.54 418.81 175.58 401.73 171.37 384.66 166.7 367.59 162.47 350.52 159.47 333.44 158.28 316.37 159.11 299.3 161.81 282.23 177.75 269.41 194.27 254.65 211.3 239.17 228.75 224.34 246.46 211.35 264.25 201.01 281.93 193.64 299.29 188.96 316.13 186.22 332.27 184.32 347.53 182.04 361.82 178.26 375.04 172.17 387.2 163.43 403.46 145.63 408.57 139.07" stroke-dasharray="6 7" transform="rotate(165.40540540540542, 400, 400)" opacity="0.56"></path><path d="M415.45 151.91Q433.29 154.29 450.49 156.44 466.83 159.35 482.14 163.93 496.28 170.81 509.17 180.24 520.77 192.03 531.12 205.58 540.32 219.96 548.53 234.06 555.94 246.82 562.83 257.35 576.43 268.99 591.27 274.03 584.51 289.94 583.84 305.84 589.4 321.74 600.22 337.65 614.45 353.55 629.62 369.45 643.14 385.35 652.68 401.26 656.6 417.16 654.21 433.06 645.94 448.96 633.21 464.87 618.2 480.77 603.5 496.67 591.64 512.57 584.66 528.47 570.45 546.01 557.82 561.8 546.64 574.46 536.75 583.12 520.1 587.14 504.93 584.12 497.45 582.49 489.6 583.45 481.12 588.26 471.81 597.53 461.51 611.08 450.12 628.02 437.59 646.85 423.94 665.72 408.57 666.55 392.32 663.76 375.36 656.55 357.89 644.84 340.12 629.36 322.25 611.45 304.49 592.83 287.03 575.34 270.02 560.59 253.59 549.68 237.82 543.06 222.75 540.43 208.39 540.82 194.7 542.78 181.62 544.58 169.04 544.58 171.2 528.39 174.88 512.21 179.43 496.03 184.08 479.84 188.02 463.66 190.58 447.47 191.32 431.29 190.11 415.11 187.15 398.92 182.97 382.74 178.27 366.55 173.86 350.37 170.51 334.18 168.79 318 169 301.81 171.09 285.63 185.99 271.83 201.48 257.02 217.53 242.4 234.05 229.08 250.93 217.96 268.05 209.51 285.23 203.75 302.3 200.25 319.07 198.18 335.36 196.53 350.99 194.21 365.81 190.28 379.73 184.12 392.65 175.48 410 158.23 415.45 151.91" stroke-dasharray="10 1" transform="rotate(175.13513513513516, 400, 400)" opacity="0.54"></path><path d="M420.62 164.75Q436.4 166.91 451.37 168.79 465.39 171.31 478.36 175.25 490.24 181.22 501 189.53 510.69 200.12 519.41 212.57 527.28 226.15 534.49 239.94 541.26 252.96 547.82 264.35 554.45 273.44 561.42 279.94 569 283.97 577.44 285.99 573.18 301.23 574.49 316.47 581.16 331.7 592.16 346.94 605.78 362.17 619.9 377.41 632.32 392.65 641.12 407.88 644.92 423.12 643.13 438.35 636.04 453.59 624.74 468.82 610.99 484.06 596.94 499.29 584.75 514.53 576.34 529.76 561.65 545.16 548.38 558.05 536.47 567.54 525.83 573.28 508.02 574.16 492.29 570.69 477.61 573.89 462.14 587.51 453.43 600.96 443.91 617.26 433.48 635.1 422.08 652.88 406.12 653.64 389.56 651.22 372.61 644.89 355.43 634.52 338.24 620.6 321.19 604.17 304.46 586.63 288.17 569.54 272.45 554.36 257.36 542.22 242.94 533.8 229.2 529.16 216.12 527.8 203.64 528.72 187.3 523.61 186.97 501.37 191.65 486.1 196.22 470.83 199.98 455.56 202.34 440.28 202.94 425.01 201.67 409.74 198.75 394.47 194.61 379.2 189.92 363.93 185.39 348.66 181.73 333.38 179.51 318.11 179.07 302.84 180.49 287.57 194.32 273.49 208.73 259.3 223.7 246.02 239.18 234.51 255.11 225.34 271.39 218.69 287.87 214.38 304.43 211.85 320.89 210.29 337.09 208.76 352.86 206.33 368.05 202.24 382.51 196.01 396.14 187.5 414.74 170.83 420.62 164.75" stroke-dasharray="29 2" transform="rotate(184.86486486486484, 400, 400)" opacity="0.51"></path><path d="M423.5 177.6Q437.08 179.53 449.79 181.18 461.57 183.32 472.39 186.67 482.27 191.8 491.25 199.03 499.42 208.4 506.9 219.66 513.84 232.26 520.44 245.47 526.88 258.44 533.39 270.35 540.21 280.5 547.54 288.44 555.6 293.98 564.59 297.32 562.64 311.86 565.63 326.4 573.14 340.94 584.12 355.48 597.05 370.02 610.1 384.55 621.47 399.09 629.55 413.63 633.23 428.17 631.98 442.71 625.98 457.25 616.07 471.79 603.63 486.33 590.41 500.87 578.25 515.41 568.84 529.95 553.89 542.6 540.15 552.37 527.64 558.85 516.32 562.08 506.09 562.56 496.83 561.18 480.79 558.53 466.07 561.07 458.98 567.59 451.72 577.65 444.11 590.88 436.01 606.49 427.26 623.32 417.79 640.04 401.66 640.72 385.24 638.64 368.72 633.13 352.24 624.01 335.97 611.61 320.04 596.71 304.56 580.4 289.63 563.99 275.31 548.74 261.63 535.77 248.6 525.84 236.2 519.29 224.37 515.99 213.06 515.36 198.55 510.1 199.28 489.4 204 475.05 208.43 460.7 211.96 446.35 214.1 432 214.54 417.65 213.23 403.3 210.35 388.95 206.3 374.6 201.65 360.25 197.04 345.9 193.12 331.55 190.45 317.2 189.38 302.85 190.08 288.5 202.82 274.88 216.11 261.89 229.94 250.34 244.31 240.8 259.17 233.56 274.44 228.57 290.04 225.5 305.86 223.73 321.76 222.5 337.61 220.97 353.25 218.38 368.53 214.13 383.32 207.85 397.48 199.48 417.2 183.42 423.5 177.6" stroke-dasharray="24 18" transform="rotate(194.5945945945946, 400, 400)" opacity="0.49"></path><path d="M423.79 190.45Q435.19 192.18 445.77 193.61 455.54 195.41 464.52 198.22 472.77 202.55 480.36 208.75 487.41 216.92 494.04 226.93 500.43 238.41 506.73 250.79 513.12 263.39 519.8 275.48 526.93 286.36 534.7 295.5 543.25 302.56 552.74 307.45 552.84 321.25 557.21 335.06 565.3 348.86 576.09 362.67 588.24 376.47 600.24 390.28 610.59 404.08 617.99 417.89 621.52 431.69 620.74 445.5 615.76 459.3 607.18 473.11 596.08 486.91 583.85 500.72 572.01 514.52 562.04 528.33 547.03 537.93 533.04 544.67 520.11 548.5 508.24 549.75 497.38 549.06 487.48 547.34 470.42 546.01 455.11 550.47 448.1 557.65 441.19 567.9 434.22 580.83 427.04 595.7 419.51 611.53 411.51 627.18 395.71 627.8 379.9 626.02 364.22 621.26 348.8 613.31 333.76 602.38 319.17 589 305.13 574.05 291.67 558.55 278.82 543.59 266.58 530.18 254.93 519.12 243.83 510.91 233.21 505.68 223.01 503.2 210.2 496.73 211.79 477.11 216.45 463.68 220.68 450.24 223.95 436.8 225.85 423.37 226.15 409.93 224.8 396.5 221.98 383.06 218.03 369.63 213.46 356.19 208.83 342.76 204.71 329.32 201.63 315.89 199.97 302.45 199.93 289.02 211.58 276.51 223.73 265.19 236.39 255.61 249.57 248.08 263.26 242.65 277.41 239.12 291.96 237.04 306.84 235.82 321.94 234.76 337.16 233.14 352.36 230.36 367.44 225.94 382.24 219.64 396.64 211.44 417.16 196.01 423.79 190.45" stroke-dasharray="12 8" transform="rotate(204.32432432432432, 400, 400)" opacity="0.46"></path><path d="M421.44 203.3Q439.28 206.19 455.21 209.88 462.23 213.48 468.84 218.7 475.16 225.7 481.32 234.44 487.46 244.69 493.73 256.05 500.28 267.98 507.24 279.86 514.77 291.09 522.98 301.11 531.98 309.47 541.88 315.93 543.74 328.96 549.18 341.99 557.58 355.02 568.03 368.05 579.35 381.08 590.31 394.11 599.68 407.14 606.42 420.17 609.8 433.2 609.44 446.23 605.38 459.26 598.06 472.29 588.3 485.32 577.18 498.35 565.92 511.38 555.79 524.42 540.95 531 526.93 535.03 513.78 536.73 501.54 536.58 490.2 535.28 479.74 533.65 470.1 532.59 461.23 532.92 453.02 535.33 445.36 540.28 438.14 547.97 431.22 558.29 424.48 570.82 417.77 584.91 410.97 599.73 403.97 614.34 388.97 614.89 374.19 613.38 359.72 609.3 345.66 602.44 332.06 592.89 318.99 581.04 306.48 567.52 294.54 553.14 283.17 538.78 272.35 525.33 262.03 513.56 252.16 504.02 242.68 497.04 233.51 492.66 222.23 484.24 224.47 465.33 228.99 452.79 232.96 440.24 235.94 427.7 237.59 415.16 237.74 402.62 236.36 390.08 233.62 377.54 229.81 365 225.35 352.46 220.74 339.92 216.5 327.38 213.08 314.84 210.87 302.3 210.11 289.76 220.68 278.9 231.69 269.55 243.16 262.03 255.13 256.41 267.58 252.59 280.51 250.26 293.87 248.93 307.64 248.05 321.72 247.01 336.05 245.23 350.54 242.23 365.07 237.66 379.54 231.36 393.83 223.36 414.64 208.59 421.44 203.3" stroke-dasharray="28 28" transform="rotate(214.05405405405406, 400, 400)" opacity="0.44"></path><path d="M416.72 216.14Q431.52 218.63 445.03 221.66 457.19 229.7 469.16 242.27 475.3 251.23 481.73 261.4 488.56 272.4 495.88 283.73 503.81 294.89 512.42 305.36 521.79 314.68 531.96 322.5 535.27 334.72 541.47 346.93 549.96 359.15 559.92 371.37 570.37 383.58 580.3 395.8 588.74 408.02 594.86 420.23 598.08 432.45 598.07 444.67 594.84 456.88 588.71 469.1 580.26 481.32 570.33 493.54 559.88 505.75 549.92 517.97 535.48 521.85 521.65 523.69 508.51 523.87 496.11 522.91 484.47 521.49 473.59 520.31 463.47 520.08 454.07 521.42 445.34 524.79 437.21 530.47 429.6 538.52 422.43 548.77 415.58 560.82 408.96 574.1 402.46 587.91 395.98 601.5 382.22 601.98 368.81 600.71 355.82 597.24 343.31 591.38 331.3 583.14 319.82 572.77 308.87 560.73 298.45 547.61 288.51 534.14 279.03 521.02 269.96 508.96 261.24 498.53 252.8 490.14 244.57 483.99 234.62 473.28 237.3 454.81 241.6 443.13 245.26 431.46 247.92 419.78 249.32 408.11 249.32 396.43 247.93 384.75 245.27 373.08 241.62 361.4 237.31 349.73 232.79 338.05 228.47 326.38 224.79 314.7 222.1 303.02 220.67 291.35 230.19 282.48 240.08 275.23 250.38 269.7 261.12 265.81 272.31 263.33 283.95 261.91 296.04 261.09 308.55 260.36 321.45 259.22 334.67 257.22 348.16 253.98 361.85 249.28 375.64 243.01 389.44 235.24 409.94 221.16 416.72 216.14" stroke-dasharray="32 7" transform="rotate(223.78378378378378, 400, 400)" opacity="0.41"></path><path d="M410.14 228.98Q422.73 231.11 434.62 233.55 446.14 240.06 457.97 250.47 464.29 258.12 470.99 267 478.14 276.85 485.83 287.33 494.1 298.01 503.02 308.48 512.63 318.3 522.94 327.1 527.35 338.47 534.02 349.84 542.39 361.21 551.74 372.58 561.29 383.95 570.22 395.32 577.77 406.69 583.3 418.07 586.34 429.44 586.63 440.81 584.15 452.18 579.11 463.55 571.94 474.93 563.24 486.3 553.76 497.67 544.3 509.04 530.44 510.76 517.03 511.04 504.12 510.31 491.79 509.1 480.06 507.98 468.97 507.52 458.52 508.23 448.71 510.56 439.52 514.78 430.92 521.03 422.86 529.29 415.29 539.35 408.13 550.84 401.33 563.27 394.79 576.08 388.44 588.65 376.21 589.07 364.41 588.01 353.06 585.1 342.2 580.15 331.83 573.13 321.94 564.18 312.51 553.62 303.52 541.88 294.92 529.5 286.68 517.06 278.75 505.14 271.06 494.27 263.55 484.88 256.16 477.28 247.36 464.32 250.25 446.18 254.26 435.33 257.56 424.49 259.89 413.64 261.03 402.8 260.89 391.95 259.49 381.1 256.94 370.26 253.46 359.41 249.35 348.57 244.95 337.72 240.64 326.88 236.78 316.03 233.7 305.19 231.67 294.34 240.18 287.6 249 282.39 258.15 278.64 267.68 276.19 277.6 274.75 287.95 273.95 298.71 273.4 309.89 272.66 321.46 271.33 333.41 269.06 345.7 265.6 358.27 260.8 371.07 254.6 384.03 247.09 403.61 233.72 410.14 228.98" stroke-dasharray="4 12" transform="rotate(233.51351351351352, 400, 400)" opacity="0.38"></path><path d="M402.45 241.83Q421.91 245.5 435.92 250.13 448.26 259.72 461.67 272.98 469.13 281.55 477.11 290.91 485.63 300.76 494.73 310.78 504.42 320.6 514.71 329.88 519.88 340.38 526.76 350.88 534.82 361.39 543.48 371.89 552.1 382.4 560.06 392.9 566.77 403.4 571.73 413.91 574.59 424.41 575.13 434.92 573.32 445.42 569.28 455.93 563.31 466.43 555.86 476.94 547.46 487.44 538.74 497.95 525.65 498.16 512.85 497.54 500.41 496.52 488.38 495.53 476.8 495.03 465.71 495.44 455.14 497.13 445.11 500.35 435.6 505.28 426.62 511.95 418.15 520.26 410.16 530 402.62 540.86 395.48 552.43 388.68 564.24 382.18 575.81 371.65 576.17 361.56 575.29 351.91 572.88 342.7 568.75 333.9 562.84 325.52 555.24 317.5 546.14 309.82 535.83 302.43 524.72 295.3 513.23 288.37 501.84 281.58 490.99 274.89 481.09 268.25 472.48 260.39 457.64 263.28 439.84 266.93 429.79 269.85 419.73 271.83 409.68 272.72 399.63 272.45 389.58 271.06 379.53 268.62 369.48 265.34 359.43 261.44 349.38 257.22 339.33 252.98 329.28 249.03 319.23 248.18 301.81 258.49 291.05 275.09 287.74 292.68 286.25 302.11 285.75 311.93 284.86 322.12 283.27 332.69 280.73 343.62 277.07 354.88 272.2 366.44 266.11 378.25 258.9 396.36 246.28 402.45 241.83" stroke-dasharray="36 31" transform="rotate(243.24324324324323, 400, 400)" opacity="0.36"></path><path d="M394.48 254.67Q413.12 257.61 427.14 261.14 439.94 268.72 453.86 279.49 461.55 286.69 469.71 294.76 478.34 303.5 487.47 312.67 497.08 322 507.17 331.2 512.79 340.83 519.61 350.46 527.21 360.09 535.11 369.72 542.81 379.34 549.83 388.97 555.74 398.6 560.17 408.23 562.83 417.85 563.57 427.48 562.33 437.11 559.2 446.73 554.36 456.36 548.13 465.99 540.88 475.61 533.09 485.24 520.92 484.64 508.92 483.76 497.14 482.93 485.63 482.52 474.44 482.85 463.6 484.2 453.14 486.81 443.1 490.81 433.48 496.28 424.29 503.17 415.55 511.39 407.23 520.72 399.33 530.88 391.82 541.56 384.69 552.38 377.89 562.97 360.89 561.92 345 557.17 337.66 552.29 330.63 545.94 323.87 538.24 317.34 529.38 311.01 519.63 304.83 509.31 298.75 498.77 292.75 488.37 286.76 478.46 280.76 469.35 273.65 453.26 276.36 435.93 279.6 426.65 282.11 417.36 283.74 408.08 284.39 398.79 284 389.5 282.62 380.22 280.32 370.93 277.25 361.65 273.6 352.36 269.6 343.08 265.5 333.79 261.55 324.5 267.77 304.54 282.93 299.34 298.46 298.52 314.91 296.89 323.72 295 332.87 292.2 342.37 288.37 352.2 283.48 362.35 277.55 372.8 270.67 389 258.82 394.48 254.67" stroke-dasharray="23 27" transform="rotate(252.972972972973, 400, 400)" opacity="0.33"></path><path d="M387.12 267.52Q397.35 268.78 408.23 269.89 420.07 272.43 433.12 277.75 447.57 286.64 463.55 299.15 481.11 314.59 500.19 331.63 512.52 349.13 526.61 366.63 539.53 384.13 548.61 401.63 551.95 419.13 548.87 436.63 540.01 454.13 527.2 471.63 505.03 470.24 483.3 470.39 462.34 473.89 442.43 481.91 423.77 494.69 406.48 511.47 390.58 530.66 376.05 550.11 362.05 549.78 349.18 545.43 337.25 536.26 326 522.44 315.16 505.1 304.45 486.08 293.61 467.52 282.4 451.42 289.45 434.33 294.33 417.25 296.03 400.16 294.18 383.08 289.19 365.99 282.07 348.9 274.32 331.82 267.53 314.73 279.37 312.37 291.75 311.69 304.92 311.01 319.04 308.69 334.28 303.45 350.7 294.66 368.34 282.41 387.12 267.52 387.12 267.52 387.12 267.52" stroke-dasharray="17 29" transform="rotate(262.7027027027027, 400, 400)" opacity="0.31"></path><path d="M381.19 280.37Q391.55 281.41 402.73 282.2 414.9 283.97 428.2 287.82 442.73 294.5 458.5 304.31 475.5 316.98 493.64 331.76 505.4 347.54 517.96 363.31 529.15 379.08 537.04 394.85 540.28 410.62 538.31 426.4 531.47 442.17 520.93 457.94 500.95 457.54 481.09 459.39 461.62 464.57 442.77 473.64 424.75 486.46 407.7 502.27 391.73 519.74 376.85 537.27 365.63 537 355.15 533.55 345.21 526.22 335.61 514.97 326.13 500.42 316.54 483.78 306.68 466.54 296.36 450.31 302.5 434.68 306.49 419.05 307.64 403.42 305.75 387.8 301.15 372.17 294.63 356.54 289.04 332.69 301.41 324.19 312.58 323.14 324.43 320.15 337.13 314.44 350.78 305.69 365.46 294.1 381.19 280.37 381.19 280.37 381.19 280.37" stroke-dasharray="30 7" transform="rotate(272.43243243243245, 400, 400)" opacity="0.28"></path><path d="M377.34 293.21Q387.93 294.06 399.34 294.6 411.66 295.76 424.94 298.38 439.19 303.15 454.39 310.43 470.48 320.26 487.36 332.32 498.2 346.4 509.16 360.48 518.69 374.56 525.48 388.64 528.56 402.72 527.51 416.8 522.48 430.88 514.16 444.96 496.51 446.09 478.75 449.67 461.1 456.24 443.74 465.94 426.85 478.45 410.56 493.07 394.99 508.79 380.22 524.42 371.24 524.21 362.64 521.53 354.27 515.81 345.95 506.9 337.54 495.09 328.88 481.09 319.85 465.87 310.34 450.56 315.46 436.38 318.57 422.21 319.21 408.03 317.31 393.85 313.13 379.68 307.25 365.5 301.63 344.18 311.88 336.58 321.29 334.89 331.14 331.24 341.56 325.17 352.68 316.59 370.96 299.48 377.34 293.21" stroke-dasharray="1 12" transform="rotate(282.16216216216213, 400, 400)" opacity="0.26"></path><path d="M376 306.05Q386.7 306.73 398.11 307.08 410.26 307.77 423.14 309.42 436.74 312.59 451 317.65 465.85 324.78 481.21 333.94 490.86 346.37 500.19 358.81 508.16 371.24 513.91 383.68 516.79 396.11 516.48 408.55 513.02 420.99 506.79 433.42 491.51 436.25 476.02 441.34 460.44 448.87 444.91 458.74 429.57 470.61 414.54 483.89 399.91 497.82 385.78 511.58 371.27 508.23 356.73 498.22 349.16 488.99 341.27 477.71 332.98 464.96 324.23 451.44 328.29 438.73 330.55 426.01 330.75 413.3 328.88 400.59 325.13 387.88 319.93 375.17 314.58 356.02 323.08 348.56 330.98 346.13 339.11 341.88 347.59 335.61 356.5 327.36 370.97 311.71 376 306.05" stroke-dasharray="5 3" transform="rotate(291.89189189189193, 400, 400)" opacity="0.23"></path><path d="M377.31 318.9Q387.83 319.43 398.88 319.65 410.47 319.99 422.56 320.92 435.12 322.83 448.1 326.05 461.43 330.8 475.05 337.17 483.31 348 491.03 358.84 497.56 369.67 502.35 380.51 504.98 391.35 505.23 402.19 503.09 413.02 498.73 423.86 485.83 428.2 472.67 434.37 459.32 442.36 445.87 451.98 432.43 462.9 419.06 474.69 405.87 486.82 392.91 498.74 380.5 496.26 367.62 488.91 360.74 482.01 353.53 473.37 345.94 463.28 337.95 452.13 340.95 440.92 342.43 429.7 342.25 418.48 340.44 407.26 337.15 396.05 332.65 384.83 327.83 367.63 334.93 359.87 348.32 351.25 362.17 338 373.43 323.92 377.31 318.9" stroke-dasharray="28 8" transform="rotate(301.6216216216216, 400, 400)" opacity="0.20"></path><path d="M381.13 331.74Q391.05 332.15 401.33 332.28 411.93 332.4 422.84 332.82 434.02 333.81 445.43 335.62 457.02 338.43 468.73 342.39 475.51 351.67 481.69 360.94 486.89 370.22 490.78 379.5 493.13 388.77 493.78 398.05 492.69 407.32 489.93 416.6 479.35 421.99 468.5 428.7 457.44 436.62 446.22 445.56 434.89 455.27 423.52 465.46 412.14 475.78 400.82 485.89 389.87 484.13 378.28 478.97 372.02 474.09 365.46 467.86 358.59 460.4 351.38 451.88 353.39 442.2 354.18 432.51 353.71 422.82 352 413.14 349.17 403.45 345.39 393.76 347.05 372.52 358.32 361.68 363.86 355.63 369.48 348.5 378.17 336.11 381.13 331.74" stroke-dasharray="28 35" transform="rotate(311.35135135135135, 400, 400)" opacity="0.18"></path><path d="M387.05 344.59Q404.99 344.96 423.62 345.07 442.74 346.27 462.13 349.76 472.15 365.24 479.22 380.73 482.12 396.22 480.36 411.7 463.37 424.16 445.61 439.39 427.29 456.19 408.65 473.04 398.92 472.23 388.36 468.45 376.88 461.06 364.44 450.03 365.79 433.8 363.57 417.56 358.15 401.33 350.46 385.09 359.96 379.6 369.09 370.79 382.55 351.73 387.05 344.59" stroke-dasharray="22 14" transform="rotate(321.0810810810811, 400, 400)" opacity="0.15"></path><path d="M394.39 357.44Q409.31 357.69 424.48 357.6 439.8 357.87 455.12 359.2 462.41 371.64 467.66 384.09 470.28 396.53 470 408.97 457.17 420.51 443.75 433.37 429.83 446.86 415.52 460.2 406.86 459.66 397.56 457.37 387.62 452.91 377.03 446.11 377.26 433.08 375.13 420.05 370.89 407.02 364.99 393.99 372.79 387.75 380.23 379.37 390.89 363.28 394.39 357.44" stroke-dasharray="20 13" transform="rotate(330.81081081081084, 400, 400)" opacity="0.13"></path><path d="M402.36 370.28Q413.68 370.46 425.04 370.33 436.37 370.21 447.62 370.4 452.46 379.79 456.09 389.19 458.28 398.58 458.88 407.98 449.85 417.46 440.45 427.4 430.71 437.48 420.66 447.35 405.43 445.24 389.08 439.88 388.56 430.1 386.7 420.33 384.58 402.61 391.38 387.42 399.66 374.75 402.36 370.28" stroke-dasharray="26 32" transform="rotate(340.5405405405405, 400, 400)" opacity="0.10"></path><path d="M410.06 383.13Q424.9 383.17 439.53 382.85 444.53 395.48 447.03 408.12 435.61 421.39 423.52 434.51 412.34 433.8 400.51 431.38 398.26 418.37 393.76 405.37 406.12 389.05 410.06 383.13" stroke-dasharray="12 16" transform="rotate(350.2702702702703, 400, 400)" opacity="0.08"></path></g></svg>