<svg xmlns="http://www.w3.org/2000/svg" version="1.1" xmlns:xlink="http://www.w3.org/1999/xlink" xmlns:svgjs="http://svgjs.dev/svgjs" viewBox="0 0 800 800" opacity="0.38" width="800" height="800"><g stroke-width="1.5" stroke="#aac5e5" fill="none"><rect width="8.157894736842106" height="8.157894736842106" x="-4.078947368421053" y="-4.078947368421053" fill="#aac5e5" stroke="none"></rect><rect width="8.157894736842106" height="8.157894736842106" x="62.58771929824562" y="-4.078947368421053" fill="#445f7b" stroke="none"></rect><rect width="8.157894736842106" height="8.157894736842106" x="129.2543859649123" y="-4.078947368421053" fill="#aac5e5" stroke="none"></rect><rect width="8.157894736842106" height="8.157894736842106" x="195.92105263157896" y="-4.078947368421053" fill="#445f7b" stroke="none"></rect><rect width="8.157894736842106" height="8.157894736842106" x="262.58771929824564" y="-4.078947368421053" fill="#aac5e5" stroke="none"></rect><rect width="8.157894736842106" height="8.157894736842106" x="329.25438596491233" y="-4.078947368421053" fill="#445f7b" stroke="none"></rect><rect width="8.157894736842106" height="8.157894736842106" x="395.921052631579" y="-4.078947368421053" fill="#aac5e5" stroke="none"></rect><rect width="8.157894736842106" height="8.157894736842106" x="462.5877192982457" y="-4.078947368421053" fill="#445f7b" stroke="none"></rect><rect width="8.157894736842106" height="8.157894736842106" x="529.2543859649123" y="-4.078947368421053" fill="#aac5e5" stroke="none"></rect><rect width="8.157894736842106" height="8.157894736842106" x="595.921052631579" y="-4.078947368421053" fill="#445f7b" stroke="none"></rect><rect width="8.157894736842106" height="8.157894736842106" x="662.5877192982456" y="-4.078947368421053" fill="#aac5e5" stroke="none"></rect><rect width="8.157894736842106" height="8.157894736842106" x="729.2543859649122" y="-4.078947368421053" fill="#445f7b" stroke="none"></rect><rect width="8.157894736842106" height="8.157894736842106" x="795.9210526315788" y="-4.078947368421053" fill="#aac5e5" stroke="none"></rect><rect width="8.157894736842106" height="8.157894736842106" x="-4.078947368421053" y="75.92105263157895" fill="#445f7b" stroke="none"></rect><rect width="8.157894736842106" height="8.157894736842106" x="62.58771929824562" y="75.92105263157895" fill="#aac5e5" stroke="none"></rect><rect width="8.157894736842106" height="8.157894736842106" x="129.2543859649123" y="75.92105263157895" fill="#445f7b" stroke="none"></rect><rect width="8.157894736842106" height="8.157894736842106" x="195.92105263157896" y="75.92105263157895" fill="#aac5e5" stroke="none"></rect><rect width="8.157894736842106" height="8.157894736842106" x="262.58771929824564" y="75.92105263157895" fill="#445f7b" stroke="none"></rect><rect width="8.157894736842106" height="8.157894736842106" x="329.25438596491233" y="75.92105263157895" fill="#aac5e5" stroke="none"></rect><rect width="8.157894736842106" height="8.157894736842106" x="395.921052631579" y="75.92105263157895" fill="#445f7b" stroke="none"></rect><rect width="8.157894736842106" height="8.157894736842106" x="462.5877192982457" y="75.92105263157895" fill="#aac5e5" stroke="none"></rect><rect width="8.157894736842106" height="8.157894736842106" x="529.2543859649123" y="75.92105263157895" fill="#445f7b" stroke="none"></rect><rect width="8.157894736842106" height="8.157894736842106" x="595.921052631579" y="75.92105263157895" fill="#aac5e5" stroke="none"></rect><rect width="8.157894736842106" height="8.157894736842106" x="662.5877192982456" y="75.92105263157895" fill="#445f7b" stroke="none"></rect><rect width="8.157894736842106" height="8.157894736842106" x="729.2543859649122" y="75.92105263157895" fill="#aac5e5" stroke="none"></rect><rect width="8.157894736842106" height="8.157894736842106" x="795.9210526315788" y="75.92105263157895" fill="#445f7b" stroke="none"></rect><rect width="8.157894736842106" height="8.157894736842106" x="-4.078947368421053" y="155.92105263157896" fill="#aac5e5" stroke="none"></rect><rect width="8.157894736842106" height="8.157894736842106" x="62.58771929824562" y="155.92105263157896" fill="#445f7b" stroke="none"></rect><rect width="8.157894736842106" height="8.157894736842106" x="129.2543859649123" y="155.92105263157896" fill="#aac5e5" stroke="none"></rect><rect width="8.157894736842106" height="8.157894736842106" x="195.92105263157896" y="155.92105263157896" fill="#445f7b" stroke="none"></rect><rect width="8.157894736842106" height="8.157894736842106" x="262.58771929824564" y="155.92105263157896" fill="#aac5e5" stroke="none"></rect><rect width="8.157894736842106" height="8.157894736842106" x="329.25438596491233" y="155.92105263157896" fill="#445f7b" stroke="none"></rect><rect width="8.157894736842106" height="8.157894736842106" x="395.921052631579" y="155.92105263157896" fill="#aac5e5" stroke="none"></rect><rect width="8.157894736842106" height="8.157894736842106" x="462.5877192982457" y="155.92105263157896" fill="#445f7b" stroke="none"></rect><rect width="8.157894736842106" height="8.157894736842106" x="529.2543859649123" y="155.92105263157896" fill="#aac5e5" stroke="none"></rect><rect width="8.157894736842106" height="8.157894736842106" x="595.921052631579" y="155.92105263157896" fill="#445f7b" stroke="none"></rect><rect width="8.157894736842106" height="8.157894736842106" x="662.5877192982456" y="155.92105263157896" fill="#aac5e5" stroke="none"></rect><rect width="8.157894736842106" height="8.157894736842106" x="729.2543859649122" y="155.92105263157896" fill="#445f7b" stroke="none"></rect><rect width="8.157894736842106" height="8.157894736842106" x="795.9210526315788" y="155.92105263157896" fill="#aac5e5" stroke="none"></rect><rect width="8.157894736842106" height="8.157894736842106" x="-4.078947368421053" y="235.92105263157896" fill="#445f7b" stroke="none"></rect><rect width="8.157894736842106" height="8.157894736842106" x="62.58771929824562" y="235.92105263157896" fill="#aac5e5" stroke="none"></rect><rect width="8.157894736842106" height="8.157894736842106" x="129.2543859649123" y="235.92105263157896" fill="#445f7b" stroke="none"></rect><rect width="8.157894736842106" height="8.157894736842106" x="195.92105263157896" y="235.92105263157896" fill="#aac5e5" stroke="none"></rect><rect width="8.157894736842106" height="8.157894736842106" x="262.58771929824564" y="235.92105263157896" fill="#445f7b" stroke="none"></rect><rect width="8.157894736842106" height="8.157894736842106" x="329.25438596491233" y="235.92105263157896" fill="#aac5e5" stroke="none"></rect><rect width="8.157894736842106" height="8.157894736842106" x="395.921052631579" y="235.92105263157896" fill="#445f7b" stroke="none"></rect><rect width="8.157894736842106" height="8.157894736842106" x="462.5877192982457" y="235.92105263157896" fill="#aac5e5" stroke="none"></rect><rect width="8.157894736842106" height="8.157894736842106" x="529.2543859649123" y="235.92105263157896" fill="#445f7b" stroke="none"></rect><rect width="8.157894736842106" height="8.157894736842106" x="595.921052631579" y="235.92105263157896" fill="#aac5e5" stroke="none"></rect><rect width="8.157894736842106" height="8.157894736842106" x="662.5877192982456" y="235.92105263157896" fill="#445f7b" stroke="none"></rect><rect width="8.157894736842106" height="8.157894736842106" x="729.2543859649122" y="235.92105263157896" fill="#aac5e5" stroke="none"></rect><rect width="8.157894736842106" height="8.157894736842106" x="795.9210526315788" y="235.92105263157896" fill="#445f7b" stroke="none"></rect><rect width="8.157894736842106" height="8.157894736842106" x="-4.078947368421053" y="315.92105263157896" fill="#aac5e5" stroke="none"></rect><rect width="8.157894736842106" height="8.157894736842106" x="62.58771929824562" y="315.92105263157896" fill="#445f7b" stroke="none"></rect><rect width="8.157894736842106" height="8.157894736842106" x="129.2543859649123" y="315.92105263157896" fill="#aac5e5" stroke="none"></rect><rect width="8.157894736842106" height="8.157894736842106" x="195.92105263157896" y="315.92105263157896" fill="#445f7b" stroke="none"></rect><rect width="8.157894736842106" height="8.157894736842106" x="262.58771929824564" y="315.92105263157896" fill="#aac5e5" stroke="none"></rect><rect width="8.157894736842106" height="8.157894736842106" x="329.25438596491233" y="315.92105263157896" fill="#445f7b" stroke="none"></rect><rect width="8.157894736842106" height="8.157894736842106" x="395.921052631579" y="315.92105263157896" fill="#aac5e5" stroke="none"></rect><rect width="8.157894736842106" height="8.157894736842106" x="462.5877192982457" y="315.92105263157896" fill="#445f7b" stroke="none"></rect><rect width="8.157894736842106" height="8.157894736842106" x="529.2543859649123" y="315.92105263157896" fill="#aac5e5" stroke="none"></rect><rect width="8.157894736842106" height="8.157894736842106" x="595.921052631579" y="315.92105263157896" fill="#445f7b" stroke="none"></rect><rect width="8.157894736842106" height="8.157894736842106" x="662.5877192982456" y="315.92105263157896" fill="#aac5e5" stroke="none"></rect><rect width="8.157894736842106" height="8.157894736842106" x="729.2543859649122" y="315.92105263157896" fill="#445f7b" stroke="none"></rect><rect width="8.157894736842106" height="8.157894736842106" x="795.9210526315788" y="315.92105263157896" fill="#aac5e5" stroke="none"></rect><rect width="8.157894736842106" height="8.157894736842106" x="-4.078947368421053" y="395.92105263157896" fill="#445f7b" stroke="none"></rect><rect width="8.157894736842106" height="8.157894736842106" x="62.58771929824562" y="395.92105263157896" fill="#aac5e5" stroke="none"></rect><rect width="8.157894736842106" height="8.157894736842106" x="129.2543859649123" y="395.92105263157896" fill="#445f7b" stroke="none"></rect><rect width="8.157894736842106" height="8.157894736842106" x="195.92105263157896" y="395.92105263157896" fill="#aac5e5" stroke="none"></rect><rect width="8.157894736842106" height="8.157894736842106" x="262.58771929824564" y="395.92105263157896" fill="#445f7b" stroke="none"></rect><rect width="8.157894736842106" height="8.157894736842106" x="329.25438596491233" y="395.92105263157896" fill="#aac5e5" stroke="none"></rect><rect width="8.157894736842106" height="8.157894736842106" x="395.921052631579" y="395.92105263157896" fill="#445f7b" stroke="none"></rect><rect width="8.157894736842106" height="8.157894736842106" x="462.5877192982457" y="395.92105263157896" fill="#aac5e5" stroke="none"></rect><rect width="8.157894736842106" height="8.157894736842106" x="529.2543859649123" y="395.92105263157896" fill="#445f7b" stroke="none"></rect><rect width="8.157894736842106" height="8.157894736842106" x="595.921052631579" y="395.92105263157896" fill="#aac5e5" stroke="none"></rect><rect width="8.157894736842106" height="8.157894736842106" x="662.5877192982456" y="395.92105263157896" fill="#445f7b" stroke="none"></rect><rect width="8.157894736842106" height="8.157894736842106" x="729.2543859649122" y="395.92105263157896" fill="#aac5e5" stroke="none"></rect><rect width="8.157894736842106" height="8.157894736842106" x="795.9210526315788" y="395.92105263157896" fill="#445f7b" stroke="none"></rect><rect width="8.157894736842106" height="8.157894736842106" x="-4.078947368421053" y="475.92105263157896" fill="#aac5e5" stroke="none"></rect><rect width="8.157894736842106" height="8.157894736842106" x="62.58771929824562" y="475.92105263157896" fill="#445f7b" stroke="none"></rect><rect width="8.157894736842106" height="8.157894736842106" x="129.2543859649123" y="475.92105263157896" fill="#aac5e5" stroke="none"></rect><rect width="8.157894736842106" height="8.157894736842106" x="195.92105263157896" y="475.92105263157896" fill="#445f7b" stroke="none"></rect><rect width="8.157894736842106" height="8.157894736842106" x="262.58771929824564" y="475.92105263157896" fill="#aac5e5" stroke="none"></rect><rect width="8.157894736842106" height="8.157894736842106" x="329.25438596491233" y="475.92105263157896" fill="#445f7b" stroke="none"></rect><rect width="8.157894736842106" height="8.157894736842106" x="395.921052631579" y="475.92105263157896" fill="#aac5e5" stroke="none"></rect><rect width="8.157894736842106" height="8.157894736842106" x="462.5877192982457" y="475.92105263157896" fill="#445f7b" stroke="none"></rect><rect width="8.157894736842106" height="8.157894736842106" x="529.2543859649123" y="475.92105263157896" fill="#aac5e5" stroke="none"></rect><rect width="8.157894736842106" height="8.157894736842106" x="595.921052631579" y="475.92105263157896" fill="#445f7b" stroke="none"></rect><rect width="8.157894736842106" height="8.157894736842106" x="662.5877192982456" y="475.92105263157896" fill="#aac5e5" stroke="none"></rect><rect width="8.157894736842106" height="8.157894736842106" x="729.2543859649122" y="475.92105263157896" fill="#445f7b" stroke="none"></rect><rect width="8.157894736842106" height="8.157894736842106" x="795.9210526315788" y="475.92105263157896" fill="#aac5e5" stroke="none"></rect><rect width="8.157894736842106" height="8.157894736842106" x="-4.078947368421053" y="555.921052631579" fill="#445f7b" stroke="none"></rect><rect width="8.157894736842106" height="8.157894736842106" x="62.58771929824562" y="555.921052631579" fill="#aac5e5" stroke="none"></rect><rect width="8.157894736842106" height="8.157894736842106" x="129.2543859649123" y="555.921052631579" fill="#445f7b" stroke="none"></rect><rect width="8.157894736842106" height="8.157894736842106" x="195.92105263157896" y="555.921052631579" fill="#aac5e5" stroke="none"></rect><rect width="8.157894736842106" height="8.157894736842106" x="262.58771929824564" y="555.921052631579" fill="#445f7b" stroke="none"></rect><rect width="8.157894736842106" height="8.157894736842106" x="329.25438596491233" y="555.921052631579" fill="#aac5e5" stroke="none"></rect><rect width="8.157894736842106" height="8.157894736842106" x="395.921052631579" y="555.921052631579" fill="#445f7b" stroke="none"></rect><rect width="8.157894736842106" height="8.157894736842106" x="462.5877192982457" y="555.921052631579" fill="#aac5e5" stroke="none"></rect><rect width="8.157894736842106" height="8.157894736842106" x="529.2543859649123" y="555.921052631579" fill="#445f7b" stroke="none"></rect><rect width="8.157894736842106" height="8.157894736842106" x="595.921052631579" y="555.921052631579" fill="#aac5e5" stroke="none"></rect><rect width="8.157894736842106" height="8.157894736842106" x="662.5877192982456" y="555.921052631579" fill="#445f7b" stroke="none"></rect><rect width="8.157894736842106" height="8.157894736842106" x="729.2543859649122" y="555.921052631579" fill="#aac5e5" stroke="none"></rect><rect width="8.157894736842106" height="8.157894736842106" x="795.9210526315788" y="555.921052631579" fill="#445f7b" stroke="none"></rect><rect width="8.157894736842106" height="8.157894736842106" x="-4.078947368421053" y="635.921052631579" fill="#aac5e5" stroke="none"></rect><rect width="8.157894736842106" height="8.157894736842106" x="62.58771929824562" y="635.921052631579" fill="#445f7b" stroke="none"></rect><rect width="8.157894736842106" height="8.157894736842106" x="129.2543859649123" y="635.921052631579" fill="#aac5e5" stroke="none"></rect><rect width="8.157894736842106" height="8.157894736842106" x="195.92105263157896" y="635.921052631579" fill="#445f7b" stroke="none"></rect><rect width="8.157894736842106" height="8.157894736842106" x="262.58771929824564" y="635.921052631579" fill="#aac5e5" stroke="none"></rect><rect width="8.157894736842106" height="8.157894736842106" x="329.25438596491233" y="635.921052631579" fill="#445f7b" stroke="none"></rect><rect width="8.157894736842106" height="8.157894736842106" x="395.921052631579" y="635.921052631579" fill="#aac5e5" stroke="none"></rect><rect width="8.157894736842106" height="8.157894736842106" x="462.5877192982457" y="635.921052631579" fill="#445f7b" stroke="none"></rect><rect width="8.157894736842106" height="8.157894736842106" x="529.2543859649123" y="635.921052631579" fill="#aac5e5" stroke="none"></rect><rect width="8.157894736842106" height="8.157894736842106" x="595.921052631579" y="635.921052631579" fill="#445f7b" stroke="none"></rect><rect width="8.157894736842106" height="8.157894736842106" x="662.5877192982456" y="635.921052631579" fill="#aac5e5" stroke="none"></rect><rect width="8.157894736842106" height="8.157894736842106" x="729.2543859649122" y="635.921052631579" fill="#445f7b" stroke="none"></rect><rect width="8.157894736842106" height="8.157894736842106" x="795.9210526315788" y="635.921052631579" fill="#aac5e5" stroke="none"></rect><rect width="8.157894736842106" height="8.157894736842106" x="-4.078947368421053" y="715.921052631579" fill="#445f7b" stroke="none"></rect><rect width="8.157894736842106" height="8.157894736842106" x="62.58771929824562" y="715.921052631579" fill="#aac5e5" stroke="none"></rect><rect width="8.157894736842106" height="8.157894736842106" x="129.2543859649123" y="715.921052631579" fill="#445f7b" stroke="none"></rect><rect width="8.157894736842106" height="8.157894736842106" x="195.92105263157896" y="715.921052631579" fill="#aac5e5" stroke="none"></rect><rect width="8.157894736842106" height="8.157894736842106" x="262.58771929824564" y="715.921052631579" fill="#445f7b" stroke="none"></rect><rect width="8.157894736842106" height="8.157894736842106" x="329.25438596491233" y="715.921052631579" fill="#aac5e5" stroke="none"></rect><rect width="8.157894736842106" height="8.157894736842106" x="395.921052631579" y="715.921052631579" fill="#445f7b" stroke="none"></rect><rect width="8.157894736842106" height="8.157894736842106" x="462.5877192982457" y="715.921052631579" fill="#aac5e5" stroke="none"></rect><rect width="8.157894736842106" height="8.157894736842106" x="529.2543859649123" y="715.921052631579" fill="#445f7b" stroke="none"></rect><rect width="8.157894736842106" height="8.157894736842106" x="595.921052631579" y="715.921052631579" fill="#aac5e5" stroke="none"></rect><rect width="8.157894736842106" height="8.157894736842106" x="662.5877192982456" y="715.921052631579" fill="#445f7b" stroke="none"></rect><rect width="8.157894736842106" height="8.157894736842106" x="729.2543859649122" y="715.921052631579" fill="#aac5e5" stroke="none"></rect><rect width="8.157894736842106" height="8.157894736842106" x="795.9210526315788" y="715.921052631579" fill="#445f7b" stroke="none"></rect><rect width="8.157894736842106" height="8.157894736842106" x="-4.078947368421053" y="795.921052631579" fill="#aac5e5" stroke="none"></rect><rect width="8.157894736842106" height="8.157894736842106" x="62.58771929824562" y="795.921052631579" fill="#445f7b" stroke="none"></rect><rect width="8.157894736842106" height="8.157894736842106" x="129.2543859649123" y="795.921052631579" fill="#aac5e5" stroke="none"></rect><rect width="8.157894736842106" height="8.157894736842106" x="195.92105263157896" y="795.921052631579" fill="#445f7b" stroke="none"></rect><rect width="8.157894736842106" height="8.157894736842106" x="262.58771929824564" y="795.921052631579" fill="#aac5e5" stroke="none"></rect><rect width="8.157894736842106" height="8.157894736842106" x="329.25438596491233" y="795.921052631579" fill="#445f7b" stroke="none"></rect><rect width="8.157894736842106" height="8.157894736842106" x="395.921052631579" y="795.921052631579" fill="#aac5e5" stroke="none"></rect><rect width="8.157894736842106" height="8.157894736842106" x="462.5877192982457" y="795.921052631579" fill="#445f7b" stroke="none"></rect><rect width="8.157894736842106" height="8.157894736842106" x="529.2543859649123" y="795.921052631579" fill="#aac5e5" stroke="none"></rect><rect width="8.157894736842106" height="8.157894736842106" x="595.921052631579" y="795.921052631579" fill="#445f7b" stroke="none"></rect><rect width="8.157894736842106" height="8.157894736842106" x="662.5877192982456" y="795.921052631579" fill="#aac5e5" stroke="none"></rect><rect width="8.157894736842106" height="8.157894736842106" x="729.2543859649122" y="795.921052631579" fill="#445f7b" stroke="none"></rect><rect width="8.157894736842106" height="8.157894736842106" x="795.9210526315788" y="795.921052631579" fill="#aac5e5" stroke="none"></rect></g></svg>