<svg xmlns="http://www.w3.org/2000/svg" version="1.1" xmlns:xlink="http://www.w3.org/1999/xlink" xmlns:svgjs="http://svgjs.dev/svgjs" viewBox="0 0 640 800" id="qqquad"><g shape-rendering="crispEdges" stroke-linejoin="round" fill="none" stroke-width="1" stroke="#aac5e5"><polygon points="640,200 480,200 640,0"></polygon><polygon points="480,0 400,0 400,100"></polygon><polygon points="400,0 400,100 320,0"></polygon><polygon points="400,100 400,200 320,100"></polygon><polygon points="480,200 400,200 480,100"></polygon><polygon points="480,300 480,200 400,200"></polygon><polygon points="400,200 400,300 320,300"></polygon><polygon points="400,300 320,300 320,400"></polygon><polygon points="400,400 480,300 480,400"></polygon><polygon points="640,200 640,300 560,200"></polygon><polygon points="560,200 480,200 480,300"></polygon><polygon points="560,300 560,400 480,400"></polygon><polygon points="640,400 640,300 560,400"></polygon><polygon points="320,0 240,100 320,100"></polygon><polygon points="160,0 240,0 240,100"></polygon><polygon points="160,100 240,100 160,200"></polygon><polygon points="320,100 320,200 240,200"></polygon><polygon points="160,0 0,0 160,200"></polygon><polygon points="80,300 160,200 160,300"></polygon><polygon points="80,300 0,200 80,200"></polygon><polygon points="80,400 80,300 0,300"></polygon><polygon points="80,300 160,400 80,400"></polygon><polygon points="320,300 240,300 320,200"></polygon><polygon points="200,200 200,250 240,200"></polygon><polygon points="200,200 200,250 160,200"></polygon><polygon points="200,300 200,250 160,250"></polygon><polygon points="240,300 240,250 200,300"></polygon><polygon points="240,400 240,300 160,400"></polygon><polygon points="320,350 320,300 280,300"></polygon><polygon points="280,300 280,350 240,350"></polygon><polygon points="280,350 280,400 240,400"></polygon><polygon points="280,350 320,350 320,400"></polygon><polygon points="320,400 240,500 320,500"></polygon><polygon points="160,400 240,500 160,500"></polygon><polygon points="240,500 160,500 160,600"></polygon><polygon points="280,550 320,550 320,500"></polygon><polygon points="280,550 240,550 240,500"></polygon><polygon points="280,550 240,600 280,600"></polygon><polygon points="280,550 320,600 280,600"></polygon><polygon points="160,500 160,400 80,400"></polygon><polygon points="80,500 0,400 0,500"></polygon><polygon points="0,600 0,500 80,600"></polygon><polygon points="160,500 160,600 80,600"></polygon><polygon points="160,800 160,600 0,800"></polygon><polygon points="320,700 320,600 240,600"></polygon><polygon points="240,600 240,700 160,700"></polygon><polygon points="240,800 160,800 240,700"></polygon><polygon points="320,800 320,700 240,800"></polygon><polygon points="640,400 560,500 640,500"></polygon><polygon points="480,400 560,500 480,500"></polygon><polygon points="480,600 560,500 560,600"></polygon><polygon points="640,500 640,600 560,600"></polygon><polygon points="480,400 480,500 400,500"></polygon><polygon points="400,400 400,450 360,450"></polygon><polygon points="360,450 360,400 320,450"></polygon><polygon points="360,450 320,500 320,450"></polygon><polygon points="360,500 400,450 400,500"></polygon><polygon points="320,500 320,600 400,600"></polygon><polygon points="480,600 480,500 400,500"></polygon><polygon points="480,600 480,700 400,600"></polygon><polygon points="320,700 400,700 400,600"></polygon><polygon points="400,700 320,700 400,800"></polygon><polygon points="480,800 480,700 400,800"></polygon><polygon points="640,800 480,600 480,800"></polygon></g><g fill="hsl(220, 62%, 45%)" stroke-width="3" stroke="hsl(220, 43%, 13%)"></g></svg>