<svg xmlns="http://www.w3.org/2000/svg" version="1.1" xmlns:xlink="http://www.w3.org/1999/xlink" xmlns:svgjs="http://svgjs.dev/svgjs" viewBox="0 0 800 800"><defs><linearGradient x1="50%" y1="0%" x2="50%" y2="100%" id="ssspill-grad"><stop stop-color="#657f9d" stop-opacity="1" offset="45%"></stop><stop stop-color="#aac5e5" stop-opacity="1" offset="100%"></stop></linearGradient><filter id="ssspot-filter" x="-20%" y="-20%" width="140%" height="140%" filterUnits="objectBoundingBox" primitiveUnits="userSpaceOnUse" color-interpolation-filters="sRGB">
	<feTurbulence type="turbulence" baseFrequency="0.022 0.218" numOctaves="2" seed="96" stitchTiles="stitch" x="0%" y="0%" width="100%" height="100%" result="turbulence"></feTurbulence>
	<feGaussianBlur stdDeviation="0 3" x="0%" y="0%" width="100%" height="100%" in="turbulence" edgeMode="duplicate" result="blur"></feGaussianBlur>
	<feDisplacementMap in="SourceGraphic" in2="blur" scale="32" xChannelSelector="R" yChannelSelector="B" x="0%" y="0%" width="100%" height="100%" result="displacementMap"></feDisplacementMap>
</filter></defs><rect width="100%" height="100%" fill="#00243c"></rect><g fill="url(#ssspill-grad)" filter="url(#ssspot-filter)"><circle r="5.832331151950457" cx="495.8104181534889" cy="676.4416177066424" opacity="0.8288580321550736"></circle><circle r="4.536413287524581" cx="432.9951796158261" cy="789.040085169796" opacity="0.8957941432722206"></circle><circle r="5.281870657372384" cx="57.67115360952027" cy="621.1529145207796" opacity="0.46539441636442525"></circle><circle r="5.4790473971092" cx="727.688981141905" cy="310.7769096547032" opacity="0.2625596979315718"></circle><circle r="4.176388657686535" cx="13.854045986660005" cy="644.6428478003955" opacity="0.2818614696210338"></circle><circle r="5.481182276215499" cx="392.76468351001625" cy="332.49314180165777" opacity="0.7732633970831495"></circle><circle r="6.901206534186049" cx="302.0529234157237" cy="577.4590669161169" opacity="0.5832851490351116"></circle><circle r="8.194052543378326" cx="578.3204011656966" cy="772.3234267941621" opacity="0.6141203500136697"></circle><circle r="5.017917415937326" cx="772.0157188152648" cy="380.8665879230408" opacity="0.6920781275897693"></circle><circle r="5.8886234691738615" cx="705.6517700815109" cy="260.39309088976967" opacity="0.775009030811837"></circle><circle r="6.756224941348295" cx="495.9175629276963" cy="355.2039520065438" opacity="0.3782946569134493"></circle><circle r="9.51239233050202" cx="30.572382284149004" cy="76.59961917936104" opacity="0.1578666155285059"></circle><circle r="7.575723322458855" cx="757.5336786102783" cy="189.59178547634855" opacity="0.25295731455646686"></circle><circle r="4.358892101301385" cx="320.69740836912183" cy="648.582446719185" opacity="0.768106085272874"></circle><circle r="9.829403740724729" cx="208.01955182081159" cy="551.3847551609507" opacity="0.7119528541881657"></circle><circle r="6.225634372351482" cx="179.415412926831" cy="623.3229008595396" opacity="0.4266543714239168"></circle><circle r="6.1060905970743695" cx="342.0874699703326" cy="327.16171552698773" opacity="0.5802725007603324"></circle><circle r="4.4051598278633515" cx="265.4404788350575" cy="513.6302197877583" opacity="0.24166745673326914"></circle><circle r="8.867550108462922" cx="495.3272345620536" cy="714.6583999939467" opacity="0.1217980502482006"></circle><circle r="5.924432476592539" cx="419.12369816339526" cy="329.29817519571105" opacity="0.29287903923729913"></circle><circle r="4.857402350768288" cx="518.60359850791" cy="549.8781531154808" opacity="0.16847524563512153"></circle><circle r="3.970559386159331" cx="503.5392680717492" cy="787.8899571348563" opacity="0.7208361061834155"></circle><circle r="3.832148049401477" cx="785.2981015242066" cy="341.48867769716225" opacity="0.45338751855798753"></circle><circle r="5.0619804282439524" cx="622.8210253208339" cy="215.2152471401006" opacity="0.7922183842385281"></circle><circle r="5.414799316231816" cx="142.1823917953457" cy="731.177892699324" opacity="0.47869056671063015"></circle><circle r="6.572466088271462" cx="239.55221124249007" cy="781.0139451232701" opacity="0.8346063667483408"></circle><circle r="3.914835458947099" cx="495.1550137492839" cy="209.15056581995952" opacity="0.7143933972489921"></circle><circle r="7.4098753473139105" cx="183.6576273612457" cy="376.73529742128903" opacity="0.6572250801534849"></circle><circle r="5.748661588841175" cx="572.8360133145862" cy="58.43795912120109" opacity="0.674543421395912"></circle><circle r="6.603371769931231" cx="446.5008619399545" cy="142.2506366978955" opacity="0.8604873802107957"></circle><circle r="3.8649516316645767" cx="601.4748668845004" cy="714.8015620290051" opacity="0.6656629759046953"></circle><circle r="3.1873725822479746" cx="18.643090523787883" cy="768.6114939323604" opacity="0.7153628484018261"></circle><circle r="5.0715146424543445" cx="490.8792175080975" cy="435.9546738084673" opacity="0.8055650010388492"></circle><circle r="6.167054725494924" cx="613.7460185945778" cy="108.71114524086288" opacity="0.2035993309336141"></circle><circle r="9.629766647037865" cx="237.44741513764924" cy="213.6712072809512" opacity="0.2980582940084455"></circle><circle r="3.614032971001744" cx="55.772255406987426" cy="350.58913524404716" opacity="0.6135415208355887"></circle><circle r="4.631730134388672" cx="728.1319142673754" cy="428.27880527728144" opacity="0.9322588680409309"></circle><circle r="3.1381752308690314" cx="463.69043852441456" cy="10.939291390448492" opacity="0.4186712664279122"></circle><circle r="4.071094072141977" cx="12.231234594210902" cy="369.847190684597" opacity="0.9201506212134603"></circle><circle r="5.480123293869737" cx="677.6883611649652" cy="223.50641851082494" opacity="0.5623578222945056"></circle><circle r="3.5805723770501556" cx="207.08803119123823" cy="9.411025940224391" opacity="0.3998908838496249"></circle><circle r="7.4580618055908765" cx="166.32953388162008" cy="90.59532246347348" opacity="0.25542062091944084"></circle><circle r="5.499464147310746" cx="553.4337712345196" cy="137.6806463799675" opacity="0.7757020703753303"></circle><circle r="3.9722486256582363" cx="369.50468338013843" cy="106.12275143739514" opacity="0.881197757626006"></circle><circle r="3.4341460888617195" cx="715.035333368685" cy="527.8072141152724" opacity="0.9927222271238796"></circle><circle r="6.42802000695319" cx="746.5817962971283" cy="783.5496964299776" opacity="0.5999469597072836"></circle><circle r="4.15935401334027" cx="12.991633767178428" cy="247.3121749830012" opacity="0.7231610960092473"></circle><circle r="4.588122575810175" cx="57.95554013298077" cy="725.5084964720635" opacity="0.14593835456839938"></circle><circle r="8.052358637545117" cx="265.8882485745894" cy="244.52917819884073" opacity="0.430467256760117"></circle><circle r="6.341827163151244" cx="456.7150456283379" cy="746.8734950551624" opacity="0.1644926461572289"></circle><circle r="9.30516807530779" cx="504.05970694654195" cy="28.93981569122483" opacity="0.37121146226055013"></circle><circle r="9.751701008614264" cx="337.32161936755296" cy="186.04251898290528" opacity="0.21982877811617457"></circle><circle r="3.8766722754282688" cx="702.1566829167704" cy="349.5700303727742" opacity="0.7137355321591922"></circle><circle r="5.41130031921848" cx="554.3583500077488" cy="208.3442126122168" opacity="0.10461795641709593"></circle><circle r="7.12994511449887" cx="60.880145840526644" cy="445.59781884189954" opacity="0.16865289332793482"></circle><circle r="4.302012094396434" cx="405.2399307973311" cy="354.5195712211827" opacity="0.6323912824288048"></circle><circle r="5.149853487003325" cx="529.2682897681927" cy="364.0434584297365" opacity="0.33578444546541963"></circle><circle r="3.5899534106423148" cx="273.0971487705709" cy="716.5825440243406" opacity="0.768688445098847"></circle><circle r="5.940397381177224" cx="388.433171589679" cy="612.8924162287055" opacity="0.29643136150800553"></circle><circle r="7.000147574087767" cx="446.9511021159435" cy="711.4548820459482" opacity="0.5272935748914527"></circle><circle r="5.948380417531448" cx="95.11065823061374" cy="248.59908050673354" opacity="0.3906635224766911"></circle><circle r="4.486265742404369" cx="47.45416412630797" cy="749.062389905693" opacity="0.6427152124693528"></circle><circle r="5.057386854985304" cx="119.59440990887872" cy="232.12027603836853" opacity="0.2682441265237309"></circle><circle r="5.604914848584658" cx="590.8813662663641" cy="263.5313615538536" opacity="0.7176322628691078"></circle><circle r="6.39998509922451" cx="748.1660107901495" cy="161.08949912617632" opacity="0.9950322391049093"></circle><circle r="7.206486340809441" cx="70.06162553412483" cy="232.08176832686215" opacity="0.797873386328012"></circle><circle r="6.323006162626726" cx="75.61697216159531" cy="561.9935897956502" opacity="0.8511568563202511"></circle><circle r="7.9708847900921835" cx="215.68444416500037" cy="379.18451646795694" opacity="0.5536100061209477"></circle><circle r="8.391163150686255" cx="301.9475830101021" cy="132.83945484877677" opacity="0.2538118655991978"></circle><circle r="5.508690335839092" cx="340.2619895411505" cy="405.34799138923654" opacity="0.21507926746425282"></circle><circle r="5.242404069552959" cx="616.0529314244083" cy="249.80224665254588" opacity="0.7601090008191447"></circle><circle r="7.031454834938159" cx="125.51473922055297" cy="658.8475772793662" opacity="0.11487301663158621"></circle><circle r="6.334655359805427" cx="666.4947046593703" cy="23.696309671325896" opacity="0.6691961538675327"></circle><circle r="6.110281838820912" cx="406.7654680553379" cy="418.79571129973465" opacity="0.29396086125317245"></circle><circle r="5.518987453636717" cx="73.3968614082217" cy="103.99652555044071" opacity="0.27053982662129133"></circle><circle r="6.602659271537622" cx="105.08627810412062" cy="401.34368459407926" opacity="0.5051368331955407"></circle><circle r="6.269702755751892" cx="754.1926080375945" cy="359.38852284103336" opacity="0.3471048364275614"></circle><circle r="6.346031706504494" cx="265.30567354429354" cy="442.71875204915733" opacity="0.40798286492825697"></circle><circle r="3.5117840593872005" cx="501.7352594065449" cy="133.39402806675912" opacity="0.5542813657768577"></circle><circle r="3.9015904261093626" cx="260.4135173865648" cy="377.3850097520752" opacity="0.5026852587698832"></circle><circle r="4.012290624491308" cx="522.1099698350789" cy="637.8140875355198" opacity="0.1711543793091813"></circle><circle r="5.542656275732639" cx="216.35844295329807" cy="331.17106202926806" opacity="0.7244616948789862"></circle><circle r="4.418889826551758" cx="180.84001597694183" cy="305.11360544164546" opacity="0.4735169270436138"></circle><circle r="5.525773350438067" cx="11.867938716166034" cy="681.8024143783554" opacity="0.6383416617175832"></circle><circle r="6.793487145071104" cx="194.8529628598353" cy="150.4989233876784" opacity="0.34208202235972796"></circle><circle r="4.625964910171829" cx="431.790766408358" cy="85.73855512363315" opacity="0.96107396514549"></circle><circle r="5.629588640104506" cx="722.074896477642" cy="334.86543509345853" opacity="0.11432935909147077"></circle><circle r="4.129138889254463" cx="477.446179229427" cy="147.4844753124551" opacity="0.11900867391878064"></circle><circle r="4.7621928877680535" cx="547.6554952970171" cy="291.0789004053303" opacity="0.6906961748791648"></circle><circle r="3.6696432442288205" cx="409.6951833614689" cy="263.0791408656843" opacity="0.28153351598307985"></circle><circle r="4.281661376336675" cx="345.4992395407632" cy="747.0684944993626" opacity="0.45352644329168534"></circle><circle r="1.8186483113026586" cx="425.50801620253696" cy="377.1560028203093" opacity="0.7747509648661696"></circle><circle r="5.073673582302904" cx="689.5304402818881" cy="180.32192709684574" opacity="0.12513349032355703"></circle><circle r="3.9747055346021734" cx="604.072142815359" cy="193.89208165485104" opacity="0.5725402548629109"></circle><circle r="5.291766849310386" cx="462.7037421528297" cy="365.77467719668704" opacity="0.9493082226701606"></circle><circle r="6.718598500005507" cx="295.1435158369413" cy="433.9476878957126" opacity="0.9544793360211364"></circle><circle r="5.4658069293756455" cx="497.46858213436786" cy="608.0643727634651" opacity="0.6174595899202874"></circle><circle r="4.812557738409591" cx="331.4664150526291" cy="16.861710086114456" opacity="0.3294075293228498"></circle><circle r="8.519210630851813" cx="571.0610748879769" cy="523.9933850026575" opacity="0.34109289098924334"></circle><circle r="4.9480519106141765" cx="622.1954633676846" cy="497.09279194296806" opacity="0.15367024842927007"></circle><circle r="5.764211617338884" cx="734.6440550550187" cy="257.95918066362185" opacity="0.5092962399902926"></circle><circle r="5.052281591935764" cx="291.11718751027183" cy="511.1808406597339" opacity="0.5871204969344621"></circle><circle r="3.8177528354510604" cx="19.639182090321217" cy="341.6715506988212" opacity="0.2813086608877078"></circle><circle r="4.06548643279107" cx="160.62275749745487" cy="407.3190788177037" opacity="0.36344759039340047"></circle><circle r="5.800802483117804" cx="475.35256038420346" cy="415.95484424711844" opacity="0.5224285568663829"></circle><circle r="6.17363073340222" cx="495.9158087808347" cy="641.8129324507114" opacity="0.29273306449505276"></circle><circle r="4.558224832764283" cx="65.15583014053028" cy="263.0741080701137" opacity="0.37169175863022264"></circle><circle r="5.640341603768435" cx="53.89937177942841" cy="538.2135356687916" opacity="0.5570736317689428"></circle><circle r="6.692527842909304" cx="225.1608520670235" cy="726.3346418480639" opacity="0.9617871693622697"></circle><circle r="8.407978855723515" cx="304.29638266430953" cy="168.95084070624029" opacity="0.6736713520374242"></circle><circle r="7.9962437556654695" cx="303.7860543820982" cy="60.08106709491947" opacity="0.8175343289085681"></circle><circle r="4.153806258380513" cx="93.03276843434568" cy="278.37560067427887" opacity="0.998262143773483"></circle><circle r="5.53602351891649" cx="54.44510742197721" cy="384.8563268190389" opacity="0.7657558204787116"></circle><circle r="5.225842456867209" cx="789.3954599045844" cy="43.69831481734722" opacity="0.5980159643903596"></circle><circle r="2.8993232912492406" cx="127.08418864719684" cy="309.4951714802144" opacity="0.7642992435528488"></circle><circle r="3.461999616393859" cx="481.856391768431" cy="507.4025094608968" opacity="0.47092987690917765"></circle><circle r="3.43202060706058" cx="661.2413449806459" cy="316.4926715704558" opacity="0.3750762292698223"></circle><circle r="5.197099432950676" cx="540.8817759858406" cy="401.3348118203554" opacity="0.43621233182189645"></circle><circle r="6.069213461047781" cx="403.7622583243881" cy="73.48050965055586" opacity="0.3555310600772461"></circle><circle r="10.176745975840017" cx="397.97019106077954" cy="691.6931247478125" opacity="0.9099197213353795"></circle><circle r="2.7417080116333543" cx="463.5957715037258" cy="498.64946038897665" opacity="0.11830008893531206"></circle><circle r="4.3434302086923635" cx="368.64512414674783" cy="788.7467655614403" opacity="0.3847729493253005"></circle><circle r="4.603993812809864" cx="13.431268214704694" cy="167.8415063109137" opacity="0.9120442530328562"></circle><circle r="4.00665773001752" cx="788.6504380785839" cy="109.69593987023903" opacity="0.7502393769206308"></circle><circle r="7.1719788275211265" cx="427.50677698168164" cy="526.1426495574605" opacity="0.3910280224895434"></circle><circle r="3.3562919234123894" cx="438.7310269105279" cy="368.18930141530103" opacity="0.1582180123190596"></circle><circle r="5.805395036109646" cx="670.7586704560993" cy="262.69118551554163" opacity="0.4972612545749058"></circle><circle r="8.483416635995605" cx="762.6799972766275" cy="49.76006130785886" opacity="0.739254042621626"></circle><circle r="4.6658221946471805" cx="612.3112607409819" cy="437.71051981989166" opacity="0.6661403883183865"></circle><circle r="6.454341588437827" cx="153.99365341810986" cy="124.71374276152916" opacity="0.8399064356559345"></circle><circle r="4.344289406729342" cx="415.70899810197136" cy="396.53034933897095" opacity="0.7020382491121296"></circle><circle r="3.137364998461169" cx="623.3035079560902" cy="670.3706846047687" opacity="0.1670643087214392"></circle><circle r="7.331008251221935" cx="48.84391435834172" cy="591.3798584094718" opacity="0.30344272683780266"></circle><circle r="5.44598923934325" cx="581.9778713335746" cy="481.8412431776885" opacity="0.18678060445875883"></circle><circle r="7.362694885335127" cx="106.32348472840951" cy="144.2721039591653" opacity="0.3260886140299454"></circle><circle r="5.579932952464698" cx="310.9518797297929" cy="677.2063579411384" opacity="0.17096900936314224"></circle><circle r="5.7933604094197895" cx="543.1371945884657" cy="670.75206271653" opacity="0.13440726254770619"></circle><circle r="3.3605566137319274" cx="364.82383714191417" cy="633.6899763972228" opacity="0.5203603866486272"></circle><circle r="5.956036503677091" cx="675.6005306727208" cy="594.9198158520346" opacity="0.24383379146690942"></circle><circle r="7.117877963249075" cx="119.88531390350506" cy="19.35958614377148" opacity="0.639484525538784"></circle><circle r="5.869527449687973" cx="444.9227262304967" cy="109.3348575512857" opacity="0.3843380427534214"></circle><circle r="8.360255221550261" cx="217.5337115292015" cy="289.7082416360697" opacity="0.6980927153990917"></circle><circle r="3.5750023621501636" cx="614.4169501572928" cy="787.4361711025197" opacity="0.7372975945403273"></circle><circle r="6.4659572357687285" cx="104.14714899804248" cy="778.117852821327" opacity="0.884732905619047"></circle><circle r="4.4821182376646895" cx="444.47694896071374" cy="503.84437280253826" opacity="0.7529325693546558"></circle><circle r="4.936463404065516" cx="348.0793891657371" cy="617.7262980590905" opacity="0.8203280958279606"></circle><circle r="6.669583437373074" cx="52.8338208019279" cy="159.15903247660427" opacity="0.8259958126506911"></circle><circle r="4.491766031141075" cx="154.0671449858229" cy="239.4558077301235" opacity="0.8803451418298525"></circle><circle r="6.9851127288683115" cx="204.20221236829687" cy="688.8530254323074" opacity="0.4681414570541089"></circle><circle r="8.427100024829368" cx="139.17037549438447" cy="623.3593349723219" opacity="0.7461104164263933"></circle><circle r="7.490308775912427" cx="256.21087422497806" cy="280.5516399167067" opacity="0.10139964410338687"></circle><circle r="5.445738342231003" cx="741.6311912557876" cy="130.1142916866519" opacity="0.27359887646871717"></circle><circle r="3.5042725826448637" cx="508.82624266950774" cy="425.13297628803616" opacity="0.4691514880952411"></circle><circle r="6.3536214990309325" cx="574.2511490698099" cy="650.7836718743873" opacity="0.10603684009727309"></circle><circle r="6.083583362486684" cx="489.13962381787263" cy="750.4352707821918" opacity="0.24099509921409817"></circle><circle r="7.670764623483215" cx="397.4812592991644" cy="233.99436686728458" opacity="0.9523508544607523"></circle><circle r="3.8186798901922616" cx="525.8563401669381" cy="416.367767183019" opacity="0.8782987285522361"></circle><circle r="4.856711317506017" cx="641.6703633283169" cy="244.75773053080212" opacity="0.8523066718184372"></circle><circle r="4.841015134153279" cx="458.2515150346423" cy="336.73476317189824" opacity="0.7524510483790846"></circle><circle r="5.4292439344146874" cx="104.37126296358366" cy="441.8991381241125" opacity="0.7986922430837643"></circle><circle r="8.826138796222988" cx="278.1368254758298" cy="778.754012139007" opacity="0.6847996823005807"></circle><circle r="4.940590580314652" cx="619.8717955368485" cy="36.319044111457664" opacity="0.3344920071273808"></circle><circle r="5.034875677128424" cx="609.8121893773254" cy="387.0372866067477" opacity="0.13894509848314093"></circle><circle r="5.006761944102806" cx="408.8985308297795" cy="566.0783317933718" opacity="0.4347039171804863"></circle><circle r="5.477244276572641" cx="132.38929869623064" cy="360.4113263389681" opacity="0.2010501633266108"></circle><circle r="5.781150815258517" cx="378.0768639675186" cy="433.778803595939" opacity="0.939188657366417"></circle><circle r="3.6471665031482505" cx="440.92140510491913" cy="417.2254925126824" opacity="0.5309447850347487"></circle><circle r="3.801485231103889" cx="726.4079168156134" cy="366.85082979244766" opacity="0.5047005393130349"></circle><circle r="8.217360698617703" cx="743.0433422864952" cy="557.645762771909" opacity="0.7314546604197066"></circle><circle r="5.810333919499298" cx="244.91292707222559" cy="167.8854689522765" opacity="0.9377107924399862"></circle><circle r="6.783449563448735" cx="310.4712796961042" cy="753.8393166683912" opacity="0.25260280801079465"></circle><circle r="5.426362535616492" cx="329.43253055915727" cy="561.910491544094" opacity="0.7721642099466456"></circle><circle r="6.652817716317753" cx="588.5725943007052" cy="16.86721889777816" opacity="0.9571611802895733"></circle><circle r="6.490551579911546" cx="58.2702277482747" cy="784.3017070272329" opacity="0.6990622892969315"></circle><circle r="5.009966219814632" cx="20.829739071623365" cy="789.9340936835941" opacity="0.9644181717395848"></circle><circle r="3.565063553809826" cx="59.492035647901524" cy="286.0867080956194" opacity="0.19901206055969356"></circle><circle r="5.138574486533974" cx="618.4373089768217" cy="746.0712982978833" opacity="0.6315289267647243"></circle><circle r="4.469371574245371" cx="34.15903569843986" cy="657.6006703528246" opacity="0.5369141745805606"></circle><circle r="7.072204788976678" cx="424.42249140201375" cy="442.10107918379555" opacity="0.21557080264109052"></circle><circle r="9.277698115973529" cx="179.33253514301398" cy="716.3524651996033" opacity="0.39908564754814113"></circle><circle r="2.4807734741636214" cx="144.53983619227094" cy="424.63670637801744" opacity="0.6368965634756301"></circle><circle r="4.870959489720576" cx="560.6461182591864" cy="261.5897734152157" opacity="0.9432650367870775"></circle><circle r="4.649054314731073" cx="469.14720040150337" cy="781.7570967578729" opacity="0.40627698177873106"></circle><circle r="5.7831464589740635" cx="408.9513416988186" cy="142.83982949431635" opacity="0.8819348685156935"></circle><circle r="4.236569258577939" cx="382.6588035650472" cy="731.5706664204625" opacity="0.42335318302102243"></circle><circle r="5.486692842767848" cx="272.06276883632705" cy="488.65154864881407" opacity="0.7204768795316843"></circle><circle r="5.778933264496338" cx="754.6775959122931" cy="14.837578939116426" opacity="0.4443416881946449"></circle><circle r="5.452183681749327" cx="460.7823222775513" cy="81.49887482716032" opacity="0.5845343979530223"></circle><circle r="4.489909653691797" cx="403.63874729532455" cy="102.51130145145271" opacity="0.8604461446459987"></circle><circle r="6.269536534437684" cx="651.410136934105" cy="785.9000259646572" opacity="0.48782652209404065"></circle><circle r="5.219094610078788" cx="644.6677208763892" cy="656.9371197335134" opacity="0.4563792128900749"></circle><circle r="6.375878609457755" cx="136.56451925501574" cy="525.7931426127564" opacity="0.5370949391282099"></circle><circle r="6.605097076452109" cx="364.2698494350058" cy="301.6015699593633" opacity="0.9612701287266449"></circle><circle r="5.597244132101724" cx="162.8625135230293" cy="550.9849713008148" opacity="0.3854948275678166"></circle><circle r="5.009828414806465" cx="604.4369337275601" cy="68.07243187399418" opacity="0.15176251783306577"></circle><circle r="6.305131139810376" cx="181.10790746804523" cy="514.6902574487223" opacity="0.9405908230843549"></circle><circle r="7.78754280422622" cx="392.9767735037575" cy="45.78571496733318" opacity="0.8098862119393089"></circle><circle r="5.086060618816119" cx="78.45884431227698" cy="758.5783763602168" opacity="0.5539105863781294"></circle><circle r="4.311194833170509" cx="501.2077776779371" cy="301.34348724958784" opacity="0.7413599933791568"></circle><circle r="4.2302074179457545" cx="470.42934877775764" cy="449.73751730065476" opacity="0.9482905602649573"></circle><circle r="3.579705368629548" cx="66.67582179039474" cy="328.13034162804394" opacity="0.5614505875909522"></circle><circle r="8.49673990384115" cx="85.9927358045001" cy="187.0012896921576" opacity="0.1770331328022564"></circle><circle r="7.128852408612088" cx="196.7392682691024" cy="590.1212432533557" opacity="0.4132452677965779"></circle><circle r="5.993761448308429" cx="482.84884826944483" cy="384.8751783636355" opacity="0.4497836752611313"></circle><circle r="4.408000149902788" cx="782.5189598257679" cy="509.48260901260414" opacity="0.46670914012410003"></circle><circle r="3.4568900612842044" cx="409.20484697563217" cy="778.1605655593738" opacity="0.29655900617914666"></circle><circle r="10.39829711672473" cx="21.570921502414922" cy="27.159467652034564" opacity="0.2475805338140472"></circle><circle r="7.391326241116282" cx="410.18183159765596" cy="15.147335807880596" opacity="0.8742943864687837"></circle><circle r="4.0012604498944055" cx="42.28341519857093" cy="239.67023775510032" opacity="0.3192788242493161"></circle><circle r="3.564098821497832" cx="96.00886161687106" cy="349.0155556396739" opacity="0.9711075131773066"></circle><circle r="7.712546807521086" cx="324.1876152704031" cy="443.101256034232" opacity="0.10948373535931746"></circle><circle r="4.106092987609439" cx="786.6722434038276" cy="176.73776632043396" opacity="0.5286174650453785"></circle><circle r="4.160855549329398" cx="684.1110030650207" cy="329.96081620725175" opacity="0.8716378274645147"></circle><circle r="4.027399185841411" cx="592.976915704934" cy="287.8577004294009" opacity="0.28105940234222215"></circle><circle r="6.442598752240206" cx="267.404578233189" cy="579.235776397557" opacity="0.9815762419766352"></circle><circle r="3.148197684569591" cx="300.4522366896106" cy="467.0461811339189" opacity="0.8764871215610462"></circle><circle r="3.102782172431527" cx="41.273078969615234" cy="681.536449267989" opacity="0.988665445428462"></circle><circle r="5.202138516102731" cx="123.764552433705" cy="286.9800849866242" opacity="0.3645430619597565"></circle><circle r="6.124045105839904" cx="666.2081795835574" cy="489.1653612319542" opacity="0.19553598388577098"></circle><circle r="4.264283436698811" cx="55.4610991500859" cy="307.65375155949977" opacity="0.3178223960300277"></circle><circle r="4.6655826038058255" cx="516.0327576765844" cy="455.10778488648174" opacity="0.20681680386990842"></circle><circle r="5.205844666815709" cx="525.483768430593" cy="285.59747833927065" opacity="0.9058182873907701"></circle><circle r="3.6009109179154177" cx="349.84044948004663" cy="544.8440150287537" opacity="0.12321701749705002"></circle><circle r="3.3598140777787577" cx="14.194927993625157" cy="745.2293450305837" opacity="0.30844954031829486"></circle><circle r="6.8167399875697345" cx="629.8666566154703" cy="174.00273018722731" opacity="0.36071463288077543"></circle><circle r="5.365488302701948" cx="417.41182644070955" cy="600.8069930439216" opacity="0.7063252175717246"></circle><circle r="6.172161393081956" cx="350.87882658200766" cy="581.7112162450144" opacity="0.19302239723714842"></circle><circle r="7.4776725818573375" cx="750.6018759865777" cy="504.82451113419665" opacity="0.13793362803095477"></circle><circle r="7.786516830625004" cx="781.6561730984295" cy="551.708353515786" opacity="0.9083222108663672"></circle><circle r="8.064241094044544" cx="673.1287744301841" cy="683.5277122373084" opacity="0.9146078541818251"></circle><circle r="4.746573217276511" cx="452.1080254889143" cy="465.61067360254594" opacity="0.6861496000724002"></circle><circle r="3.382372918934155" cx="501.05082543268793" cy="516.9580433492721" opacity="0.9874506139738629"></circle><circle r="4.961859084715195" cx="90.61625387652217" cy="303.07980356813806" opacity="0.3495105881224884"></circle><circle r="4.886360606334458" cx="307.74800911980157" cy="343.8026081850094" opacity="0.8123337992752645"></circle><circle r="6.126038215012535" cx="404.39751212868265" cy="466.6499474787965" opacity="0.9095637475525535"></circle><circle r="8.951729756124537" cx="15.852805011945227" cy="526.8844051156703" opacity="0.128995242189658"></circle><circle r="6.654713210425088" cx="276.58105525410076" cy="661.0223158293157" opacity="0.5970174520608557"></circle><circle r="5.571663990344577" cx="650.472522793937" cy="145.88002106804078" opacity="0.6659910007111276"></circle><circle r="6.420355184267291" cx="560.9626259992149" cy="34.76147892987125" opacity="0.8275026086033624"></circle><circle r="3.781071642607773" cx="85.6187453220029" cy="708.8585031199" opacity="0.6915507823822621"></circle><circle r="5.9435273291305" cx="701.8108539399485" cy="208.7211779378076" opacity="0.4473497849105955"></circle><circle r="4.390486269227086" cx="465.5202809741716" cy="644.3440148869823" opacity="0.6107879320837215"></circle><circle r="4.7002367628757415" cx="455.05815897153775" cy="395.7538588180253" opacity="0.8149913417626793"></circle><circle r="5.881853830059512" cx="253.48956033567143" cy="747.8394184375599" opacity="0.2737080463403826"></circle><circle r="4.073022116177164" cx="708.0545677817677" cy="292.5335227891405" opacity="0.5985561783347644"></circle><circle r="9.788093593898527" cx="718.2170840529785" cy="600.4091957559205" opacity="0.8504603994424282"></circle><circle r="6.311082427738138" cx="327.75560834430667" cy="102.30835626952701" opacity="0.49716874841608283"></circle><circle r="7.698203064964986" cx="525.8483527654282" cy="324.3887283834451" opacity="0.27467904682477406"></circle><circle r="4.129559814460051" cx="44.860057397138014" cy="332.2937926506665" opacity="0.24334965976332928"></circle><circle r="5.117423864933665" cx="558.6624931475648" cy="384.02010435794386" opacity="0.6826091526814821"></circle><circle r="4.336097101445552" cx="720.8299863487791" cy="176.47696673651956" opacity="0.7120945839953244"></circle><circle r="5.382941924868598" cx="644.6519552106564" cy="119.93756914399539" opacity="0.6812314455213333"></circle><circle r="3.8194968422274145" cx="327.0522621710769" cy="525.2243073324283" opacity="0.3617084717411667"></circle><circle r="9.779326788021912" cx="766.8976057838158" cy="642.0819938176825" opacity="0.4967448764257655"></circle><circle r="5.173988074920184" cx="103.93331587003863" cy="733.2369664130191" opacity="0.28528821819163025"></circle><circle r="4.7957375935315065" cx="191.33654379871166" cy="63.726072388829536" opacity="0.8993441596865254"></circle><circle r="5.909644361735507" cx="377.7903426251434" cy="162.22493894345408" opacity="0.6570458519971561"></circle><circle r="6.526484940661208" cx="567.8382616983099" cy="301.1342155932702" opacity="0.660672289193174"></circle><circle r="6.222318676360029" cx="203.87202674962637" cy="493.29766735201605" opacity="0.6523224374916129"></circle><circle r="8.643386733039197" cx="500.4641487950346" cy="80.66657606130461" opacity="0.8397787420396391"></circle><circle r="4.8075150396430395" cx="420.0563239211706" cy="209.78478054390024" opacity="0.4969119718782721"></circle><circle r="6.782780071482593" cx="244.28452892070987" cy="316.47615749018615" opacity="0.7189562464571493"></circle><circle r="8.444210735988431" cx="543.1079452559653" cy="485.406016731465" opacity="0.9905137747398685"></circle><circle r="6.305321490200287" cx="630.2379303954662" cy="327.40612072773337" opacity="0.7854143613399693"></circle><circle r="2.6068867039719854" cx="446.7069654845174" cy="204.07148960724584" opacity="0.2783359662276461"></circle><circle r="6.037860392920994" cx="600.3696835233166" cy="164.75569853107865" opacity="0.3963853685910772"></circle><circle r="6.495259739595175" cx="215.90601151135075" cy="660.8969408824764" opacity="0.7914411556426464"></circle><circle r="4.404418599521969" cx="657.4005750692821" cy="202.9249590381728" opacity="0.4949514980484315"></circle><circle r="6.632763344511981" cx="681.5465870779" cy="66.30329301822329" opacity="0.3876681628686719"></circle><circle r="3.9049714842970635" cx="31.662358333259697" cy="312.3339751861956" opacity="0.999093147943624"></circle><circle r="4.979226823243769" cx="598.2896202181554" cy="627.7669154059415" opacity="0.39527369757561004"></circle><circle r="2.9558276537547035" cx="791.1097665096057" cy="477.99721625303124" opacity="0.5530055851788029"></circle><circle r="4.470323497394661" cx="753.6971640999112" cy="326.33142877669326" opacity="0.28053690127959596"></circle><circle r="5.102005637144907" cx="79.47109877375284" cy="385.7033735252502" opacity="0.5958204160282873"></circle><circle r="5.097307781925997" cx="321.5570348644391" cy="604.6243949117063" opacity="0.8293942902474262"></circle><circle r="7.844051961790008" cx="354.8292005495613" cy="225.93845988408714" opacity="0.8213440663956223"></circle><circle r="6.320975994914554" cx="367.4300956749338" cy="20.938214688291747" opacity="0.9355377027746388"></circle><circle r="9.310305639837594" cx="727.7518871698794" cy="91.3508439970238" opacity="0.6654067973073643"></circle><circle r="8.629696459029589" cx="372.1955021635483" cy="267.29564006786956" opacity="0.27254077417922085"></circle><circle r="5.347750472155854" cx="696.8659580606571" cy="715.4564618358527" opacity="0.6213580136485486"></circle><circle r="4.005723305671243" cx="137.1522062877917" cy="455.8076882170641" opacity="0.8980165053175837"></circle><circle r="3.4325524442876074" cx="591.0334620975392" cy="101.98412311220508" opacity="0.5224654979768218"></circle><circle r="9.923624270278289" cx="775.5145432004325" cy="753.7802673815911" opacity="0.7165723359599577"></circle><circle r="4.478956018379162" cx="324.9645477247533" cy="303.1010035031486" opacity="0.7893083108746268"></circle><circle r="6.1457066018790485" cx="269.7835903919969" cy="412.92568332811186" opacity="0.3028611629043193"></circle><circle r="4.213003596214978" cx="480.16731589203863" cy="483.5129324175285" opacity="0.14135421816621047"></circle><circle r="7.459384274195631" cx="682.8428689860601" cy="419.5524904817295" opacity="0.5368200104803313"></circle><circle r="5.583324978749724" cx="653.6249810000556" cy="747.2786813862062" opacity="0.11613849717574301"></circle><circle r="4.90426626697939" cx="276.0618174920664" cy="693.3857365804445" opacity="0.9453269842911166"></circle><circle r="4.591269131550032" cx="664.3015891026064" cy="367.3249687764661" opacity="0.8011466537129607"></circle><circle r="7.328195083052238" cx="708.486979827678" cy="17.390805389203077" opacity="0.4400415629975092"></circle><circle r="4.684552424003029" cx="218.28689889062906" cy="129.4360142675636" opacity="0.9128736922014268"></circle><circle r="5.603477457247801" cx="581.3082509069968" cy="357.8293221294614" opacity="0.6693408282100997"></circle><circle r="4.028416599095613" cx="376.59030774558414" cy="360.900665791882" opacity="0.2598023475098735"></circle><circle r="4.859483784748331" cx="319.2316760852246" cy="701.0754021008454" opacity="0.7985594525139589"></circle><circle r="3.5035535868604635" cx="105.06471130065998" cy="369.39467594056305" opacity="0.4215467620464829"></circle><circle r="4.4264890613050705" cx="541.4975951448619" cy="438.4586370455315" opacity="0.20701903621360018"></circle><circle r="5.466463430362962" cx="59.49313438425604" cy="647.7453658924472" opacity="0.4541957240262051"></circle><circle r="4.868556900942449" cx="640.835041289757" cy="301.1315065337895" opacity="0.20976799030814486"></circle><circle r="6.484812642755948" cx="641.1052476902797" cy="90.90976761753454" opacity="0.2661947315037153"></circle><circle r="5.9411821594610865" cx="643.812528975619" cy="710.4929845467983" opacity="0.31875412090600497"></circle><circle r="4.967920860643926" cx="645.9263936125654" cy="274.12731733676156" opacity="0.2696121353161782"></circle><circle r="8.974516735909475" cx="357.43256335264476" cy="709.0573676618667" opacity="0.8574724026003356"></circle><circle r="4.564296181394095" cx="134.82842212768423" cy="206.56277762066668" opacity="0.6819994051566789"></circle><circle r="4.970709795060466" cx="588.1623259700337" cy="219.7409789481189" opacity="0.19084556057604585"></circle><circle r="9.301329500522364" cx="345.88972349410307" cy="141.41578588416073" opacity="0.8872215481513568"></circle><circle r="4.1980121402523265" cx="338.3092195175319" cy="52.940416282274676" opacity="0.4635629015981789"></circle><circle r="4.634937233274493" cx="653.4844250168337" cy="227.8381248290069" opacity="0.41886211026536646"></circle><circle r="7.256683747668151" cx="722.8583552912005" cy="51.97630339564799" opacity="0.7850218790611436"></circle><circle r="10.357891563405943" cx="302.3469465289555" cy="389.40379232416944" opacity="0.44842110348299813"></circle><circle r="6.539781627314635" cx="160.91296618645433" cy="13.810761428429021" opacity="0.16481403797303046"></circle><circle r="5.586632008440816" cx="311.4321490065093" cy="231.258342845121" opacity="0.10577087118584753"></circle><circle r="4.693524987415979" cx="220.53531875994278" cy="247.2185775966736" opacity="0.9437380113956702"></circle><circle r="5.502377006629768" cx="563.4384807057031" cy="457.14352930908257" opacity="0.15274583359810429"></circle><circle r="3.892618448101475" cx="788.0981706844002" cy="12.201222063202446" opacity="0.10765863554100537"></circle><circle r="3.543342008117084" cx="508.03290631280953" cy="270.39962355699595" opacity="0.43682942094780874"></circle><circle r="5.990830104635065" cx="341.2972326127617" cy="481.79571237359886" opacity="0.6390690616884126"></circle><circle r="6.370238217522784" cx="464.42860178358563" cy="293.05810811478847" opacity="0.7220297074299089"></circle><circle r="5.051075736590476" cx="352.794716904459" cy="669.8143527069915" opacity="0.3495496881117547"></circle><circle r="6.154313417661046" cx="129.75999772773855" cy="175.1219867693674" opacity="0.3329665967169098"></circle><circle r="4.659361227399308" cx="324.90578571321475" cy="726.7898246231491" opacity="0.40458930807186455"></circle><circle r="8.28588855895673" cx="279.4156371659374" cy="201.95553506067915" opacity="0.5595259878455802"></circle><circle r="4.577803800450334" cx="619.4039417682958" cy="280.13332735395363" opacity="0.3194194466208425"></circle><circle r="3.687712834385353" cx="381.8797139416364" cy="130.96423489150422" opacity="0.4857382745280715"></circle><circle r="5.6794339123138275" cx="427.9538762102986" cy="654.102471253242" opacity="0.47319901812885434"></circle><circle r="4.722892937197779" cx="51.86224190344454" cy="700.9060455702866" opacity="0.26943476970411817"></circle><circle r="5.790141649559912" cx="319.18339759751865" cy="784.6255874019168" opacity="0.511906644572583"></circle><circle r="5.250837151340392" cx="457.5468797366156" cy="582.1286020067239" opacity="0.1531322706059961"></circle><circle r="6.232756215416542" cx="457.2357465750502" cy="546.1840234226495" opacity="0.6149810944378624"></circle><circle r="7.197739533246237" cx="298.400841455505" cy="273.52746187714297" opacity="0.1403659871738674"></circle><circle r="6.469217626319903" cx="244.9431581062264" cy="351.7137200346154" opacity="0.5968045172632805"></circle><circle r="7.0208293371981" cx="586.0741594877785" cy="321.03160947978836" opacity="0.36396416263558773"></circle><circle r="4.004877667617502" cx="13.058311864805178" cy="580.5541091102241" opacity="0.23702666192802643"></circle><circle r="5.232513144387725" cx="510.4518810041075" cy="247.86068939982357" opacity="0.790466342753182"></circle><circle r="7.825817490174343" cx="121.4711260137546" cy="575.2671941672837" opacity="0.807803553828154"></circle><circle r="5.714917869446557" cx="497.3342012690295" cy="577.6870289066662" opacity="0.6544781940058387"></circle><circle r="5.48136549918733" cx="146.41219467908002" cy="62.42935609519436" opacity="0.14932796213258814"></circle><circle r="4.108822845999003" cx="18.612530873955137" cy="614.7370789813548" opacity="0.6221971639747899"></circle><circle r="7.08906383824416" cx="578.7562365768354" cy="588.5099658618169" opacity="0.6673212634602391"></circle><circle r="5.777926137841161" cx="244.59984955538206" cy="651.8070497707919" opacity="0.5367835145196227"></circle><circle r="8.508915256683588" cx="531.5189937842398" cy="519.4145792134301" opacity="0.9008478302141614"></circle><circle r="5.624315935377293" cx="448.357293232413" cy="30.267345131222644" opacity="0.36530993056755234"></circle><circle r="4.938977056104999" cx="97.05665671136445" cy="215.85902657203926" opacity="0.8717240424954817"></circle><circle r="5.004932950887955" cx="132.97263665576585" cy="397.6669231222378" opacity="0.861658269439989"></circle><circle r="5.1266890748425435" cx="782.4358198529111" cy="218.2023747572146" opacity="0.2183052324601053"></circle><circle r="6.387901174237019" cx="86.91353300417597" cy="594.7856908297507" opacity="0.8231680434190889"></circle><circle r="8.518514040028194" cx="139.31674153988692" cy="779.7486779206868" opacity="0.5753950083071573"></circle><circle r="4.848046678886627" cx="265.1656285378533" cy="59.50408945860664" opacity="0.9044251755772019"></circle><circle r="3.4625292137881964" cx="124.76563304012436" cy="333.89739691949706" opacity="0.7077571567751166"></circle><circle r="4.898697457142516" cx="288.33867749388907" cy="735.8820565011362" opacity="0.9057903634887197"></circle><circle r="7.031765602591232" cx="172.67823585151373" cy="770.1741977773664" opacity="0.37254644939546233"></circle><circle r="6.934664349907873" cx="430.92824050203166" cy="281.91885287045807" opacity="0.48020067504595076"></circle><circle r="4.8956414909101" cx="203.63790307248263" cy="408.50993051464695" opacity="0.41729112114214795"></circle><circle r="7.211937090405035" cx="239.45348856878084" cy="405.6453512546024" opacity="0.8549960257364129"></circle><circle r="7.501351236420123" cx="18.74317587985913" cy="717.0169703881612" opacity="0.4841303317199378"></circle><circle r="6.830103030701531" cx="539.9427550011114" cy="15.291459703723556" opacity="0.7910580676805027"></circle><circle r="5.620326937915159" cx="430.65816189576293" cy="53.24781443481864" opacity="0.4557840366378323"></circle><circle r="4.746338295611316" cx="337.1510387567211" cy="360.6421670464477" opacity="0.5925695096112366"></circle><circle r="5.909163068627754" cx="439.10784659709213" cy="309.5050091553486" opacity="0.5228497483855612"></circle><circle r="4.474260699209999" cx="244.24429420307354" cy="89.4943777336528" opacity="0.25861634251512583"></circle><circle r="6.2868885326382635" cx="637.6183591406835" cy="365.5330200756606" opacity="0.3599504715660451"></circle><circle r="6.3685219818717265" cx="26.432560988147124" cy="123.74227539131645" opacity="0.12216987056603512"></circle><circle r="5.761486817458712" cx="41.69084228245398" cy="364.4738111184147" opacity="0.8223780745562015"></circle><circle r="4.291610210332129" cx="564.8695745240118" cy="424.6279957831096" opacity="0.6034132707959252"></circle><circle r="4.770935613163728" cx="205.15911103294204" cy="773.183487149452" opacity="0.883267811622747"></circle><circle r="4.358479162945226" cx="359.7106425977355" cy="763.7229757574927" opacity="0.9009212706068513"></circle><circle r="5.56203453420844" cx="122.44060506417681" cy="260.265759771383" opacity="0.8927242906394407"></circle><circle r="3.3836667993973935" cx="453.0015055899976" cy="257.81863320095175" opacity="0.91601430749005"></circle><circle r="5.937299490878937" cx="550.2555622174187" cy="635.8165879690566" opacity="0.819691985784676"></circle><circle r="4.406624234237296" cx="608.8865249357038" cy="345.11516637548675" opacity="0.8789833860685689"></circle><circle r="6.069995832686388" cx="506.6410871688088" cy="482.5770431988986" opacity="0.24790915235949565"></circle><circle r="4.097003638449097" cx="434.5664982972713" cy="761.1993918635236" opacity="0.9297860977846418"></circle><circle r="4.670670457788594" cx="433.20667332519446" cy="559.0814194563707" opacity="0.9147700771341563"></circle><circle r="7.493186504727557" cx="452.6758276253557" cy="679.1522089443829" opacity="0.6191871243775566"></circle><circle r="3.919297081936768" cx="64.15865999205613" cy="414.49973091247114" opacity="0.43474690323394594"></circle><circle r="6.887231397553726" cx="243.45224221419952" cy="688.0481199131418" opacity="0.7646189450783347"></circle><circle r="8.090611910834959" cx="399.42072872693075" cy="300.59294913148784" opacity="0.922864087821415"></circle><circle r="3.70258639513766" cx="569.8423701649461" cy="162.7286657350816" opacity="0.8715873028118301"></circle><circle r="3.756559237136008" cx="26.447030912326305" cy="266.7263591373636" opacity="0.2429200699818231"></circle><circle r="5.8077030159297225" cx="541.1853802167742" cy="602.4080868835405" opacity="0.554597305602629"></circle><circle r="4.011291489825032" cx="534.6785424633797" cy="258.64615623801836" opacity="0.2492228239133901"></circle><circle r="8.413778062015169" cx="700.8355994699324" cy="462.7427733444086" opacity="0.7281376401732613"></circle><circle r="3.2560188997705812" cx="436.3705958869907" cy="343.46323146904945" opacity="0.23306500729760726"></circle><circle r="8.095839502310723" cx="181.97665550496473" cy="217.45531223543543" opacity="0.932815767585575"></circle><circle r="8.30695899673263" cx="19.912443002858193" cy="437.46348955797885" opacity="0.6087624169720712"></circle><circle r="4.500667767342697" cx="237.82055804832177" cy="442.4048686757781" opacity="0.7301018093286348"></circle><circle r="4.181149086630725" cx="223.24343958268113" cy="70.5339233933575" opacity="0.4932245319720253"></circle><circle r="9.135253260543799" cx="113.90996319758843" cy="94.39563750588474" opacity="0.9865093335261425"></circle><circle r="7.400790875120323" cx="201.62610429624715" cy="101.38312014662013" opacity="0.28941631091663467"></circle><circle r="5.418215666226193" cx="374.4938864058039" cy="552.876795877895" opacity="0.9176903047712552"></circle><circle r="3.887402822932988" cx="276.67243936790004" cy="340.09835411141086" opacity="0.7147189052569354"></circle><circle r="8.159630937746794" cx="336.9090502820007" cy="265.9144097655151" opacity="0.6353811819930831"></circle><circle r="3.073986399691454" cx="494.360172444227" cy="237.8070770139929" opacity="0.32716887108125514"></circle><circle r="5.17323983913834" cx="710.8599431429924" cy="129.39876167356107" opacity="0.5537750508548165"></circle><circle r="2.790505761873802" cx="318.5715425360335" cy="502.55975554711534" opacity="0.27973713796415534"></circle><circle r="3.673501076363064" cx="482.73162021283594" cy="270.50299656766487" opacity="0.1675979728527"></circle><circle r="4.6974965486515385" cx="405.9461949940784" cy="640.3250773319495" opacity="0.32173962198551864"></circle><circle r="5.0241058376694285" cx="451.8590483732951" cy="615.0541856394769" opacity="0.7035386504515622"></circle><circle r="4.641226341438773" cx="645.7906322035799" cy="550.796378921472" opacity="0.25838832313061666"></circle><circle r="4.63884319604339" cx="199.85857834554196" cy="32.113883568722876" opacity="0.6595978626959959"></circle><circle r="8.415617286776577" cx="603.0156938567278" cy="550.6315909916063" opacity="0.6412328338437767"></circle><circle r="3.7302849588848837" cx="782.6909453707781" cy="404.0204615008483" opacity="0.6655703862861251"></circle><circle r="6.000816000230069" cx="451.6844698550679" cy="169.3245448227741" opacity="0.9831880080255533"></circle><circle r="7.198986622597962" cx="482.8932090534506" cy="325.41071305043397" opacity="0.6096661892372975"></circle><circle r="8.005489808207647" cx="683.3014633957342" cy="146.69158350290306" opacity="0.30374784230604174"></circle><circle r="5.141218444519238" cx="169.5391182080022" cy="39.805818618841684" opacity="0.9532232507464597"></circle><circle r="6.608946234087748" cx="20.210862111133864" cy="481.83465048607843" opacity="0.6409652001169645"></circle><circle r="4.658085993724129" cx="246.0652842434304" cy="621.3906305373779" opacity="0.36072338993817454"></circle><circle r="5.862620469925418" cx="773.7734535914975" cy="466.50441510457296" opacity="0.9131949215481701"></circle><circle r="7.391826552565979" cx="414.27825883054686" cy="175.67456302835245" opacity="0.8636963514460138"></circle><circle r="5.847497125993279" cx="235.66228059714007" cy="476.27537776209033" opacity="0.19730420834161572"></circle><circle r="4.672919271099028" cx="165.76086763970045" cy="172.59404246475935" opacity="0.9295845968341532"></circle><circle r="8.476168624354543" cx="653.8086475764702" cy="456.6530460256241" opacity="0.5685449340916815"></circle><circle r="3.2151505339408186" cx="698.1935710962874" cy="787.2213457946834" opacity="0.9263934921900477"></circle><circle r="5.489902361901384" cx="295.5056231652704" cy="19.703975964625585" opacity="0.9194397162610356"></circle><circle r="5.810521409903125" cx="49.108738609377376" cy="198.56476397175604" opacity="0.6848716338725523"></circle><circle r="4.3123853309776905" cx="525.4519980325254" cy="203.31185983969291" opacity="0.47626230918003576"></circle><circle r="4.287340792149065" cx="443.4156654976697" cy="233.76791242327315" opacity="0.5816916051190104"></circle><circle r="5.892443702715008" cx="545.8331446255712" cy="564.1295128056754" opacity="0.5830396591257749"></circle><circle r="5.412965932851578" cx="774.4917302455365" cy="598.7697573534911" opacity="0.6606086033105348"></circle><circle r="6.457499825100904" cx="29.88255657873737" cy="560.0184483382717" opacity="0.7368211761261507"></circle><circle r="3.8575442905262687" cx="724.2274935449605" cy="396.55367922772075" opacity="0.30526486236307593"></circle><circle r="3.4676804016771774" cx="558.3976041303998" cy="111.45422143133882" opacity="0.2938451621392457"></circle><circle r="4.9352527489546505" cx="546.1165317364186" cy="782.7711472469064" opacity="0.4130555902114722"></circle><circle r="7.532433011835133" cx="165.32760699346784" cy="340.35264351715944" opacity="0.9137585521637722"></circle><circle r="6.425014547429048" cx="526.6286735599513" cy="105.52633135372889" opacity="0.6103391928219134"></circle><circle r="4.301601989533686" cx="611.0101069306585" cy="473.3279134099798" opacity="0.27192486864430915"></circle><circle r="4.877315413298655" cx="610.46716914437" cy="305.70223742899014" opacity="0.47364837859447595"></circle><circle r="3.1075676067859543" cx="392.1102194790334" cy="381.8363224589145" opacity="0.9061581603752815"></circle><circle r="7.122326478157609" cx="779.6296822139092" cy="259.12643036696863" opacity="0.500545361876542"></circle><circle r="5.535266987707219" cx="249.74526245504762" cy="115.8479977296565" opacity="0.2616457903863336"></circle><circle r="5.061447169012956" cx="631.8776689156723" cy="521.1252994084871" opacity="0.30272567851998333"></circle><circle r="4.647646300743835" cx="606.3464832691279" cy="761.0531894404501" opacity="0.5988371736390306"></circle><circle r="5.09903938377285" cx="380.2353772785824" cy="404.7770833677501" opacity="0.6719763683930887"></circle><circle r="5.2834635225404405" cx="543.4308942098689" cy="739.3471704276483" opacity="0.5520325768663522"></circle><circle r="3.7189822921140396" cx="787.7047973697219" cy="439.4170601186202" opacity="0.40837081013676524"></circle><circle r="5.885956161457236" cx="498.3442078829696" cy="177.28255273085838" opacity="0.20455213923374396"></circle><circle r="5.3074600714905795" cx="665.590248878315" cy="527.5985909889002" opacity="0.49721937503231795"></circle><circle r="3.2626441387902316" cx="414.37473821639594" cy="748.2781983735197" opacity="0.34197227385840645"></circle><circle r="6.235243864337773" cx="620.8143451943234" cy="598.5705417557117" opacity="0.9652125232054157"></circle><circle r="4.010815489552322" cx="229.12937457225732" cy="38.4440906899062" opacity="0.27916983900180237"></circle><circle r="3.964245744127477" cx="386.1740197676694" cy="572.3294105064393" opacity="0.7991666727398233"></circle><circle r="5.343491580169702" cx="476.67758095705585" cy="108.68043788069983" opacity="0.505889955162555"></circle><circle r="5.220583762191976" cx="535.1673413185636" cy="701.0901377583625" opacity="0.5763036653948499"></circle><circle r="11.920035331368684" cx="716.9667623592752" cy="662.5547426462526" opacity="0.7345888185547823"></circle><circle r="3.188946481362868" cx="152.02411420392284" cy="309.78703710188756" opacity="0.7074467301133992"></circle><circle r="3.215497645472861" cx="693.5755841946468" cy="240.23567165236096" opacity="0.28113729248671615"></circle><circle r="3.890530642238925" cx="457.9129176962204" cy="520.574104371011" opacity="0.31877813019026374"></circle><circle r="3.7876703355860752" cx="509.0944118478511" cy="392.83321346173705" opacity="0.9027177928833485"></circle><circle r="7.975644379866393" cx="534.7473961803909" cy="170.1629711432301" opacity="0.8152465271494482"></circle><circle r="8.209575011560199" cx="104.50450418734495" cy="55.60712599137198" opacity="0.1126068991751712"></circle><circle r="8.296880255105286" cx="690.1246611061184" cy="379.95280198488695" opacity="0.6330976407164827"></circle><circle r="10.137773464218435" cx="171.94736762963058" cy="663.3722321067272" opacity="0.9601646030296807"></circle><circle r="3.5486728344190763" cx="408.5147109623413" cy="374.3849378634237" opacity="0.6331165545291744"></circle><circle r="8.27320069891886" cx="770.322321898375" cy="86.05912945955815" opacity="0.3986424221340795"></circle><circle r="3.5762277960533355" cx="466.1349430465287" cy="190.634651162743" opacity="0.27814609519444755"></circle><circle r="6.281617166700542" cx="291.64900906676894" cy="545.6390123047862" opacity="0.8985378599584115"></circle><circle r="5.439517714318626" cx="286.2064527478458" cy="307.1216134959554" opacity="0.2672901558814246"></circle><circle r="4.119532715906371" cx="578.1701460840545" cy="689.3089752965335" opacity="0.3610829830669895"></circle><circle r="6.398975357405472" cx="730.600020111652" cy="218.23373215284258" opacity="0.11023462967203856"></circle><circle r="4.712538928584379" cx="389.6193459125021" cy="765.4204194305424" opacity="0.8864745986528667"></circle><circle r="8.089499542084408" cx="253.79881069256646" cy="544.0587815803804" opacity="0.10093320986523283"></circle><circle r="5.415927445016032" cx="599.6034081026377" cy="677.762560812007" opacity="0.5726460544168578"></circle><circle r="8.745216918473801" cx="231.87866079679958" cy="514.2375727131523" opacity="0.2917868586507564"></circle><circle r="4.952277566819075" cx="754.9647370716194" cy="234.98063597392718" opacity="0.5924555675818466"></circle><circle r="4.164731391626009" cx="9.507859670359998" cy="315.70583706422525" opacity="0.9926195897734259"></circle><circle r="5.1938796329256665" cx="376.0071009100084" cy="490.6191982623886" opacity="0.5506718882564351"></circle><circle r="5.491198663380687" cx="207.9947266553958" cy="432.1834375398689" opacity="0.16521018984579683"></circle><circle r="6.5885940868786514" cx="365.052224690546" cy="520.8470657735385" opacity="0.8731837292847993"></circle><circle r="6.185921971426962" cx="267.705682589038" cy="142.64564285781577" opacity="0.12435111969251106"></circle><circle r="3.4451088473290388" cx="572.7379167531084" cy="190.2537910595295" opacity="0.5023398490251283"></circle><circle r="4.146322594711515" cx="255.20604022384924" cy="475.04005227939564" opacity="0.8815365784171928"></circle><circle r="6.499588276847097" cx="414.499555234883" cy="724.9854029337039" opacity="0.9962637856351583"></circle><circle r="4.490913719000077" cx="91.44082164648756" cy="324.8154397486054" opacity="0.13378412147190652"></circle><circle r="4.875304458285049" cx="471.31199635072795" cy="53.84373230946493" opacity="0.19927226360261088"></circle><circle r="6.408462289317181" cx="189.8315798154427" cy="266.0779801531711" opacity="0.2142648253954769"></circle><circle r="8.170084348773742" cx="16.334263788304057" cy="212.94720150641535" opacity="0.279707488023961"></circle><circle r="6.357852034374437" cx="98.23931104035945" cy="629.007189441586" opacity="0.5018522649374807"></circle><circle r="2.180856111688264" cx="304.4799139428114" cy="486.34037430918113" opacity="0.7583225720652433"></circle><circle r="3.8380250523374633" cx="476.49801668084757" cy="531.5872602942401" opacity="0.25188169620856826"></circle><circle r="5.186194173509609" cx="382.9035203573542" cy="656.0499504815391" opacity="0.37087462238586644"></circle><circle r="4.612866265298079" cx="582.6440163313268" cy="397.86533774977477" opacity="0.9239502421646286"></circle><circle r="6.0904525806175736" cx="127.57562317822247" cy="487.21761159309995" opacity="0.6437672580662657"></circle><circle r="4.7203639593431355" cx="29.035740568606712" cy="288.2695282928937" opacity="0.8907369324459786"></circle><circle r="6.2237150950382" cx="124.96491413802254" cy="691.7187187190927" opacity="0.8894521455676582"></circle><circle r="3.9762047071356093" cx="362.36603337231304" cy="380.940066458385" opacity="0.7549487411578073"></circle><circle r="4.723157876993222" cx="157.38810882764926" cy="273.03364117584925" opacity="0.3496252873842052"></circle><circle r="3.4297962925247703" cx="426.28961557849794" cy="124.61005930743679" opacity="0.7915410887815876"></circle><circle r="4.243383566072072" cx="659.2138301069375" cy="176.79756397218847" opacity="0.3531658962302374"></circle><circle r="5.773489510943649" cx="518.1149994206875" cy="758.6470320997654" opacity="0.9619758977074475"></circle><circle r="7.947551615325006" cx="256.72673596066454" cy="18.63559215696936" opacity="0.10778412577777545"></circle><circle r="4.281019042551973" cx="588.3657634556465" cy="430.7368679234427" opacity="0.6858377244846395"></circle><circle r="5.94003693675288" cx="234.20865967947006" cy="585.179694960716" opacity="0.5607542923306467"></circle><circle r="4.185575408397375" cx="435.890204110558" cy="482.5184827760959" opacity="0.24135538843576276"></circle><circle r="6.570541994607973" cx="742.6365720638627" cy="462.57405771738934" opacity="0.6826896568105282"></circle><circle r="8.144448235047363" cx="73.69774746977525" cy="479.5787021321379" opacity="0.5306573572641252"></circle><circle r="6.0815548796258465" cx="215.19424000239937" cy="626.2791954881849" opacity="0.930627493935188"></circle><circle r="7.781957752854996" cx="160.47724691910122" cy="586.9797847231965" opacity="0.5660332480597645"></circle><circle r="6.664886250010811" cx="170.00978663391658" cy="473.10627398037576" opacity="0.5836385372992238"></circle><circle r="3.5874553571511094" cx="489.9981010137951" cy="548.5166571316885" opacity="0.3679105112161952"></circle><circle r="4.259736521656506" cx="367.8646851574804" cy="335.29553539591467" opacity="0.263017282065116"></circle><circle r="4.651424753684971" cx="653.7457665439365" cy="575.7120532191459" opacity="0.42793438980004717"></circle><circle r="4.114023865177051" cx="195.64362553710654" cy="341.90910112192256" opacity="0.9650033275376712"></circle><circle r="3.908245820131268" cx="681.407982548966" cy="291.7552046034248" opacity="0.7855326915547415"></circle><circle r="2.632349881717307" cx="631.3029144121094" cy="689.0612099048423" opacity="0.25185871421579875"></circle><circle r="5.866518091925003" cx="717.5200689566797" cy="498.00698693070586" opacity="0.2669204388486338"></circle><circle r="5.509838267292139" cx="761.9347967360568" cy="426.92388372948056" opacity="0.21911525475845373"></circle><circle r="4.426808042857724" cx="298.17704920267244" cy="629.1061437478081" opacity="0.6796986597348096"></circle><circle r="4.1971875604478575" cx="677.3734946464206" cy="765.3920346536337" opacity="0.27619907366141827"></circle><circle r="6.786276763900923" cx="379.9883269231892" cy="196.63833224877456" opacity="0.6154097319829401"></circle><circle r="12.041818554157832" cx="765.0560352076125" cy="695.9793560984808" opacity="0.5987082156954455"></circle><circle r="8.7766691006522" cx="716.7364881002188" cy="747.7247625229178" opacity="0.8906757886792905"></circle><circle r="3.606407861585852" cx="567.8788244148071" cy="87.41780164538648" opacity="0.9095522691349507"></circle><circle r="3.543847773326478" cx="472.56339087449345" cy="226.58107177854885" opacity="0.43179983614875406"></circle><circle r="4.596383419759125" cx="81.79239531102007" cy="674.5074269958099" opacity="0.46224106218142136"></circle><circle r="5.1470149760103086" cx="410.0743536605639" cy="500.206157848738" opacity="0.5187488906444918"></circle><circle r="7.399370763706043" cx="285.82929234102477" cy="96.63570834396103" opacity="0.8195610705759827"></circle><circle r="4.3826749393022455" cx="51.96003199684317" cy="508.41441850150704" opacity="0.591318524339807"></circle><circle r="3.849805097400986" cx="275.4654864265846" cy="464.9059791242322" opacity="0.25495711394582155"></circle><circle r="4.368201306635918" cx="23.43940973415687" cy="399.2172032153278" opacity="0.11736004653188763"></circle><circle r="4.612466882608708" cx="358.7328505691765" cy="452.68110049207917" opacity="0.9694325255609489"></circle><circle r="3.0761987839644958" cx="627.3859688824367" cy="726.7700610989275" opacity="0.6888451034809557"></circle><circle r="6.888785034665769" cx="572.7839241084067" cy="724.0194796175228" opacity="0.640675365890061"></circle><circle r="4.872902530173046" cx="534.4093796367412" cy="66.78513456377858" opacity="0.3287223765169806"></circle><circle r="3.910080872786118" cx="576.528441425502" cy="239.84599814160396" opacity="0.19973175172329602"></circle><circle r="6.947751513302342" cx="682.3323778325381" cy="105.21366057437112" opacity="0.11833277144126675"></circle><circle r="2.7624911663081866" cx="374.6417009017101" cy="592.2554855126335" opacity="0.7775829674310569"></circle><circle r="10.64710683835243" cx="68.66562121240027" cy="27.439413100700012" opacity="0.15784629588243418"></circle><circle r="4.514242720195056" cx="74.65271305137624" cy="353.72512817354914" opacity="0.8338812205765125"></circle><circle r="4.579455840122185" cx="686.1918099573079" cy="634.5239195619108" opacity="0.635953536087722"></circle><circle r="6.097096172694073" cx="274.31297910162795" cy="615.529802996348" opacity="0.15772061576449725"></circle><circle r="5.487323904710623" cx="363.2923906919823" cy="74.51825716389185" opacity="0.12162918142177503"></circle><circle r="5.2989049784507385" cx="155.0768854736703" cy="375.44678060237925" opacity="0.4773168156645733"></circle><circle r="5.313698419523656" cx="641.0901341739818" cy="414.9869235341791" opacity="0.676074434675341"></circle><circle r="8.116603518040382" cx="642.772313871557" cy="59.73056247443514" opacity="0.19066425973060824"></circle><circle r="4.162637243671007" cx="181.9257279682892" cy="438.22230473856047" opacity="0.947718384763816"></circle><circle r="2.996384801665854" cx="154.96687369594855" cy="440.0543536396868" opacity="0.2112400066621659"></circle><circle r="4.375941547154295" cx="555.3562852663325" cy="339.74173004289617" opacity="0.9781391570986859"></circle><circle r="7.254430354957691" cx="781.234869625473" cy="297.12511488283434" opacity="0.8987325978327425"></circle><circle r="6.619538147050066" cx="209.4556320895583" cy="189.12267615942167" opacity="0.4248879324146234"></circle><circle r="7.267606139081739" cx="616.0158730438535" cy="139.37239105272826" opacity="0.5012587036487031"></circle><circle r="4.058863108500223" cx="686.6752220626843" cy="511.86046688455565" opacity="0.6314245502748931"></circle><circle r="4.180534883271705" cx="584.7753878332991" cy="133.92967224227593" opacity="0.8728042331319159"></circle><circle r="7.783457580863857" cx="649.5224603748146" cy="627.5374373713437" opacity="0.8387208366419514"></circle><circle r="3.5003906280591224" cx="536.741742882215" cy="232.3810283679733" opacity="0.4653685813725603"></circle><circle r="3.757098263446953" cx="6.985719431328279" cy="282.1203541404759" opacity="0.614680793095064"></circle><circle r="5.431230889367773" cx="209.11031692342345" cy="463.78707989445377" opacity="0.5496369160127438"></circle><circle r="4.068425048042084" cx="628.8001096667414" cy="10.678798208035914" opacity="0.6699547839979745"></circle><circle r="5.452683764976778" cx="776.8463775548246" cy="138.55247499507146" opacity="0.5312556950327432"></circle><circle r="4.6503292455115295" cx="397.6324024045994" cy="531.4586500977663" opacity="0.10758322979279135"></circle><circle r="3.4449081207688623" cx="608.6331771339628" cy="653.8926704511757" opacity="0.12221264137590643"></circle><circle r="8.651222394383735" cx="96.04740999220503" cy="524.1224493288554" opacity="0.19803934694416175"></circle><circle r="4.503356877168789" cx="527.4874343037088" cy="139.2650514901756" opacity="0.38744415737988713"></circle><circle r="4.379894563308458" cx="744.4888654478456" cy="286.682812602647" opacity="0.28663661418414643"></circle><circle r="7.92132114637789" cx="698.0225447455628" cy="555.6941775518638" opacity="0.8320736881870113"></circle></g></svg>