<svg xmlns="http://www.w3.org/2000/svg" version="1.1" xmlns:xlink="http://www.w3.org/1999/xlink" xmlns:svgjs="http://svgjs.dev/svgjs" viewBox="0 0 800 800" opacity="0.66"><defs><linearGradient gradientTransform="rotate(270)" x1="50%" y1="0%" x2="50%" y2="100%" id="sssquiggly-grad"><stop stop-color="#23405a" stop-opacity="1" offset="0%"></stop><stop stop-color="#aac5e5" stop-opacity="1" offset="100%"></stop></linearGradient></defs><g stroke-width="2" stroke="url(#sssquiggly-grad)" fill="none" stroke-linecap="round" transform="matrix(1,0,0,1,-5,-253.38433647155762)"><path d="M10,10C28.75,13.333333333333332,60.416666666666664,30.583333333333332,100,26C139.58333333333334,21.416666666666668,158.33333333333331,-11.791666666666666,200,-12C241.66666666666669,-12.208333333333334,258.3333333333333,23.125,300,25C341.6666666666667,26.875,358.3333333333333,-2.7916666666666665,400,-3C441.6666666666667,-3.2083333333333335,458.3333333333333,24.416666666666668,500,24C541.6666666666666,23.583333333333332,558.3333333333334,-5,600,-5C641.6666666666666,-5,658.3333333333334,24.625,700,24C741.6666666666666,23.375,779.1666666666666,-1.333333333333334,800,-8"></path><path d="M10,10C28.75,13.333333333333332,60.416666666666664,30.583333333333332,100,26C139.58333333333334,21.416666666666668,158.33333333333331,-11.791666666666666,200,-12C241.66666666666669,-12.208333333333334,258.3333333333333,23.125,300,25C341.6666666666667,26.875,358.3333333333333,-2.7916666666666665,400,-3C441.6666666666667,-3.2083333333333335,458.3333333333333,24.416666666666668,500,24C541.6666666666666,23.583333333333332,558.3333333333334,-5,600,-5C641.6666666666666,-5,658.3333333333334,24.625,700,24C741.6666666666666,23.375,779.1666666666666,-1.333333333333334,800,-8" transform="matrix(1,0,0,1,0,1292)"></path><path d="M10,10C28.75,13.333333333333332,60.416666666666664,30.583333333333332,100,26C139.58333333333334,21.416666666666668,158.33333333333331,-11.791666666666666,200,-12C241.66666666666669,-12.208333333333334,258.3333333333333,23.125,300,25C341.6666666666667,26.875,358.3333333333333,-2.7916666666666665,400,-3C441.6666666666667,-3.2083333333333335,458.3333333333333,24.416666666666668,500,24C541.6666666666666,23.583333333333332,558.3333333333334,-5,600,-5C641.6666666666666,-5,658.3333333333334,24.625,700,24C741.6666666666666,23.375,779.1666666666666,-1.333333333333334,800,-8" transform="matrix(1,0,0,1,0,1224)"></path><path d="M10,10C28.75,13.333333333333332,60.416666666666664,30.583333333333332,100,26C139.58333333333334,21.416666666666668,158.33333333333331,-11.791666666666666,200,-12C241.66666666666669,-12.208333333333334,258.3333333333333,23.125,300,25C341.6666666666667,26.875,358.3333333333333,-2.7916666666666665,400,-3C441.6666666666667,-3.2083333333333335,458.3333333333333,24.416666666666668,500,24C541.6666666666666,23.583333333333332,558.3333333333334,-5,600,-5C641.6666666666666,-5,658.3333333333334,24.625,700,24C741.6666666666666,23.375,779.1666666666666,-1.333333333333334,800,-8" transform="matrix(1,0,0,1,0,1156)"></path><path d="M10,10C28.75,13.333333333333332,60.416666666666664,30.583333333333332,100,26C139.58333333333334,21.416666666666668,158.33333333333331,-11.791666666666666,200,-12C241.66666666666669,-12.208333333333334,258.3333333333333,23.125,300,25C341.6666666666667,26.875,358.3333333333333,-2.7916666666666665,400,-3C441.6666666666667,-3.2083333333333335,458.3333333333333,24.416666666666668,500,24C541.6666666666666,23.583333333333332,558.3333333333334,-5,600,-5C641.6666666666666,-5,658.3333333333334,24.625,700,24C741.6666666666666,23.375,779.1666666666666,-1.333333333333334,800,-8" transform="matrix(1,0,0,1,0,1088)"></path><path d="M10,10C28.75,13.333333333333332,60.416666666666664,30.583333333333332,100,26C139.58333333333334,21.416666666666668,158.33333333333331,-11.791666666666666,200,-12C241.66666666666669,-12.208333333333334,258.3333333333333,23.125,300,25C341.6666666666667,26.875,358.3333333333333,-2.7916666666666665,400,-3C441.6666666666667,-3.2083333333333335,458.3333333333333,24.416666666666668,500,24C541.6666666666666,23.583333333333332,558.3333333333334,-5,600,-5C641.6666666666666,-5,658.3333333333334,24.625,700,24C741.6666666666666,23.375,779.1666666666666,-1.333333333333334,800,-8" transform="matrix(1,0,0,1,0,1020)"></path><path d="M10,10C28.75,13.333333333333332,60.416666666666664,30.583333333333332,100,26C139.58333333333334,21.416666666666668,158.33333333333331,-11.791666666666666,200,-12C241.66666666666669,-12.208333333333334,258.3333333333333,23.125,300,25C341.6666666666667,26.875,358.3333333333333,-2.7916666666666665,400,-3C441.6666666666667,-3.2083333333333335,458.3333333333333,24.416666666666668,500,24C541.6666666666666,23.583333333333332,558.3333333333334,-5,600,-5C641.6666666666666,-5,658.3333333333334,24.625,700,24C741.6666666666666,23.375,779.1666666666666,-1.333333333333334,800,-8" transform="matrix(1,0,0,1,0,952)"></path><path d="M10,10C28.75,13.333333333333332,60.416666666666664,30.583333333333332,100,26C139.58333333333334,21.416666666666668,158.33333333333331,-11.791666666666666,200,-12C241.66666666666669,-12.208333333333334,258.3333333333333,23.125,300,25C341.6666666666667,26.875,358.3333333333333,-2.7916666666666665,400,-3C441.6666666666667,-3.2083333333333335,458.3333333333333,24.416666666666668,500,24C541.6666666666666,23.583333333333332,558.3333333333334,-5,600,-5C641.6666666666666,-5,658.3333333333334,24.625,700,24C741.6666666666666,23.375,779.1666666666666,-1.333333333333334,800,-8" transform="matrix(1,0,0,1,0,884)"></path><path d="M10,10C28.75,13.333333333333332,60.416666666666664,30.583333333333332,100,26C139.58333333333334,21.416666666666668,158.33333333333331,-11.791666666666666,200,-12C241.66666666666669,-12.208333333333334,258.3333333333333,23.125,300,25C341.6666666666667,26.875,358.3333333333333,-2.7916666666666665,400,-3C441.6666666666667,-3.2083333333333335,458.3333333333333,24.416666666666668,500,24C541.6666666666666,23.583333333333332,558.3333333333334,-5,600,-5C641.6666666666666,-5,658.3333333333334,24.625,700,24C741.6666666666666,23.375,779.1666666666666,-1.333333333333334,800,-8" transform="matrix(1,0,0,1,0,816)"></path><path d="M10,10C28.75,13.333333333333332,60.416666666666664,30.583333333333332,100,26C139.58333333333334,21.416666666666668,158.33333333333331,-11.791666666666666,200,-12C241.66666666666669,-12.208333333333334,258.3333333333333,23.125,300,25C341.6666666666667,26.875,358.3333333333333,-2.7916666666666665,400,-3C441.6666666666667,-3.2083333333333335,458.3333333333333,24.416666666666668,500,24C541.6666666666666,23.583333333333332,558.3333333333334,-5,600,-5C641.6666666666666,-5,658.3333333333334,24.625,700,24C741.6666666666666,23.375,779.1666666666666,-1.333333333333334,800,-8" transform="matrix(1,0,0,1,0,748)"></path><path d="M10,10C28.75,13.333333333333332,60.416666666666664,30.583333333333332,100,26C139.58333333333334,21.416666666666668,158.33333333333331,-11.791666666666666,200,-12C241.66666666666669,-12.208333333333334,258.3333333333333,23.125,300,25C341.6666666666667,26.875,358.3333333333333,-2.7916666666666665,400,-3C441.6666666666667,-3.2083333333333335,458.3333333333333,24.416666666666668,500,24C541.6666666666666,23.583333333333332,558.3333333333334,-5,600,-5C641.6666666666666,-5,658.3333333333334,24.625,700,24C741.6666666666666,23.375,779.1666666666666,-1.333333333333334,800,-8" transform="matrix(1,0,0,1,0,680)"></path><path d="M10,10C28.75,13.333333333333332,60.416666666666664,30.583333333333332,100,26C139.58333333333334,21.416666666666668,158.33333333333331,-11.791666666666666,200,-12C241.66666666666669,-12.208333333333334,258.3333333333333,23.125,300,25C341.6666666666667,26.875,358.3333333333333,-2.7916666666666665,400,-3C441.6666666666667,-3.2083333333333335,458.3333333333333,24.416666666666668,500,24C541.6666666666666,23.583333333333332,558.3333333333334,-5,600,-5C641.6666666666666,-5,658.3333333333334,24.625,700,24C741.6666666666666,23.375,779.1666666666666,-1.333333333333334,800,-8" transform="matrix(1,0,0,1,0,612)"></path><path d="M10,10C28.75,13.333333333333332,60.416666666666664,30.583333333333332,100,26C139.58333333333334,21.416666666666668,158.33333333333331,-11.791666666666666,200,-12C241.66666666666669,-12.208333333333334,258.3333333333333,23.125,300,25C341.6666666666667,26.875,358.3333333333333,-2.7916666666666665,400,-3C441.6666666666667,-3.2083333333333335,458.3333333333333,24.416666666666668,500,24C541.6666666666666,23.583333333333332,558.3333333333334,-5,600,-5C641.6666666666666,-5,658.3333333333334,24.625,700,24C741.6666666666666,23.375,779.1666666666666,-1.333333333333334,800,-8" transform="matrix(1,0,0,1,0,544)"></path><path d="M10,10C28.75,13.333333333333332,60.416666666666664,30.583333333333332,100,26C139.58333333333334,21.416666666666668,158.33333333333331,-11.791666666666666,200,-12C241.66666666666669,-12.208333333333334,258.3333333333333,23.125,300,25C341.6666666666667,26.875,358.3333333333333,-2.7916666666666665,400,-3C441.6666666666667,-3.2083333333333335,458.3333333333333,24.416666666666668,500,24C541.6666666666666,23.583333333333332,558.3333333333334,-5,600,-5C641.6666666666666,-5,658.3333333333334,24.625,700,24C741.6666666666666,23.375,779.1666666666666,-1.333333333333334,800,-8" transform="matrix(1,0,0,1,0,476)"></path><path d="M10,10C28.75,13.333333333333332,60.416666666666664,30.583333333333332,100,26C139.58333333333334,21.416666666666668,158.33333333333331,-11.791666666666666,200,-12C241.66666666666669,-12.208333333333334,258.3333333333333,23.125,300,25C341.6666666666667,26.875,358.3333333333333,-2.7916666666666665,400,-3C441.6666666666667,-3.2083333333333335,458.3333333333333,24.416666666666668,500,24C541.6666666666666,23.583333333333332,558.3333333333334,-5,600,-5C641.6666666666666,-5,658.3333333333334,24.625,700,24C741.6666666666666,23.375,779.1666666666666,-1.333333333333334,800,-8" transform="matrix(1,0,0,1,0,408)"></path><path d="M10,10C28.75,13.333333333333332,60.416666666666664,30.583333333333332,100,26C139.58333333333334,21.416666666666668,158.33333333333331,-11.791666666666666,200,-12C241.66666666666669,-12.208333333333334,258.3333333333333,23.125,300,25C341.6666666666667,26.875,358.3333333333333,-2.7916666666666665,400,-3C441.6666666666667,-3.2083333333333335,458.3333333333333,24.416666666666668,500,24C541.6666666666666,23.583333333333332,558.3333333333334,-5,600,-5C641.6666666666666,-5,658.3333333333334,24.625,700,24C741.6666666666666,23.375,779.1666666666666,-1.333333333333334,800,-8" transform="matrix(1,0,0,1,0,340)"></path><path d="M10,10C28.75,13.333333333333332,60.416666666666664,30.583333333333332,100,26C139.58333333333334,21.416666666666668,158.33333333333331,-11.791666666666666,200,-12C241.66666666666669,-12.208333333333334,258.3333333333333,23.125,300,25C341.6666666666667,26.875,358.3333333333333,-2.7916666666666665,400,-3C441.6666666666667,-3.2083333333333335,458.3333333333333,24.416666666666668,500,24C541.6666666666666,23.583333333333332,558.3333333333334,-5,600,-5C641.6666666666666,-5,658.3333333333334,24.625,700,24C741.6666666666666,23.375,779.1666666666666,-1.333333333333334,800,-8" transform="matrix(1,0,0,1,0,272)"></path><path d="M10,10C28.75,13.333333333333332,60.416666666666664,30.583333333333332,100,26C139.58333333333334,21.416666666666668,158.33333333333331,-11.791666666666666,200,-12C241.66666666666669,-12.208333333333334,258.3333333333333,23.125,300,25C341.6666666666667,26.875,358.3333333333333,-2.7916666666666665,400,-3C441.6666666666667,-3.2083333333333335,458.3333333333333,24.416666666666668,500,24C541.6666666666666,23.583333333333332,558.3333333333334,-5,600,-5C641.6666666666666,-5,658.3333333333334,24.625,700,24C741.6666666666666,23.375,779.1666666666666,-1.333333333333334,800,-8" transform="matrix(1,0,0,1,0,204)"></path><path d="M10,10C28.75,13.333333333333332,60.416666666666664,30.583333333333332,100,26C139.58333333333334,21.416666666666668,158.33333333333331,-11.791666666666666,200,-12C241.66666666666669,-12.208333333333334,258.3333333333333,23.125,300,25C341.6666666666667,26.875,358.3333333333333,-2.7916666666666665,400,-3C441.6666666666667,-3.2083333333333335,458.3333333333333,24.416666666666668,500,24C541.6666666666666,23.583333333333332,558.3333333333334,-5,600,-5C641.6666666666666,-5,658.3333333333334,24.625,700,24C741.6666666666666,23.375,779.1666666666666,-1.333333333333334,800,-8" transform="matrix(1,0,0,1,0,136)"></path><path d="M10,10C28.75,13.333333333333332,60.416666666666664,30.583333333333332,100,26C139.58333333333334,21.416666666666668,158.33333333333331,-11.791666666666666,200,-12C241.66666666666669,-12.208333333333334,258.3333333333333,23.125,300,25C341.6666666666667,26.875,358.3333333333333,-2.7916666666666665,400,-3C441.6666666666667,-3.2083333333333335,458.3333333333333,24.416666666666668,500,24C541.6666666666666,23.583333333333332,558.3333333333334,-5,600,-5C641.6666666666666,-5,658.3333333333334,24.625,700,24C741.6666666666666,23.375,779.1666666666666,-1.333333333333334,800,-8" transform="matrix(1,0,0,1,0,68)"></path></g></svg>