<svg xmlns="http://www.w3.org/2000/svg" version="1.1" xmlns:xlink="http://www.w3.org/1999/xlink" xmlns:svgjs="http://svgjs.dev/svgjs" viewBox="0 0 640 800" opacity="0.83"><g fill="none" stroke-width="3" stroke="#87a2c0" stroke-linecap="round" stroke-dasharray="31.5 44.5" transform="matrix(1.1,0,0,1.1,-32,-40.00000305175786)"><line x1="-337" y1="400" x2="977" y2="400" transform="rotate(0, 320, 400)" opacity="0.29"></line><line x1="-298" y1="400" x2="938" y2="400" transform="rotate(5, 320, 400)" opacity="0.69"></line><line x1="-3.5" y1="400" x2="643.5" y2="400" transform="rotate(10, 320, 400)" opacity="0.76"></line><line x1="95.5" y1="400" x2="544.5" y2="400" transform="rotate(15, 320, 400)" opacity="0.71"></line><line x1="205.5" y1="400" x2="434.5" y2="400" transform="rotate(20, 320, 400)" opacity="0.07"></line><line x1="-273.5" y1="400" x2="913.5" y2="400" transform="rotate(25, 320, 400)" opacity="0.83"></line><line x1="-14.5" y1="400" x2="654.5" y2="400" transform="rotate(30, 320, 400)" opacity="0.54"></line><line x1="129.5" y1="400" x2="510.5" y2="400" transform="rotate(35, 320, 400)" opacity="0.84"></line><line x1="270" y1="400" x2="370" y2="400" transform="rotate(40, 320, 400)" opacity="0.07"></line><line x1="330" y1="400" x2="310" y2="400" transform="rotate(45, 320, 400)" opacity="0.76"></line><line x1="139" y1="400" x2="501" y2="400" transform="rotate(50, 320, 400)" opacity="0.91"></line><line x1="-49" y1="400" x2="689" y2="400" transform="rotate(55, 320, 400)" opacity="0.22"></line><line x1="-313.5" y1="400" x2="953.5" y2="400" transform="rotate(60, 320, 400)" opacity="0.78"></line><line x1="71.5" y1="400" x2="568.5" y2="400" transform="rotate(65, 320, 400)" opacity="0.79"></line><line x1="287" y1="400" x2="353" y2="400" transform="rotate(70, 320, 400)" opacity="0.10"></line><line x1="-388" y1="400" x2="1028" y2="400" transform="rotate(75, 320, 400)" opacity="0.50"></line><line x1="73.5" y1="400" x2="566.5" y2="400" transform="rotate(80, 320, 400)" opacity="0.52"></line><line x1="53.5" y1="400" x2="586.5" y2="400" transform="rotate(85, 320, 400)" opacity="0.38"></line><line x1="168" y1="400" x2="472" y2="400" transform="rotate(90, 320, 400)" opacity="0.53"></line><line x1="274" y1="400" x2="366" y2="400" transform="rotate(95, 320, 400)" opacity="0.61"></line><line x1="329.5" y1="400" x2="310.5" y2="400" transform="rotate(100, 320, 400)" opacity="0.12"></line><line x1="-389" y1="400" x2="1029" y2="400" transform="rotate(105, 320, 400)" opacity="0.25"></line><line x1="-389.5" y1="400" x2="1029.5" y2="400" transform="rotate(110, 320, 400)" opacity="0.14"></line><line x1="-59" y1="400" x2="699" y2="400" transform="rotate(115, 320, 400)" opacity="0.74"></line><line x1="-320" y1="400" x2="960" y2="400" transform="rotate(120, 320, 400)" opacity="0.63"></line><line x1="40" y1="400" x2="600" y2="400" transform="rotate(125, 320, 400)" opacity="0.28"></line><line x1="-319" y1="400" x2="959" y2="400" transform="rotate(130, 320, 400)" opacity="0.15"></line><line x1="-129.5" y1="400" x2="769.5" y2="400" transform="rotate(135, 320, 400)" opacity="0.53"></line><line x1="290.5" y1="400" x2="349.5" y2="400" transform="rotate(140, 320, 400)" opacity="0.10"></line><line x1="-292" y1="400" x2="932" y2="400" transform="rotate(145, 320, 400)" opacity="0.65"></line><line x1="115" y1="400" x2="525" y2="400" transform="rotate(150, 320, 400)" opacity="0.83"></line><line x1="349.5" y1="400" x2="290.5" y2="400" transform="rotate(155, 320, 400)" opacity="0.38"></line><line x1="336" y1="400" x2="304" y2="400" transform="rotate(160, 320, 400)" opacity="0.42"></line><line x1="164" y1="400" x2="476" y2="400" transform="rotate(165, 320, 400)" opacity="0.59"></line><line x1="199.5" y1="400" x2="440.5" y2="400" transform="rotate(170, 320, 400)" opacity="0.11"></line><line x1="-22.5" y1="400" x2="662.5" y2="400" transform="rotate(175, 320, 400)" opacity="0.55"></line><line x1="-320" y1="400" x2="960" y2="400" transform="rotate(180, 320, 400)" opacity="0.53"></line><line x1="-361" y1="400" x2="1001" y2="400" transform="rotate(185, 320, 400)" opacity="0.41"></line><line x1="-295.5" y1="400" x2="935.5" y2="400" transform="rotate(190, 320, 400)" opacity="0.49"></line><line x1="-320.5" y1="400" x2="960.5" y2="400" transform="rotate(195, 320, 400)" opacity="0.96"></line><line x1="94" y1="400" x2="546" y2="400" transform="rotate(200, 320, 400)" opacity="0.20"></line><line x1="-118.5" y1="400" x2="758.5" y2="400" transform="rotate(205, 320, 400)" opacity="0.74"></line><line x1="-384" y1="400" x2="1024" y2="400" transform="rotate(210, 320, 400)" opacity="0.26"></line><line x1="115" y1="400" x2="525" y2="400" transform="rotate(215, 320, 400)" opacity="0.34"></line><line x1="192" y1="400" x2="448" y2="400" transform="rotate(220, 320, 400)" opacity="0.26"></line><line x1="18.5" y1="400" x2="621.5" y2="400" transform="rotate(225, 320, 400)" opacity="0.19"></line><line x1="-408.5" y1="400" x2="1048.5" y2="400" transform="rotate(230, 320, 400)" opacity="0.67"></line><line x1="-118" y1="400" x2="758" y2="400" transform="rotate(235, 320, 400)" opacity="0.93"></line><line x1="237" y1="400" x2="403" y2="400" transform="rotate(240, 320, 400)" opacity="0.24"></line><line x1="-335" y1="400" x2="975" y2="400" transform="rotate(245, 320, 400)" opacity="0.80"></line><line x1="272.5" y1="400" x2="367.5" y2="400" transform="rotate(250, 320, 400)" opacity="0.82"></line><line x1="297.5" y1="400" x2="342.5" y2="400" transform="rotate(255, 320, 400)" opacity="0.11"></line><line x1="-353.5" y1="400" x2="993.5" y2="400" transform="rotate(260, 320, 400)" opacity="0.25"></line><line x1="359.5" y1="400" x2="280.5" y2="400" transform="rotate(265, 320, 400)" opacity="0.93"></line><line x1="-175.5" y1="400" x2="815.5" y2="400" transform="rotate(270, 320, 400)" opacity="0.43"></line><line x1="-94" y1="400" x2="734" y2="400" transform="rotate(275, 320, 400)" opacity="0.84"></line><line x1="-65.5" y1="400" x2="705.5" y2="400" transform="rotate(280, 320, 400)" opacity="0.19"></line><line x1="3.5" y1="400" x2="636.5" y2="400" transform="rotate(285, 320, 400)" opacity="0.16"></line><line x1="-403.5" y1="400" x2="1043.5" y2="400" transform="rotate(290, 320, 400)" opacity="0.34"></line><line x1="-308.5" y1="400" x2="948.5" y2="400" transform="rotate(295, 320, 400)" opacity="0.27"></line><line x1="-33.5" y1="400" x2="673.5" y2="400" transform="rotate(300, 320, 400)" opacity="0.66"></line><line x1="-31" y1="400" x2="671" y2="400" transform="rotate(305, 320, 400)" opacity="0.76"></line><line x1="-287.5" y1="400" x2="927.5" y2="400" transform="rotate(310, 320, 400)" opacity="0.78"></line><line x1="275" y1="400" x2="365" y2="400" transform="rotate(315, 320, 400)" opacity="0.98"></line><line x1="-196.5" y1="400" x2="836.5" y2="400" transform="rotate(320, 320, 400)" opacity="0.36"></line><line x1="-403.5" y1="400" x2="1043.5" y2="400" transform="rotate(325, 320, 400)" opacity="0.28"></line><line x1="124.5" y1="400" x2="515.5" y2="400" transform="rotate(330, 320, 400)" opacity="0.83"></line><line x1="-192" y1="400" x2="832" y2="400" transform="rotate(335, 320, 400)" opacity="0.18"></line><line x1="-274" y1="400" x2="914" y2="400" transform="rotate(340, 320, 400)" opacity="0.23"></line><line x1="90.5" y1="400" x2="549.5" y2="400" transform="rotate(345, 320, 400)" opacity="0.96"></line><line x1="201" y1="400" x2="439" y2="400" transform="rotate(350, 320, 400)" opacity="0.44"></line><line x1="326" y1="400" x2="314" y2="400" transform="rotate(355, 320, 400)" opacity="0.73"></line><line x1="99" y1="400" x2="541" y2="400" transform="rotate(360, 320, 400)" opacity="0.78"></line><line x1="-272" y1="400" x2="912" y2="400" transform="rotate(365, 320, 400)" opacity="0.07"></line><line x1="319.5" y1="400" x2="320.5" y2="400" transform="rotate(370, 320, 400)" opacity="0.09"></line><line x1="326" y1="400" x2="314" y2="400" transform="rotate(375, 320, 400)" opacity="0.94"></line><line x1="-143" y1="400" x2="783" y2="400" transform="rotate(380, 320, 400)" opacity="0.34"></line></g></svg>