<svg xmlns="http://www.w3.org/2000/svg" version="1.1" xmlns:xlink="http://www.w3.org/1999/xlink" xmlns:svgjs="http://svgjs.dev/svgjs" viewBox="0 0 800 800" opacity="0.66"><defs><linearGradient gradientTransform="rotate(270)" x1="50%" y1="0%" x2="50%" y2="100%" id="sssquiggly-grad"><stop stop-color="#23405a" stop-opacity="1" offset="0%"></stop><stop stop-color="#aac5e5" stop-opacity="1" offset="100%"></stop></linearGradient></defs><g stroke-width="1" stroke="url(#sssquiggly-grad)" fill="none" stroke-linecap="round" transform="matrix(1,0,0,1,-5,235.07490921020508)"><path d="M10,10C28.75,11.458333333333334,60.416666666666664,20.75,100,17C139.58333333333334,13.25,158.33333333333331,-8.208333333333334,200,-8C241.66666666666669,-7.791666666666667,258.3333333333333,17.375,300,18C341.6666666666667,18.625,358.3333333333333,-5.833333333333333,400,-5C441.6666666666667,-4.166666666666667,458.3333333333333,22.833333333333332,500,22C541.6666666666666,21.166666666666668,558.3333333333334,-11.708333333333332,600,-9C641.6666666666666,-6.291666666666667,658.3333333333334,34.375,700,35C741.6666666666666,35.625,779.1666666666666,2.541666666666666,800,-6"></path><path d="M10,10C28.75,11.458333333333334,60.416666666666664,20.75,100,17C139.58333333333334,13.25,158.33333333333331,-8.208333333333334,200,-8C241.66666666666669,-7.791666666666667,258.3333333333333,17.375,300,18C341.6666666666667,18.625,358.3333333333333,-5.833333333333333,400,-5C441.6666666666667,-4.166666666666667,458.3333333333333,22.833333333333332,500,22C541.6666666666666,21.166666666666668,558.3333333333334,-11.708333333333332,600,-9C641.6666666666666,-6.291666666666667,658.3333333333334,34.375,700,35C741.6666666666666,35.625,779.1666666666666,2.541666666666666,800,-6" transform="matrix(1,0,0,1,0,304)"></path><path d="M10,10C28.75,11.458333333333334,60.416666666666664,20.75,100,17C139.58333333333334,13.25,158.33333333333331,-8.208333333333334,200,-8C241.66666666666669,-7.791666666666667,258.3333333333333,17.375,300,18C341.6666666666667,18.625,358.3333333333333,-5.833333333333333,400,-5C441.6666666666667,-4.166666666666667,458.3333333333333,22.833333333333332,500,22C541.6666666666666,21.166666666666668,558.3333333333334,-11.708333333333332,600,-9C641.6666666666666,-6.291666666666667,658.3333333333334,34.375,700,35C741.6666666666666,35.625,779.1666666666666,2.541666666666666,800,-6" transform="matrix(1,0,0,1,0,288)"></path><path d="M10,10C28.75,11.458333333333334,60.416666666666664,20.75,100,17C139.58333333333334,13.25,158.33333333333331,-8.208333333333334,200,-8C241.66666666666669,-7.791666666666667,258.3333333333333,17.375,300,18C341.6666666666667,18.625,358.3333333333333,-5.833333333333333,400,-5C441.6666666666667,-4.166666666666667,458.3333333333333,22.833333333333332,500,22C541.6666666666666,21.166666666666668,558.3333333333334,-11.708333333333332,600,-9C641.6666666666666,-6.291666666666667,658.3333333333334,34.375,700,35C741.6666666666666,35.625,779.1666666666666,2.541666666666666,800,-6" transform="matrix(1,0,0,1,0,272)"></path><path d="M10,10C28.75,11.458333333333334,60.416666666666664,20.75,100,17C139.58333333333334,13.25,158.33333333333331,-8.208333333333334,200,-8C241.66666666666669,-7.791666666666667,258.3333333333333,17.375,300,18C341.6666666666667,18.625,358.3333333333333,-5.833333333333333,400,-5C441.6666666666667,-4.166666666666667,458.3333333333333,22.833333333333332,500,22C541.6666666666666,21.166666666666668,558.3333333333334,-11.708333333333332,600,-9C641.6666666666666,-6.291666666666667,658.3333333333334,34.375,700,35C741.6666666666666,35.625,779.1666666666666,2.541666666666666,800,-6" transform="matrix(1,0,0,1,0,256)"></path><path d="M10,10C28.75,11.458333333333334,60.416666666666664,20.75,100,17C139.58333333333334,13.25,158.33333333333331,-8.208333333333334,200,-8C241.66666666666669,-7.791666666666667,258.3333333333333,17.375,300,18C341.6666666666667,18.625,358.3333333333333,-5.833333333333333,400,-5C441.6666666666667,-4.166666666666667,458.3333333333333,22.833333333333332,500,22C541.6666666666666,21.166666666666668,558.3333333333334,-11.708333333333332,600,-9C641.6666666666666,-6.291666666666667,658.3333333333334,34.375,700,35C741.6666666666666,35.625,779.1666666666666,2.541666666666666,800,-6" transform="matrix(1,0,0,1,0,240)"></path><path d="M10,10C28.75,11.458333333333334,60.416666666666664,20.75,100,17C139.58333333333334,13.25,158.33333333333331,-8.208333333333334,200,-8C241.66666666666669,-7.791666666666667,258.3333333333333,17.375,300,18C341.6666666666667,18.625,358.3333333333333,-5.833333333333333,400,-5C441.6666666666667,-4.166666666666667,458.3333333333333,22.833333333333332,500,22C541.6666666666666,21.166666666666668,558.3333333333334,-11.708333333333332,600,-9C641.6666666666666,-6.291666666666667,658.3333333333334,34.375,700,35C741.6666666666666,35.625,779.1666666666666,2.541666666666666,800,-6" transform="matrix(1,0,0,1,0,224)"></path><path d="M10,10C28.75,11.458333333333334,60.416666666666664,20.75,100,17C139.58333333333334,13.25,158.33333333333331,-8.208333333333334,200,-8C241.66666666666669,-7.791666666666667,258.3333333333333,17.375,300,18C341.6666666666667,18.625,358.3333333333333,-5.833333333333333,400,-5C441.6666666666667,-4.166666666666667,458.3333333333333,22.833333333333332,500,22C541.6666666666666,21.166666666666668,558.3333333333334,-11.708333333333332,600,-9C641.6666666666666,-6.291666666666667,658.3333333333334,34.375,700,35C741.6666666666666,35.625,779.1666666666666,2.541666666666666,800,-6" transform="matrix(1,0,0,1,0,208)"></path><path d="M10,10C28.75,11.458333333333334,60.416666666666664,20.75,100,17C139.58333333333334,13.25,158.33333333333331,-8.208333333333334,200,-8C241.66666666666669,-7.791666666666667,258.3333333333333,17.375,300,18C341.6666666666667,18.625,358.3333333333333,-5.833333333333333,400,-5C441.6666666666667,-4.166666666666667,458.3333333333333,22.833333333333332,500,22C541.6666666666666,21.166666666666668,558.3333333333334,-11.708333333333332,600,-9C641.6666666666666,-6.291666666666667,658.3333333333334,34.375,700,35C741.6666666666666,35.625,779.1666666666666,2.541666666666666,800,-6" transform="matrix(1,0,0,1,0,192)"></path><path d="M10,10C28.75,11.458333333333334,60.416666666666664,20.75,100,17C139.58333333333334,13.25,158.33333333333331,-8.208333333333334,200,-8C241.66666666666669,-7.791666666666667,258.3333333333333,17.375,300,18C341.6666666666667,18.625,358.3333333333333,-5.833333333333333,400,-5C441.6666666666667,-4.166666666666667,458.3333333333333,22.833333333333332,500,22C541.6666666666666,21.166666666666668,558.3333333333334,-11.708333333333332,600,-9C641.6666666666666,-6.291666666666667,658.3333333333334,34.375,700,35C741.6666666666666,35.625,779.1666666666666,2.541666666666666,800,-6" transform="matrix(1,0,0,1,0,176)"></path><path d="M10,10C28.75,11.458333333333334,60.416666666666664,20.75,100,17C139.58333333333334,13.25,158.33333333333331,-8.208333333333334,200,-8C241.66666666666669,-7.791666666666667,258.3333333333333,17.375,300,18C341.6666666666667,18.625,358.3333333333333,-5.833333333333333,400,-5C441.6666666666667,-4.166666666666667,458.3333333333333,22.833333333333332,500,22C541.6666666666666,21.166666666666668,558.3333333333334,-11.708333333333332,600,-9C641.6666666666666,-6.291666666666667,658.3333333333334,34.375,700,35C741.6666666666666,35.625,779.1666666666666,2.541666666666666,800,-6" transform="matrix(1,0,0,1,0,160)"></path><path d="M10,10C28.75,11.458333333333334,60.416666666666664,20.75,100,17C139.58333333333334,13.25,158.33333333333331,-8.208333333333334,200,-8C241.66666666666669,-7.791666666666667,258.3333333333333,17.375,300,18C341.6666666666667,18.625,358.3333333333333,-5.833333333333333,400,-5C441.6666666666667,-4.166666666666667,458.3333333333333,22.833333333333332,500,22C541.6666666666666,21.166666666666668,558.3333333333334,-11.708333333333332,600,-9C641.6666666666666,-6.291666666666667,658.3333333333334,34.375,700,35C741.6666666666666,35.625,779.1666666666666,2.541666666666666,800,-6" transform="matrix(1,0,0,1,0,144)"></path><path d="M10,10C28.75,11.458333333333334,60.416666666666664,20.75,100,17C139.58333333333334,13.25,158.33333333333331,-8.208333333333334,200,-8C241.66666666666669,-7.791666666666667,258.3333333333333,17.375,300,18C341.6666666666667,18.625,358.3333333333333,-5.833333333333333,400,-5C441.6666666666667,-4.166666666666667,458.3333333333333,22.833333333333332,500,22C541.6666666666666,21.166666666666668,558.3333333333334,-11.708333333333332,600,-9C641.6666666666666,-6.291666666666667,658.3333333333334,34.375,700,35C741.6666666666666,35.625,779.1666666666666,2.541666666666666,800,-6" transform="matrix(1,0,0,1,0,128)"></path><path d="M10,10C28.75,11.458333333333334,60.416666666666664,20.75,100,17C139.58333333333334,13.25,158.33333333333331,-8.208333333333334,200,-8C241.66666666666669,-7.791666666666667,258.3333333333333,17.375,300,18C341.6666666666667,18.625,358.3333333333333,-5.833333333333333,400,-5C441.6666666666667,-4.166666666666667,458.3333333333333,22.833333333333332,500,22C541.6666666666666,21.166666666666668,558.3333333333334,-11.708333333333332,600,-9C641.6666666666666,-6.291666666666667,658.3333333333334,34.375,700,35C741.6666666666666,35.625,779.1666666666666,2.541666666666666,800,-6" transform="matrix(1,0,0,1,0,112)"></path><path d="M10,10C28.75,11.458333333333334,60.416666666666664,20.75,100,17C139.58333333333334,13.25,158.33333333333331,-8.208333333333334,200,-8C241.66666666666669,-7.791666666666667,258.3333333333333,17.375,300,18C341.6666666666667,18.625,358.3333333333333,-5.833333333333333,400,-5C441.6666666666667,-4.166666666666667,458.3333333333333,22.833333333333332,500,22C541.6666666666666,21.166666666666668,558.3333333333334,-11.708333333333332,600,-9C641.6666666666666,-6.291666666666667,658.3333333333334,34.375,700,35C741.6666666666666,35.625,779.1666666666666,2.541666666666666,800,-6" transform="matrix(1,0,0,1,0,96)"></path><path d="M10,10C28.75,11.458333333333334,60.416666666666664,20.75,100,17C139.58333333333334,13.25,158.33333333333331,-8.208333333333334,200,-8C241.66666666666669,-7.791666666666667,258.3333333333333,17.375,300,18C341.6666666666667,18.625,358.3333333333333,-5.833333333333333,400,-5C441.6666666666667,-4.166666666666667,458.3333333333333,22.833333333333332,500,22C541.6666666666666,21.166666666666668,558.3333333333334,-11.708333333333332,600,-9C641.6666666666666,-6.291666666666667,658.3333333333334,34.375,700,35C741.6666666666666,35.625,779.1666666666666,2.541666666666666,800,-6" transform="matrix(1,0,0,1,0,80)"></path><path d="M10,10C28.75,11.458333333333334,60.416666666666664,20.75,100,17C139.58333333333334,13.25,158.33333333333331,-8.208333333333334,200,-8C241.66666666666669,-7.791666666666667,258.3333333333333,17.375,300,18C341.6666666666667,18.625,358.3333333333333,-5.833333333333333,400,-5C441.6666666666667,-4.166666666666667,458.3333333333333,22.833333333333332,500,22C541.6666666666666,21.166666666666668,558.3333333333334,-11.708333333333332,600,-9C641.6666666666666,-6.291666666666667,658.3333333333334,34.375,700,35C741.6666666666666,35.625,779.1666666666666,2.541666666666666,800,-6" transform="matrix(1,0,0,1,0,64)"></path><path d="M10,10C28.75,11.458333333333334,60.416666666666664,20.75,100,17C139.58333333333334,13.25,158.33333333333331,-8.208333333333334,200,-8C241.66666666666669,-7.791666666666667,258.3333333333333,17.375,300,18C341.6666666666667,18.625,358.3333333333333,-5.833333333333333,400,-5C441.6666666666667,-4.166666666666667,458.3333333333333,22.833333333333332,500,22C541.6666666666666,21.166666666666668,558.3333333333334,-11.708333333333332,600,-9C641.6666666666666,-6.291666666666667,658.3333333333334,34.375,700,35C741.6666666666666,35.625,779.1666666666666,2.541666666666666,800,-6" transform="matrix(1,0,0,1,0,48)"></path><path d="M10,10C28.75,11.458333333333334,60.416666666666664,20.75,100,17C139.58333333333334,13.25,158.33333333333331,-8.208333333333334,200,-8C241.66666666666669,-7.791666666666667,258.3333333333333,17.375,300,18C341.6666666666667,18.625,358.3333333333333,-5.833333333333333,400,-5C441.6666666666667,-4.166666666666667,458.3333333333333,22.833333333333332,500,22C541.6666666666666,21.166666666666668,558.3333333333334,-11.708333333333332,600,-9C641.6666666666666,-6.291666666666667,658.3333333333334,34.375,700,35C741.6666666666666,35.625,779.1666666666666,2.541666666666666,800,-6" transform="matrix(1,0,0,1,0,32)"></path><path d="M10,10C28.75,11.458333333333334,60.416666666666664,20.75,100,17C139.58333333333334,13.25,158.33333333333331,-8.208333333333334,200,-8C241.66666666666669,-7.791666666666667,258.3333333333333,17.375,300,18C341.6666666666667,18.625,358.3333333333333,-5.833333333333333,400,-5C441.6666666666667,-4.166666666666667,458.3333333333333,22.833333333333332,500,22C541.6666666666666,21.166666666666668,558.3333333333334,-11.708333333333332,600,-9C641.6666666666666,-6.291666666666667,658.3333333333334,34.375,700,35C741.6666666666666,35.625,779.1666666666666,2.541666666666666,800,-6" transform="matrix(1,0,0,1,0,16)"></path></g></svg>